%TF.GenerationSoftware,KiCad,Pcbnew,9.0.7*%
%TF.CreationDate,2026-04-18T17:53:43+05:30*%
%TF.ProjectId,ParqHome_KICAD,50617271-486f-46d6-955f-4b494341442e,rev?*%
%TF.SameCoordinates,Original*%
%TF.FileFunction,Soldermask,Top*%
%TF.FilePolarity,Negative*%
%FSLAX46Y46*%
G04 Gerber Fmt 4.6, Leading zero omitted, Abs format (unit mm)*
G04 Created by KiCad (PCBNEW 9.0.7) date 2026-04-18 17:53:43*
%MOMM*%
%LPD*%
G01*
G04 APERTURE LIST*
G04 Aperture macros list*
%AMRoundRect*
0 Rectangle with rounded corners*
0 $1 Rounding radius*
0 $2 $3 $4 $5 $6 $7 $8 $9 X,Y pos of 4 corners*
0 Add a 4 corners polygon primitive as box body*
4,1,4,$2,$3,$4,$5,$6,$7,$8,$9,$2,$3,0*
0 Add four circle primitives for the rounded corners*
1,1,$1+$1,$2,$3*
1,1,$1+$1,$4,$5*
1,1,$1+$1,$6,$7*
1,1,$1+$1,$8,$9*
0 Add four rect primitives between the rounded corners*
20,1,$1+$1,$2,$3,$4,$5,0*
20,1,$1+$1,$4,$5,$6,$7,0*
20,1,$1+$1,$6,$7,$8,$9,0*
20,1,$1+$1,$8,$9,$2,$3,0*%
G04 Aperture macros list end*
%ADD10R,1.050000X1.500000*%
%ADD11O,1.050000X1.500000*%
%ADD12RoundRect,0.250000X0.450000X-0.262500X0.450000X0.262500X-0.450000X0.262500X-0.450000X-0.262500X0*%
%ADD13RoundRect,0.375000X0.625000X0.375000X-0.625000X0.375000X-0.625000X-0.375000X0.625000X-0.375000X0*%
%ADD14RoundRect,0.500000X0.500000X1.400000X-0.500000X1.400000X-0.500000X-1.400000X0.500000X-1.400000X0*%
%ADD15RoundRect,0.250001X-0.949999X0.949999X-0.949999X-0.949999X0.949999X-0.949999X0.949999X0.949999X0*%
%ADD16C,2.400000*%
%ADD17C,3.000000*%
%ADD18C,2.500000*%
%ADD19RoundRect,0.250000X-0.262500X-0.450000X0.262500X-0.450000X0.262500X0.450000X-0.262500X0.450000X0*%
%ADD20RoundRect,0.249999X-0.850001X-0.850001X0.850001X-0.850001X0.850001X0.850001X-0.850001X0.850001X0*%
%ADD21C,2.200000*%
%ADD22C,2.000000*%
%ADD23RoundRect,0.250000X-0.750000X0.600000X-0.750000X-0.600000X0.750000X-0.600000X0.750000X0.600000X0*%
%ADD24O,2.000000X1.700000*%
%ADD25RoundRect,0.250000X-0.550000X-0.550000X0.550000X-0.550000X0.550000X0.550000X-0.550000X0.550000X0*%
%ADD26C,1.600000*%
%ADD27C,3.200000*%
%ADD28R,1.700000X1.700000*%
%ADD29C,1.700000*%
%ADD30R,1.000000X2.500000*%
%ADD31R,1.800000X1.000000*%
%ADD32RoundRect,0.575000X-0.575000X-0.575000X0.575000X-0.575000X0.575000X0.575000X-0.575000X0.575000X0*%
%ADD33C,2.300000*%
%ADD34RoundRect,0.243750X0.456250X-0.243750X0.456250X0.243750X-0.456250X0.243750X-0.456250X-0.243750X0*%
%ADD35RoundRect,0.250000X0.475000X-0.250000X0.475000X0.250000X-0.475000X0.250000X-0.475000X-0.250000X0*%
G04 APERTURE END LIST*
D10*
%TO.C,Q3*%
X118103140Y-143500000D03*
D11*
X119373140Y-143500000D03*
X120643140Y-143500000D03*
%TD*%
D12*
%TO.C,R1*%
X215500000Y-112500000D03*
X215500000Y-110675000D03*
%TD*%
D13*
%TO.C,U2*%
X160500000Y-105800000D03*
X160500000Y-103500000D03*
D14*
X154200000Y-103500000D03*
D13*
X160500000Y-101200000D03*
%TD*%
D15*
%TO.C,J3*%
X75357500Y-106660000D03*
D16*
X75357500Y-111740000D03*
%TD*%
D15*
%TO.C,J1*%
X69810000Y-52500000D03*
D16*
X69810000Y-57580000D03*
%TD*%
D17*
%TO.C,K3*%
X83650000Y-143500000D03*
D18*
X85600000Y-149550000D03*
D17*
X97800000Y-149550000D03*
X97850000Y-137500000D03*
D18*
X85600000Y-137550000D03*
%TD*%
D10*
%TO.C,Q1*%
X118230000Y-109500000D03*
D11*
X119500000Y-109500000D03*
X120770000Y-109500000D03*
%TD*%
D17*
%TO.C,K2*%
X83650000Y-126550000D03*
D18*
X85600000Y-132600000D03*
D17*
X97800000Y-132600000D03*
X97850000Y-120550000D03*
D18*
X85600000Y-120600000D03*
%TD*%
D19*
%TO.C,Rb1*%
X201175000Y-96000000D03*
X203000000Y-96000000D03*
%TD*%
D12*
%TO.C,PU_R5*%
X211500000Y-113912500D03*
X211500000Y-112087500D03*
%TD*%
D17*
%TO.C,K1*%
X83500000Y-109500000D03*
D18*
X85450000Y-115550000D03*
D17*
X97650000Y-115550000D03*
X97700000Y-103500000D03*
D18*
X85450000Y-103550000D03*
%TD*%
D20*
%TO.C,D1*%
X103840000Y-109500000D03*
D21*
X114000000Y-109500000D03*
%TD*%
D22*
%TO.C,TP3*%
X207500000Y-112400000D03*
X207500000Y-114940000D03*
%TD*%
D12*
%TO.C,PU_R4*%
X213000000Y-120912500D03*
X213000000Y-119087500D03*
%TD*%
D23*
%TO.C,PS1*%
X94000000Y-64212500D03*
D24*
X89000000Y-64212500D03*
X99000000Y-93292500D03*
X84000000Y-93292500D03*
%TD*%
D15*
%TO.C,J5*%
X75357500Y-141160000D03*
D16*
X75357500Y-146240000D03*
%TD*%
D25*
%TO.C,C_out1*%
X166750000Y-107250000D03*
D26*
X169250000Y-107250000D03*
%TD*%
D22*
%TO.C,TP2*%
X157700000Y-114070000D03*
X157700000Y-111530000D03*
%TD*%
D12*
%TO.C,PU_R3*%
X217500000Y-88500000D03*
X217500000Y-86675000D03*
%TD*%
D27*
%TO.C,H2*%
X60500000Y-154500000D03*
%TD*%
D28*
%TO.C,J2*%
X227250000Y-120250000D03*
D29*
X227250000Y-122790000D03*
X227250000Y-125330000D03*
X227250000Y-127870000D03*
%TD*%
D22*
%TO.C,TP1*%
X74730000Y-93500000D03*
X77270000Y-93500000D03*
%TD*%
D25*
%TO.C,C_in1*%
X164500000Y-94000000D03*
D26*
X167000000Y-94000000D03*
%TD*%
D30*
%TO.C,U1*%
X221500000Y-92800000D03*
X219500000Y-92800000D03*
X217500000Y-92800000D03*
X215500000Y-92800000D03*
X213500000Y-92800000D03*
X211500000Y-92800000D03*
X209500000Y-92800000D03*
X207500000Y-92800000D03*
D31*
X206000000Y-95400000D03*
X206000000Y-97400000D03*
X206000000Y-99400000D03*
X206000000Y-101400000D03*
X206000000Y-103400000D03*
X206000000Y-105400000D03*
D30*
X207500000Y-108000000D03*
X209500000Y-108000000D03*
X211500000Y-108000000D03*
X213500000Y-108000000D03*
X215500000Y-108000000D03*
X217500000Y-108000000D03*
X219500000Y-108000000D03*
X221500000Y-108000000D03*
%TD*%
D12*
%TO.C,PU_R2*%
X209500000Y-120912500D03*
X209500000Y-119087500D03*
%TD*%
D20*
%TO.C,D4*%
X103670000Y-143500000D03*
D21*
X113830000Y-143500000D03*
%TD*%
D12*
%TO.C,PU_R1*%
X221500000Y-89912500D03*
X221500000Y-88087500D03*
%TD*%
D32*
%TO.C,F1*%
X81300000Y-55000000D03*
X87100000Y-55000000D03*
D33*
X96000000Y-55000000D03*
X101800000Y-55000000D03*
%TD*%
D27*
%TO.C,H4*%
X213000000Y-154500000D03*
%TD*%
D15*
%TO.C,J4*%
X75357500Y-124660000D03*
D16*
X75357500Y-129740000D03*
%TD*%
D27*
%TO.C,H1*%
X60000000Y-35500000D03*
%TD*%
D34*
%TO.C,D2*%
X215500000Y-116525000D03*
X215500000Y-114650000D03*
%TD*%
D20*
%TO.C,D3*%
X103920000Y-126500000D03*
D21*
X114080000Y-126500000D03*
%TD*%
D19*
%TO.C,Rb3*%
X201175000Y-101900000D03*
X203000000Y-101900000D03*
%TD*%
D10*
%TO.C,Q2*%
X117960000Y-126360000D03*
D11*
X119230000Y-126360000D03*
X120500000Y-126360000D03*
%TD*%
D26*
%TO.C,RV1*%
X105500000Y-54850000D03*
X110500000Y-56150000D03*
%TD*%
D27*
%TO.C,H3*%
X214500000Y-36000000D03*
%TD*%
D35*
%TO.C,C_esp1*%
X207500000Y-88900000D03*
X207500000Y-87000000D03*
%TD*%
D19*
%TO.C,Rb2*%
X201175000Y-98950000D03*
X203000000Y-98950000D03*
%TD*%
M02*
