%TF.GenerationSoftware,KiCad,Pcbnew,9.0.7*%
%TF.CreationDate,2026-04-18T17:53:43+05:30*%
%TF.ProjectId,ParqHome_KICAD,50617271-486f-46d6-955f-4b494341442e,rev?*%
%TF.SameCoordinates,Original*%
%TF.FileFunction,Copper,L2,Bot*%
%TF.FilePolarity,Positive*%
%FSLAX46Y46*%
G04 Gerber Fmt 4.6, Leading zero omitted, Abs format (unit mm)*
G04 Created by KiCad (PCBNEW 9.0.7) date 2026-04-18 17:53:43*
%MOMM*%
%LPD*%
G01*
G04 APERTURE LIST*
G04 Aperture macros list*
%AMRoundRect*
0 Rectangle with rounded corners*
0 $1 Rounding radius*
0 $2 $3 $4 $5 $6 $7 $8 $9 X,Y pos of 4 corners*
0 Add a 4 corners polygon primitive as box body*
4,1,4,$2,$3,$4,$5,$6,$7,$8,$9,$2,$3,0*
0 Add four circle primitives for the rounded corners*
1,1,$1+$1,$2,$3*
1,1,$1+$1,$4,$5*
1,1,$1+$1,$6,$7*
1,1,$1+$1,$8,$9*
0 Add four rect primitives between the rounded corners*
20,1,$1+$1,$2,$3,$4,$5,0*
20,1,$1+$1,$4,$5,$6,$7,0*
20,1,$1+$1,$6,$7,$8,$9,0*
20,1,$1+$1,$8,$9,$2,$3,0*%
G04 Aperture macros list end*
%TA.AperFunction,ComponentPad*%
%ADD10R,1.050000X1.500000*%
%TD*%
%TA.AperFunction,ComponentPad*%
%ADD11O,1.050000X1.500000*%
%TD*%
%TA.AperFunction,ComponentPad*%
%ADD12RoundRect,0.250001X-0.949999X0.949999X-0.949999X-0.949999X0.949999X-0.949999X0.949999X0.949999X0*%
%TD*%
%TA.AperFunction,ComponentPad*%
%ADD13C,2.400000*%
%TD*%
%TA.AperFunction,ComponentPad*%
%ADD14C,3.000000*%
%TD*%
%TA.AperFunction,ComponentPad*%
%ADD15C,2.500000*%
%TD*%
%TA.AperFunction,ComponentPad*%
%ADD16RoundRect,0.249999X-0.850001X-0.850001X0.850001X-0.850001X0.850001X0.850001X-0.850001X0.850001X0*%
%TD*%
%TA.AperFunction,ComponentPad*%
%ADD17C,2.200000*%
%TD*%
%TA.AperFunction,ComponentPad*%
%ADD18C,2.000000*%
%TD*%
%TA.AperFunction,ComponentPad*%
%ADD19RoundRect,0.250000X-0.750000X0.600000X-0.750000X-0.600000X0.750000X-0.600000X0.750000X0.600000X0*%
%TD*%
%TA.AperFunction,ComponentPad*%
%ADD20O,2.000000X1.700000*%
%TD*%
%TA.AperFunction,ComponentPad*%
%ADD21RoundRect,0.250000X-0.550000X-0.550000X0.550000X-0.550000X0.550000X0.550000X-0.550000X0.550000X0*%
%TD*%
%TA.AperFunction,ComponentPad*%
%ADD22C,1.600000*%
%TD*%
%TA.AperFunction,ComponentPad*%
%ADD23R,1.700000X1.700000*%
%TD*%
%TA.AperFunction,ComponentPad*%
%ADD24C,1.700000*%
%TD*%
%TA.AperFunction,ComponentPad*%
%ADD25RoundRect,0.575000X-0.575000X-0.575000X0.575000X-0.575000X0.575000X0.575000X-0.575000X0.575000X0*%
%TD*%
%TA.AperFunction,ComponentPad*%
%ADD26C,2.300000*%
%TD*%
%TA.AperFunction,ViaPad*%
%ADD27C,0.600000*%
%TD*%
%TA.AperFunction,Conductor*%
%ADD28C,0.200000*%
%TD*%
G04 APERTURE END LIST*
D10*
%TO.P,Q3,1,C*%
%TO.N,Net-(D2-K)*%
X118103140Y-143500000D03*
D11*
%TO.P,Q3,2,B*%
%TO.N,Net-(D4-A)*%
X119373140Y-143500000D03*
%TO.P,Q3,3,E*%
%TO.N,GNDPWR*%
X120643140Y-143500000D03*
%TD*%
D12*
%TO.P,J3,1,Pin_1*%
%TO.N,Net-(J3-Pin_1)*%
X75357500Y-106660000D03*
D13*
%TO.P,J3,2,Pin_2*%
%TO.N,Net-(J1-Pin_2)*%
X75357500Y-111740000D03*
%TD*%
D12*
%TO.P,J1,1,Pin_1*%
%TO.N,Net-(J1-Pin_1)*%
X69810000Y-52500000D03*
D13*
%TO.P,J1,2,Pin_2*%
%TO.N,Net-(J1-Pin_2)*%
X69810000Y-57580000D03*
%TD*%
D14*
%TO.P,K3,1*%
%TO.N,Net-(D1-K)*%
X83650000Y-143500000D03*
D15*
%TO.P,K3,2*%
%TO.N,Net-(D4-A)*%
X85600000Y-149550000D03*
D14*
%TO.P,K3,3*%
%TO.N,Net-(J5-Pin_1)*%
X97800000Y-149550000D03*
%TO.P,K3,4*%
%TO.N,unconnected-(K3-Pad4)*%
X97850000Y-137500000D03*
D15*
%TO.P,K3,5*%
%TO.N,Net-(D1-K)*%
X85600000Y-137550000D03*
%TD*%
D10*
%TO.P,Q1,1,C*%
%TO.N,Net-(D2-K)*%
X118230000Y-109500000D03*
D11*
%TO.P,Q1,2,B*%
%TO.N,Net-(D1-A)*%
X119500000Y-109500000D03*
%TO.P,Q1,3,E*%
%TO.N,GNDPWR*%
X120770000Y-109500000D03*
%TD*%
D14*
%TO.P,K2,1*%
%TO.N,Net-(D1-K)*%
X83650000Y-126550000D03*
D15*
%TO.P,K2,2*%
%TO.N,Net-(D3-A)*%
X85600000Y-132600000D03*
D14*
%TO.P,K2,3*%
%TO.N,Net-(J4-Pin_1)*%
X97800000Y-132600000D03*
%TO.P,K2,4*%
%TO.N,unconnected-(K2-Pad4)*%
X97850000Y-120550000D03*
D15*
%TO.P,K2,5*%
%TO.N,Net-(D1-K)*%
X85600000Y-120600000D03*
%TD*%
D14*
%TO.P,K1,1*%
%TO.N,Net-(D1-K)*%
X83500000Y-109500000D03*
D15*
%TO.P,K1,2*%
%TO.N,Net-(D1-A)*%
X85450000Y-115550000D03*
D14*
%TO.P,K1,3*%
%TO.N,Net-(J3-Pin_1)*%
X97650000Y-115550000D03*
%TO.P,K1,4*%
%TO.N,unconnected-(K1-Pad4)*%
X97700000Y-103500000D03*
D15*
%TO.P,K1,5*%
%TO.N,Net-(D1-K)*%
X85450000Y-103550000D03*
%TD*%
D16*
%TO.P,D1,1,K*%
%TO.N,Net-(D1-K)*%
X103840000Y-109500000D03*
D17*
%TO.P,D1,2,A*%
%TO.N,Net-(D1-A)*%
X114000000Y-109500000D03*
%TD*%
D18*
%TO.P,TP3,1,1*%
%TO.N,GNDPWR*%
X207500000Y-112400000D03*
X207500000Y-114940000D03*
%TD*%
D19*
%TO.P,PS1,1,AC/L*%
%TO.N,Net-(PS1-AC{slash}L)*%
X94000000Y-64212500D03*
D20*
%TO.P,PS1,2,AC/N*%
%TO.N,Net-(J1-Pin_2)*%
X89000000Y-64212500D03*
%TO.P,PS1,3,-Vout*%
%TO.N,GNDPWR*%
X99000000Y-93292500D03*
%TO.P,PS1,4,+Vout*%
%TO.N,Net-(D1-K)*%
X84000000Y-93292500D03*
%TD*%
D12*
%TO.P,J5,1,Pin_1*%
%TO.N,Net-(J5-Pin_1)*%
X75357500Y-141160000D03*
D13*
%TO.P,J5,2,Pin_2*%
%TO.N,Net-(J1-Pin_2)*%
X75357500Y-146240000D03*
%TD*%
D21*
%TO.P,C_out1,1*%
%TO.N,Net-(J1-Pin_2)*%
X166750000Y-107250000D03*
D22*
%TO.P,C_out1,2*%
%TO.N,GNDPWR*%
X169250000Y-107250000D03*
%TD*%
D18*
%TO.P,TP2,1,1*%
%TO.N,Net-(D2-K)*%
X157700000Y-114070000D03*
X157700000Y-111530000D03*
%TD*%
D23*
%TO.P,J2,1,Pin_1*%
%TO.N,Net-(D2-K)*%
X227250000Y-120250000D03*
D24*
%TO.P,J2,2,Pin_2*%
%TO.N,GNDPWR*%
X227250000Y-122790000D03*
%TO.P,J2,3,Pin_3*%
%TO.N,Net-(J2-Pin_3)*%
X227250000Y-125330000D03*
%TO.P,J2,4,Pin_4*%
%TO.N,Net-(J2-Pin_4)*%
X227250000Y-127870000D03*
%TD*%
D18*
%TO.P,TP1,1,1*%
%TO.N,Net-(D1-K)*%
X74730000Y-93500000D03*
X77270000Y-93500000D03*
%TD*%
D21*
%TO.P,C_in1,1*%
%TO.N,Net-(D2-K)*%
X164500000Y-94000000D03*
D22*
%TO.P,C_in1,2*%
%TO.N,GNDPWR*%
X167000000Y-94000000D03*
%TD*%
D16*
%TO.P,D4,1,K*%
%TO.N,Net-(D1-K)*%
X103670000Y-143500000D03*
D17*
%TO.P,D4,2,A*%
%TO.N,Net-(D4-A)*%
X113830000Y-143500000D03*
%TD*%
D25*
%TO.P,F1,1*%
%TO.N,Net-(J1-Pin_1)*%
X81300000Y-55000000D03*
X87100000Y-55000000D03*
D26*
%TO.P,F1,2*%
%TO.N,Net-(PS1-AC{slash}L)*%
X96000000Y-55000000D03*
X101800000Y-55000000D03*
%TD*%
D12*
%TO.P,J4,1,Pin_1*%
%TO.N,Net-(J4-Pin_1)*%
X75357500Y-124660000D03*
D13*
%TO.P,J4,2,Pin_2*%
%TO.N,Net-(J1-Pin_2)*%
X75357500Y-129740000D03*
%TD*%
D16*
%TO.P,D3,1,K*%
%TO.N,Net-(D1-K)*%
X103920000Y-126500000D03*
D17*
%TO.P,D3,2,A*%
%TO.N,Net-(D3-A)*%
X114080000Y-126500000D03*
%TD*%
D10*
%TO.P,Q2,1,C*%
%TO.N,Net-(D2-K)*%
X117960000Y-126360000D03*
D11*
%TO.P,Q2,2,B*%
%TO.N,Net-(D3-A)*%
X119230000Y-126360000D03*
%TO.P,Q2,3,E*%
%TO.N,GNDPWR*%
X120500000Y-126360000D03*
%TD*%
D22*
%TO.P,RV1,1*%
%TO.N,Net-(PS1-AC{slash}L)*%
X105500000Y-54850000D03*
%TO.P,RV1,2*%
%TO.N,Net-(J1-Pin_2)*%
X110500000Y-56150000D03*
%TD*%
D27*
%TO.N,Net-(D2-K)*%
X212621446Y-102378554D03*
X154901000Y-103500000D03*
X208500000Y-93751000D03*
X115750000Y-115000000D03*
X161381378Y-104582994D03*
X115750000Y-135199000D03*
X115750000Y-117500000D03*
X128500000Y-133000000D03*
X115750000Y-131500000D03*
%TO.N,GNDPWR*%
X142325735Y-108325735D03*
X157000000Y-108500000D03*
%TO.N,Net-(J1-Pin_2)*%
X164000000Y-106300000D03*
%TO.N,Net-(D1-K)*%
X124000000Y-103500000D03*
X132000000Y-118000000D03*
X129500000Y-135500000D03*
%TO.N,Net-(D1-A)*%
X110750000Y-108500000D03*
X148500000Y-118250000D03*
X109730000Y-116050000D03*
%TO.N,Net-(D3-A)*%
X115230000Y-128750000D03*
X109750000Y-126500000D03*
X111750000Y-128750000D03*
X141853554Y-124853554D03*
X109000000Y-132500000D03*
%TO.N,Net-(D4-A)*%
X109500000Y-149000000D03*
X109730000Y-143550000D03*
X129500000Y-142250000D03*
%TO.N,Net-(PS1-AC{slash}L)*%
X98949723Y-54949723D03*
%TO.N,Net-(J2-Pin_3)*%
X223500000Y-125500000D03*
%TO.N,Net-(J2-Pin_4)*%
X223500000Y-128000000D03*
%TO.N,Net-(U1-GPIO13)*%
X209418510Y-99366982D03*
X210250000Y-98500000D03*
%TD*%
D28*
%TO.N,Net-(D2-K)*%
X115750000Y-115000000D02*
X115750000Y-117500000D01*
X161304156Y-105147844D02*
X161151000Y-105301000D01*
X208500000Y-93751000D02*
X208500000Y-94000000D01*
X208500000Y-94000000D02*
X212621446Y-98121446D01*
X161151000Y-108079000D02*
X157700000Y-111530000D01*
X212621446Y-102378554D02*
X212621446Y-98121446D01*
X154901000Y-103500000D02*
X160298384Y-103500000D01*
X161304156Y-104660216D02*
X161304156Y-105147844D01*
X160298384Y-103500000D02*
X161381378Y-104582994D01*
X115750000Y-131500000D02*
X115750000Y-135199000D01*
X138770000Y-133000000D02*
X128500000Y-133000000D01*
X138770000Y-133000000D02*
X157700000Y-114070000D01*
X161381378Y-104582994D02*
X161304156Y-104660216D01*
X161151000Y-105301000D02*
X161151000Y-108079000D01*
%TO.N,GNDPWR*%
X142325735Y-108325735D02*
X142500000Y-108500000D01*
X142500000Y-108500000D02*
X157000000Y-108500000D01*
%TO.N,Net-(J1-Pin_2)*%
X113850000Y-56150000D02*
X110500000Y-56150000D01*
X164000000Y-106300000D02*
X113850000Y-56150000D01*
%TO.N,Net-(D1-K)*%
X131750000Y-118250000D02*
X87950000Y-118250000D01*
X98595999Y-135699000D02*
X97104001Y-135699000D01*
X87150000Y-136000000D02*
X85600000Y-137550000D01*
X87201000Y-105301000D02*
X85450000Y-103550000D01*
X96803001Y-136000000D02*
X87150000Y-136000000D01*
X87950000Y-118250000D02*
X85600000Y-120600000D01*
X132000000Y-118000000D02*
X131750000Y-118250000D01*
X122199000Y-105301000D02*
X87201000Y-105301000D01*
X128398000Y-136000000D02*
X98896999Y-136000000D01*
X98896999Y-136000000D02*
X98595999Y-135699000D01*
X124000000Y-103500000D02*
X122199000Y-105301000D01*
X97104001Y-135699000D02*
X96803001Y-136000000D01*
X129500000Y-135500000D02*
X128898000Y-135500000D01*
X128898000Y-135500000D02*
X128398000Y-136000000D01*
%TO.N,Net-(D1-A)*%
X110750000Y-108500000D02*
X109730000Y-109520000D01*
X120326000Y-108449000D02*
X138699000Y-108449000D01*
X148500000Y-118250000D02*
X138699000Y-108449000D01*
X119500000Y-109500000D02*
X119500000Y-109275000D01*
X109730000Y-109520000D02*
X109730000Y-116050000D01*
X119500000Y-109275000D02*
X120326000Y-108449000D01*
%TO.N,Net-(D3-A)*%
X117750000Y-125250000D02*
X117750000Y-125309000D01*
X109000000Y-132500000D02*
X109730000Y-131770000D01*
X117750000Y-125309000D02*
X117134000Y-125309000D01*
X109750000Y-126500000D02*
X109750000Y-126750000D01*
X117134000Y-126001000D02*
X117000000Y-126135000D01*
X109730000Y-126550000D02*
X109730000Y-126520000D01*
X117000000Y-126135000D02*
X117000000Y-126980000D01*
X117000000Y-126980000D02*
X115230000Y-128750000D01*
X109730000Y-126520000D02*
X109750000Y-126500000D01*
X117134000Y-125309000D02*
X117134000Y-126001000D01*
X109730000Y-131770000D02*
X109730000Y-126550000D01*
X109750000Y-126750000D02*
X111750000Y-128750000D01*
X118146446Y-124853554D02*
X117750000Y-125250000D01*
X141853554Y-124853554D02*
X118146446Y-124853554D01*
%TO.N,Net-(D4-A)*%
X129500000Y-142250000D02*
X120500000Y-142250000D01*
X109500000Y-149000000D02*
X109730000Y-148770000D01*
X119373140Y-143376860D02*
X119373140Y-143500000D01*
X120500000Y-142250000D02*
X119373140Y-143376860D01*
X109730000Y-148770000D02*
X109730000Y-143550000D01*
%TO.N,Net-(PS1-AC{slash}L)*%
X99000000Y-55000000D02*
X101800000Y-55000000D01*
X98949723Y-54949723D02*
X99000000Y-55000000D01*
%TO.N,Net-(J2-Pin_3)*%
X223670000Y-125330000D02*
X227250000Y-125330000D01*
X223500000Y-125500000D02*
X223670000Y-125330000D01*
%TO.N,Net-(J2-Pin_4)*%
X223630000Y-127870000D02*
X227250000Y-127870000D01*
X223500000Y-128000000D02*
X223630000Y-127870000D01*
%TO.N,Net-(U1-GPIO13)*%
X209418510Y-99331490D02*
X210250000Y-98500000D01*
X209418510Y-99366982D02*
X209418510Y-99331490D01*
%TD*%
%TA.AperFunction,NonConductor*%
G36*
X130443578Y-45019685D02*
G01*
X130489333Y-45072489D01*
X130500538Y-45123460D01*
X130616633Y-71767497D01*
X130597241Y-71834621D01*
X130544636Y-71880606D01*
X130475522Y-71890851D01*
X130411840Y-71862103D01*
X130404953Y-71855718D01*
X114337590Y-55788355D01*
X114337588Y-55788352D01*
X114218717Y-55669481D01*
X114218709Y-55669475D01*
X114103559Y-55602994D01*
X114103559Y-55602993D01*
X114103554Y-55602992D01*
X114095957Y-55598605D01*
X114081786Y-55590423D01*
X114043603Y-55580192D01*
X113929057Y-55549499D01*
X113770943Y-55549499D01*
X113763347Y-55549499D01*
X113763331Y-55549500D01*
X111729602Y-55549500D01*
X111662563Y-55529815D01*
X111619117Y-55481795D01*
X111612284Y-55468385D01*
X111491971Y-55302786D01*
X111347213Y-55158028D01*
X111181613Y-55037715D01*
X111181612Y-55037714D01*
X111181610Y-55037713D01*
X111124653Y-55008691D01*
X110999223Y-54944781D01*
X110804534Y-54881522D01*
X110629995Y-54853878D01*
X110602352Y-54849500D01*
X110397648Y-54849500D01*
X110373329Y-54853351D01*
X110195465Y-54881522D01*
X110000776Y-54944781D01*
X109818386Y-55037715D01*
X109652786Y-55158028D01*
X109508028Y-55302786D01*
X109387715Y-55468386D01*
X109294781Y-55650776D01*
X109231522Y-55845465D01*
X109199500Y-56047648D01*
X109199500Y-56252351D01*
X109231522Y-56454534D01*
X109294781Y-56649223D01*
X109346385Y-56750500D01*
X109384994Y-56826274D01*
X109387715Y-56831613D01*
X109508028Y-56997213D01*
X109652786Y-57141971D01*
X109798084Y-57247534D01*
X109818390Y-57262287D01*
X109934607Y-57321503D01*
X110000776Y-57355218D01*
X110000778Y-57355218D01*
X110000781Y-57355220D01*
X110105137Y-57389127D01*
X110195465Y-57418477D01*
X110296557Y-57434488D01*
X110397648Y-57450500D01*
X110397649Y-57450500D01*
X110602351Y-57450500D01*
X110602352Y-57450500D01*
X110804534Y-57418477D01*
X110999219Y-57355220D01*
X111181610Y-57262287D01*
X111274590Y-57194732D01*
X111347213Y-57141971D01*
X111347215Y-57141968D01*
X111347219Y-57141966D01*
X111491966Y-56997219D01*
X111491968Y-56997215D01*
X111491971Y-56997213D01*
X111612284Y-56831614D01*
X111612285Y-56831613D01*
X111612287Y-56831610D01*
X111619117Y-56818204D01*
X111667091Y-56767409D01*
X111729602Y-56750500D01*
X113549903Y-56750500D01*
X113616942Y-56770185D01*
X113637584Y-56786819D01*
X130589283Y-73738518D01*
X130622768Y-73799841D01*
X130625601Y-73825659D01*
X130773307Y-107723960D01*
X130753915Y-107791084D01*
X130701310Y-107837069D01*
X130649308Y-107848500D01*
X120246940Y-107848500D01*
X120206019Y-107859464D01*
X120206019Y-107859465D01*
X120168751Y-107869451D01*
X120094214Y-107889423D01*
X120094209Y-107889426D01*
X119957290Y-107968475D01*
X119957282Y-107968481D01*
X119845480Y-108080283D01*
X119845480Y-108080284D01*
X119845478Y-108080286D01*
X119747624Y-108178140D01*
X119710644Y-108215120D01*
X119649321Y-108248604D01*
X119607174Y-108248985D01*
X119607065Y-108250097D01*
X119601003Y-108249500D01*
X119398997Y-108249500D01*
X119398992Y-108249500D01*
X119200880Y-108288907D01*
X119200868Y-108288910D01*
X119120198Y-108322325D01*
X119050729Y-108329794D01*
X119005342Y-108310036D01*
X119005114Y-108310454D01*
X119000447Y-108307905D01*
X118998432Y-108307028D01*
X118997331Y-108306204D01*
X118997330Y-108306203D01*
X118997328Y-108306202D01*
X118862482Y-108255908D01*
X118862483Y-108255908D01*
X118802883Y-108249501D01*
X118802881Y-108249500D01*
X118802873Y-108249500D01*
X118802864Y-108249500D01*
X117657129Y-108249500D01*
X117657123Y-108249501D01*
X117597516Y-108255908D01*
X117462671Y-108306202D01*
X117462664Y-108306206D01*
X117347455Y-108392452D01*
X117347452Y-108392455D01*
X117261206Y-108507664D01*
X117261202Y-108507671D01*
X117210908Y-108642517D01*
X117204501Y-108702116D01*
X117204500Y-108702135D01*
X117204500Y-110297870D01*
X117204501Y-110297876D01*
X117210908Y-110357483D01*
X117261202Y-110492328D01*
X117261206Y-110492335D01*
X117347452Y-110607544D01*
X117347455Y-110607547D01*
X117462664Y-110693793D01*
X117462671Y-110693797D01*
X117597517Y-110744091D01*
X117597516Y-110744091D01*
X117604444Y-110744835D01*
X117657127Y-110750500D01*
X118802872Y-110750499D01*
X118862483Y-110744091D01*
X118997331Y-110693796D01*
X118998430Y-110692972D01*
X118999717Y-110692492D01*
X119005112Y-110689547D01*
X119005535Y-110690322D01*
X119063887Y-110668552D01*
X119120198Y-110677673D01*
X119200873Y-110711091D01*
X119366777Y-110744091D01*
X119398992Y-110750499D01*
X119398996Y-110750500D01*
X119398997Y-110750500D01*
X119601004Y-110750500D01*
X119601005Y-110750499D01*
X119799127Y-110711091D01*
X119985756Y-110633786D01*
X120066110Y-110580094D01*
X120132786Y-110559217D01*
X120200166Y-110577701D01*
X120203865Y-110580078D01*
X120284244Y-110633786D01*
X120470873Y-110711091D01*
X120636777Y-110744091D01*
X120668992Y-110750499D01*
X120668996Y-110750500D01*
X120668997Y-110750500D01*
X120871004Y-110750500D01*
X120871005Y-110750499D01*
X121069127Y-110711091D01*
X121255756Y-110633786D01*
X121423718Y-110521558D01*
X121566558Y-110378718D01*
X121678786Y-110210756D01*
X121756091Y-110024127D01*
X121795500Y-109826003D01*
X121795500Y-109173997D01*
X121795500Y-109173500D01*
X121815185Y-109106461D01*
X121867989Y-109060706D01*
X121919500Y-109049500D01*
X130655622Y-109049500D01*
X130722661Y-109069185D01*
X130768416Y-109121989D01*
X130779620Y-109172958D01*
X130815707Y-117454780D01*
X130816013Y-117524960D01*
X130796621Y-117592084D01*
X130744016Y-117638069D01*
X130692014Y-117649500D01*
X116674500Y-117649500D01*
X116607461Y-117629815D01*
X116561706Y-117577011D01*
X116550500Y-117525500D01*
X116550500Y-117421155D01*
X116550499Y-117421153D01*
X116526499Y-117300499D01*
X116519737Y-117266503D01*
X116496812Y-117211157D01*
X116459397Y-117120827D01*
X116459390Y-117120814D01*
X116371398Y-116989125D01*
X116350520Y-116922447D01*
X116350500Y-116920234D01*
X116350500Y-115579765D01*
X116370185Y-115512726D01*
X116371398Y-115510874D01*
X116459390Y-115379185D01*
X116459390Y-115379184D01*
X116459394Y-115379179D01*
X116519737Y-115233497D01*
X116550500Y-115078842D01*
X116550500Y-114921158D01*
X116550500Y-114921155D01*
X116550499Y-114921153D01*
X116519737Y-114766503D01*
X116476993Y-114663309D01*
X116459397Y-114620827D01*
X116459390Y-114620814D01*
X116371789Y-114489711D01*
X116371786Y-114489707D01*
X116260292Y-114378213D01*
X116260288Y-114378210D01*
X116129185Y-114290609D01*
X116129172Y-114290602D01*
X115983501Y-114230264D01*
X115983489Y-114230261D01*
X115828845Y-114199500D01*
X115828842Y-114199500D01*
X115671158Y-114199500D01*
X115671155Y-114199500D01*
X115516510Y-114230261D01*
X115516498Y-114230264D01*
X115370827Y-114290602D01*
X115370814Y-114290609D01*
X115239711Y-114378210D01*
X115239707Y-114378213D01*
X115128213Y-114489707D01*
X115128210Y-114489711D01*
X115040609Y-114620814D01*
X115040602Y-114620827D01*
X114980264Y-114766498D01*
X114980261Y-114766510D01*
X114949500Y-114921153D01*
X114949500Y-115078846D01*
X114980261Y-115233489D01*
X114980264Y-115233501D01*
X115040602Y-115379172D01*
X115040609Y-115379185D01*
X115128602Y-115510874D01*
X115149480Y-115577551D01*
X115149500Y-115579765D01*
X115149500Y-116920234D01*
X115129815Y-116987273D01*
X115128602Y-116989125D01*
X115040609Y-117120814D01*
X115040602Y-117120827D01*
X114980264Y-117266498D01*
X114980261Y-117266510D01*
X114949500Y-117421153D01*
X114949500Y-117525500D01*
X114929815Y-117592539D01*
X114877011Y-117638294D01*
X114825500Y-117649500D01*
X98432307Y-117649500D01*
X98365268Y-117629815D01*
X98319513Y-117577011D01*
X98309569Y-117507853D01*
X98338594Y-117444297D01*
X98384854Y-117410939D01*
X98536690Y-117348046D01*
X98536691Y-117348045D01*
X98536697Y-117348043D01*
X98763803Y-117216924D01*
X98971851Y-117057282D01*
X98971855Y-117057277D01*
X98971860Y-117057274D01*
X99157274Y-116871860D01*
X99157277Y-116871855D01*
X99157282Y-116871851D01*
X99316924Y-116663803D01*
X99448043Y-116436697D01*
X99548398Y-116194419D01*
X99608222Y-115971153D01*
X108929500Y-115971153D01*
X108929500Y-116128846D01*
X108960261Y-116283489D01*
X108960264Y-116283501D01*
X109020602Y-116429172D01*
X109020609Y-116429185D01*
X109108210Y-116560288D01*
X109108213Y-116560292D01*
X109219707Y-116671786D01*
X109219711Y-116671789D01*
X109350814Y-116759390D01*
X109350827Y-116759397D01*
X109496498Y-116819735D01*
X109496503Y-116819737D01*
X109651153Y-116850499D01*
X109651156Y-116850500D01*
X109651158Y-116850500D01*
X109808844Y-116850500D01*
X109808845Y-116850499D01*
X109963497Y-116819737D01*
X110109179Y-116759394D01*
X110240289Y-116671789D01*
X110351789Y-116560289D01*
X110439394Y-116429179D01*
X110499737Y-116283497D01*
X110530500Y-116128842D01*
X110530500Y-115971158D01*
X110530500Y-115971155D01*
X110530499Y-115971153D01*
X110499738Y-115816510D01*
X110499737Y-115816503D01*
X110443660Y-115681120D01*
X110439397Y-115670827D01*
X110439390Y-115670814D01*
X110351398Y-115539125D01*
X110330520Y-115472447D01*
X110330500Y-115470234D01*
X110330500Y-109820097D01*
X110350185Y-109753058D01*
X110366819Y-109732416D01*
X110500178Y-109599057D01*
X110725196Y-109374038D01*
X112399500Y-109374038D01*
X112399500Y-109625961D01*
X112438910Y-109874785D01*
X112516760Y-110114383D01*
X112631132Y-110338848D01*
X112779201Y-110542649D01*
X112779205Y-110542654D01*
X112957345Y-110720794D01*
X112957350Y-110720798D01*
X113096439Y-110821851D01*
X113161155Y-110868870D01*
X113304184Y-110941747D01*
X113385616Y-110983239D01*
X113385618Y-110983239D01*
X113385621Y-110983241D01*
X113625215Y-111061090D01*
X113874038Y-111100500D01*
X113874039Y-111100500D01*
X114125961Y-111100500D01*
X114125962Y-111100500D01*
X114374785Y-111061090D01*
X114614379Y-110983241D01*
X114838845Y-110868870D01*
X115042656Y-110720793D01*
X115220793Y-110542656D01*
X115368870Y-110338845D01*
X115483241Y-110114379D01*
X115561090Y-109874785D01*
X115600500Y-109625962D01*
X115600500Y-109374038D01*
X115561090Y-109125215D01*
X115483241Y-108885621D01*
X115483239Y-108885618D01*
X115483239Y-108885616D01*
X115405730Y-108733497D01*
X115368870Y-108661155D01*
X115257358Y-108507671D01*
X115220798Y-108457350D01*
X115220794Y-108457345D01*
X115042654Y-108279205D01*
X115042649Y-108279201D01*
X114838848Y-108131132D01*
X114838847Y-108131131D01*
X114838845Y-108131130D01*
X114735849Y-108078651D01*
X114614383Y-108016760D01*
X114374785Y-107938910D01*
X114314325Y-107929334D01*
X114125962Y-107899500D01*
X113874038Y-107899500D01*
X113807738Y-107910001D01*
X113625214Y-107938910D01*
X113385616Y-108016760D01*
X113161151Y-108131132D01*
X112957350Y-108279201D01*
X112957345Y-108279205D01*
X112779205Y-108457345D01*
X112779201Y-108457350D01*
X112631132Y-108661151D01*
X112516760Y-108885616D01*
X112438910Y-109125214D01*
X112399500Y-109374038D01*
X110725196Y-109374038D01*
X110764662Y-109334572D01*
X110779346Y-109326287D01*
X110789919Y-109315112D01*
X110817995Y-109304482D01*
X110822633Y-109301866D01*
X110828169Y-109300500D01*
X110828842Y-109300500D01*
X110983497Y-109269737D01*
X111129179Y-109209394D01*
X111260289Y-109121789D01*
X111371789Y-109010289D01*
X111459394Y-108879179D01*
X111519737Y-108733497D01*
X111550500Y-108578842D01*
X111550500Y-108421158D01*
X111550500Y-108421155D01*
X111550499Y-108421153D01*
X111543546Y-108386197D01*
X111519737Y-108266503D01*
X111515349Y-108255909D01*
X111459397Y-108120827D01*
X111459390Y-108120814D01*
X111371789Y-107989711D01*
X111371786Y-107989707D01*
X111260292Y-107878213D01*
X111260288Y-107878210D01*
X111129185Y-107790609D01*
X111129172Y-107790602D01*
X110983501Y-107730264D01*
X110983489Y-107730261D01*
X110828845Y-107699500D01*
X110828842Y-107699500D01*
X110671158Y-107699500D01*
X110671155Y-107699500D01*
X110516510Y-107730261D01*
X110516498Y-107730264D01*
X110370827Y-107790602D01*
X110370814Y-107790609D01*
X110239711Y-107878210D01*
X110239707Y-107878213D01*
X110128213Y-107989707D01*
X110128210Y-107989711D01*
X110040609Y-108120814D01*
X110040602Y-108120827D01*
X109980264Y-108266498D01*
X109980261Y-108266508D01*
X109949361Y-108421850D01*
X109916976Y-108483761D01*
X109915425Y-108485339D01*
X109249481Y-109151282D01*
X109249479Y-109151285D01*
X109203694Y-109230589D01*
X109203693Y-109230590D01*
X109170423Y-109288215D01*
X109129499Y-109440943D01*
X109129499Y-109440945D01*
X109129499Y-109609046D01*
X109129500Y-109609059D01*
X109129500Y-115470234D01*
X109109815Y-115537273D01*
X109108602Y-115539125D01*
X109020609Y-115670814D01*
X109020602Y-115670827D01*
X108960264Y-115816498D01*
X108960261Y-115816510D01*
X108929500Y-115971153D01*
X99608222Y-115971153D01*
X99616270Y-115941116D01*
X99650500Y-115681120D01*
X99650500Y-115418880D01*
X99616270Y-115158884D01*
X99548398Y-114905581D01*
X99548394Y-114905571D01*
X99448046Y-114663309D01*
X99448041Y-114663299D01*
X99316924Y-114436196D01*
X99158904Y-114230263D01*
X99157282Y-114228149D01*
X99157281Y-114228148D01*
X99157274Y-114228140D01*
X98971860Y-114042726D01*
X98971851Y-114042718D01*
X98763803Y-113883075D01*
X98536700Y-113751958D01*
X98536690Y-113751953D01*
X98294428Y-113651605D01*
X98294421Y-113651603D01*
X98294419Y-113651602D01*
X98041116Y-113583730D01*
X97983339Y-113576123D01*
X97781127Y-113549500D01*
X97781120Y-113549500D01*
X97518880Y-113549500D01*
X97518872Y-113549500D01*
X97287772Y-113579926D01*
X97258884Y-113583730D01*
X97005581Y-113651602D01*
X97005571Y-113651605D01*
X96763309Y-113751953D01*
X96763299Y-113751958D01*
X96536196Y-113883075D01*
X96328148Y-114042718D01*
X96142718Y-114228148D01*
X95983075Y-114436196D01*
X95851958Y-114663299D01*
X95851953Y-114663309D01*
X95751605Y-114905571D01*
X95751602Y-114905581D01*
X95683730Y-115158885D01*
X95649500Y-115418872D01*
X95649500Y-115681127D01*
X95667323Y-115816498D01*
X95683730Y-115941116D01*
X95734032Y-116128846D01*
X95751602Y-116194418D01*
X95751605Y-116194428D01*
X95851953Y-116436690D01*
X95851958Y-116436700D01*
X95983075Y-116663803D01*
X96142718Y-116871851D01*
X96142726Y-116871860D01*
X96328140Y-117057274D01*
X96328148Y-117057281D01*
X96536196Y-117216924D01*
X96763299Y-117348041D01*
X96763309Y-117348046D01*
X96915146Y-117410939D01*
X96969549Y-117454780D01*
X96991614Y-117521074D01*
X96974335Y-117588774D01*
X96923197Y-117636384D01*
X96867693Y-117649500D01*
X88036669Y-117649500D01*
X88036653Y-117649499D01*
X88029057Y-117649499D01*
X87870943Y-117649499D01*
X87763587Y-117678265D01*
X87718210Y-117690424D01*
X87718209Y-117690425D01*
X87668096Y-117719359D01*
X87668095Y-117719360D01*
X87624689Y-117744420D01*
X87581285Y-117769479D01*
X87581282Y-117769481D01*
X87469478Y-117881286D01*
X86397860Y-118952903D01*
X86336537Y-118986388D01*
X86266845Y-118981404D01*
X86262743Y-118979789D01*
X86163887Y-118938842D01*
X86163885Y-118938841D01*
X86163884Y-118938841D01*
X86098035Y-118921197D01*
X85942238Y-118879452D01*
X85904215Y-118874446D01*
X85714741Y-118849500D01*
X85714734Y-118849500D01*
X85485266Y-118849500D01*
X85485258Y-118849500D01*
X85268715Y-118878009D01*
X85257762Y-118879452D01*
X85230268Y-118886819D01*
X85036112Y-118938842D01*
X84824123Y-119026650D01*
X84824109Y-119026657D01*
X84625382Y-119141392D01*
X84443338Y-119281081D01*
X84281081Y-119443338D01*
X84141392Y-119625382D01*
X84026657Y-119824109D01*
X84026650Y-119824123D01*
X83938842Y-120036112D01*
X83879453Y-120257759D01*
X83879451Y-120257770D01*
X83849500Y-120485258D01*
X83849500Y-120714741D01*
X83874446Y-120904215D01*
X83879452Y-120942238D01*
X83879453Y-120942240D01*
X83938842Y-121163887D01*
X84026650Y-121375876D01*
X84026657Y-121375890D01*
X84141392Y-121574617D01*
X84281081Y-121756661D01*
X84281089Y-121756670D01*
X84443330Y-121918911D01*
X84443338Y-121918918D01*
X84625382Y-122058607D01*
X84625385Y-122058608D01*
X84625388Y-122058611D01*
X84824112Y-122173344D01*
X84824117Y-122173346D01*
X84824123Y-122173349D01*
X84915480Y-122211190D01*
X85036113Y-122261158D01*
X85257762Y-122320548D01*
X85485266Y-122350500D01*
X85485273Y-122350500D01*
X85714727Y-122350500D01*
X85714734Y-122350500D01*
X85942238Y-122320548D01*
X86163887Y-122261158D01*
X86375888Y-122173344D01*
X86574612Y-122058611D01*
X86756661Y-121918919D01*
X86756665Y-121918914D01*
X86756670Y-121918911D01*
X86918911Y-121756670D01*
X86918914Y-121756665D01*
X86918919Y-121756661D01*
X87058611Y-121574612D01*
X87173344Y-121375888D01*
X87261158Y-121163887D01*
X87320548Y-120942238D01*
X87350500Y-120714734D01*
X87350500Y-120485266D01*
X87320548Y-120257762D01*
X87261158Y-120036113D01*
X87220216Y-119937271D01*
X87212747Y-119867801D01*
X87244022Y-119805322D01*
X87247066Y-119802167D01*
X88162416Y-118886819D01*
X88223739Y-118853334D01*
X88250097Y-118850500D01*
X96421004Y-118850500D01*
X96488043Y-118870185D01*
X96533798Y-118922989D01*
X96543742Y-118992147D01*
X96514717Y-119055703D01*
X96508685Y-119062181D01*
X96342718Y-119228148D01*
X96183075Y-119436196D01*
X96051958Y-119663299D01*
X96051953Y-119663309D01*
X95951605Y-119905571D01*
X95951602Y-119905581D01*
X95916627Y-120036112D01*
X95883730Y-120158885D01*
X95849500Y-120418872D01*
X95849500Y-120681127D01*
X95853925Y-120714734D01*
X95883730Y-120941116D01*
X95943421Y-121163887D01*
X95951602Y-121194418D01*
X95951605Y-121194428D01*
X96051953Y-121436690D01*
X96051958Y-121436700D01*
X96183075Y-121663803D01*
X96342718Y-121871851D01*
X96342726Y-121871860D01*
X96528140Y-122057274D01*
X96528148Y-122057281D01*
X96736196Y-122216924D01*
X96963299Y-122348041D01*
X96963309Y-122348046D01*
X97205571Y-122448394D01*
X97205581Y-122448398D01*
X97458884Y-122516270D01*
X97718880Y-122550500D01*
X97718887Y-122550500D01*
X97981113Y-122550500D01*
X97981120Y-122550500D01*
X98241116Y-122516270D01*
X98494419Y-122448398D01*
X98671340Y-122375114D01*
X98736690Y-122348046D01*
X98736691Y-122348045D01*
X98736697Y-122348043D01*
X98963803Y-122216924D01*
X99171851Y-122057282D01*
X99171855Y-122057277D01*
X99171860Y-122057274D01*
X99357274Y-121871860D01*
X99357277Y-121871855D01*
X99357282Y-121871851D01*
X99516924Y-121663803D01*
X99648043Y-121436697D01*
X99748398Y-121194419D01*
X99816270Y-120941116D01*
X99850500Y-120681120D01*
X99850500Y-120418880D01*
X99816270Y-120158884D01*
X99748398Y-119905581D01*
X99714657Y-119824123D01*
X99648046Y-119663309D01*
X99648041Y-119663299D01*
X99516924Y-119436196D01*
X99357281Y-119228148D01*
X99357274Y-119228140D01*
X99191315Y-119062181D01*
X99157830Y-119000858D01*
X99162814Y-118931166D01*
X99204686Y-118875233D01*
X99270150Y-118850816D01*
X99278996Y-118850500D01*
X130698328Y-118850500D01*
X130765367Y-118870185D01*
X130811122Y-118922989D01*
X130822326Y-118973958D01*
X130826386Y-119905571D01*
X130844786Y-124128514D01*
X130825394Y-124195638D01*
X130772789Y-124241623D01*
X130720787Y-124253054D01*
X118225503Y-124253054D01*
X118067388Y-124253054D01*
X117914661Y-124293977D01*
X117914660Y-124293977D01*
X117914658Y-124293978D01*
X117914655Y-124293979D01*
X117864542Y-124322913D01*
X117864541Y-124322914D01*
X117821135Y-124347974D01*
X117777731Y-124373033D01*
X117777728Y-124373035D01*
X117665926Y-124484838D01*
X117665924Y-124484840D01*
X117567035Y-124583730D01*
X117478584Y-124672181D01*
X117417261Y-124705666D01*
X117390903Y-124708500D01*
X117054943Y-124708500D01*
X116902216Y-124749423D01*
X116902209Y-124749426D01*
X116765290Y-124828475D01*
X116765282Y-124828481D01*
X116653481Y-124940282D01*
X116653475Y-124940290D01*
X116574426Y-125077209D01*
X116574423Y-125077216D01*
X116533500Y-125229943D01*
X116533500Y-125708774D01*
X116529350Y-125724261D01*
X116530005Y-125738007D01*
X116516888Y-125770773D01*
X116482496Y-125830343D01*
X116482495Y-125830345D01*
X116440423Y-125903214D01*
X116426781Y-125954124D01*
X116399499Y-126055943D01*
X116399499Y-126055945D01*
X116399499Y-126224046D01*
X116399500Y-126224059D01*
X116399500Y-126679903D01*
X116379815Y-126746942D01*
X116363181Y-126767584D01*
X115646092Y-127484672D01*
X115584769Y-127518157D01*
X115515077Y-127513173D01*
X115459144Y-127471301D01*
X115434727Y-127405837D01*
X115447926Y-127340696D01*
X115448867Y-127338848D01*
X115448870Y-127338845D01*
X115563241Y-127114379D01*
X115641090Y-126874785D01*
X115680500Y-126625962D01*
X115680500Y-126374038D01*
X115641090Y-126125215D01*
X115563241Y-125885621D01*
X115563239Y-125885618D01*
X115563239Y-125885616D01*
X115500659Y-125762797D01*
X115448870Y-125661155D01*
X115390098Y-125580262D01*
X115300798Y-125457350D01*
X115300794Y-125457345D01*
X115122654Y-125279205D01*
X115122649Y-125279201D01*
X114918848Y-125131132D01*
X114918847Y-125131131D01*
X114918845Y-125131130D01*
X114813019Y-125077209D01*
X114694383Y-125016760D01*
X114454785Y-124938910D01*
X114415015Y-124932611D01*
X114205962Y-124899500D01*
X113954038Y-124899500D01*
X113887738Y-124910001D01*
X113705214Y-124938910D01*
X113465616Y-125016760D01*
X113241151Y-125131132D01*
X113037350Y-125279201D01*
X113037345Y-125279205D01*
X112859205Y-125457345D01*
X112859201Y-125457350D01*
X112711132Y-125661151D01*
X112596760Y-125885616D01*
X112518910Y-126125214D01*
X112483308Y-126349998D01*
X112479500Y-126374038D01*
X112479500Y-126625962D01*
X112501931Y-126767584D01*
X112518910Y-126874785D01*
X112596760Y-127114383D01*
X112711132Y-127338848D01*
X112859201Y-127542649D01*
X112859205Y-127542654D01*
X113037345Y-127720794D01*
X113037350Y-127720798D01*
X113215117Y-127849952D01*
X113241155Y-127868870D01*
X113384184Y-127941747D01*
X113465616Y-127983239D01*
X113465618Y-127983239D01*
X113465621Y-127983241D01*
X113705215Y-128061090D01*
X113954038Y-128100500D01*
X113954039Y-128100500D01*
X114205961Y-128100500D01*
X114205962Y-128100500D01*
X114454785Y-128061090D01*
X114463116Y-128058382D01*
X114532957Y-128056386D01*
X114592791Y-128092464D01*
X114623621Y-128155164D01*
X114615659Y-128224579D01*
X114604540Y-128245204D01*
X114520609Y-128370814D01*
X114520602Y-128370827D01*
X114460264Y-128516498D01*
X114460261Y-128516510D01*
X114429500Y-128671153D01*
X114429500Y-128828846D01*
X114460261Y-128983489D01*
X114460264Y-128983501D01*
X114520602Y-129129172D01*
X114520609Y-129129185D01*
X114608210Y-129260288D01*
X114608213Y-129260292D01*
X114719707Y-129371786D01*
X114719711Y-129371789D01*
X114850814Y-129459390D01*
X114850827Y-129459397D01*
X114996498Y-129519735D01*
X114996503Y-129519737D01*
X115151153Y-129550499D01*
X115151156Y-129550500D01*
X115151158Y-129550500D01*
X115308844Y-129550500D01*
X115308845Y-129550499D01*
X115463497Y-129519737D01*
X115609179Y-129459394D01*
X115740289Y-129371789D01*
X115851789Y-129260289D01*
X115939394Y-129129179D01*
X115999737Y-128983497D01*
X116019113Y-128886085D01*
X116030638Y-128828150D01*
X116063023Y-128766239D01*
X116064520Y-128764714D01*
X117196606Y-127632627D01*
X117257927Y-127599144D01*
X117319672Y-127603559D01*
X117319969Y-127602307D01*
X117327511Y-127604089D01*
X117327517Y-127604091D01*
X117387127Y-127610500D01*
X118532872Y-127610499D01*
X118592483Y-127604091D01*
X118727331Y-127553796D01*
X118728430Y-127552972D01*
X118729717Y-127552492D01*
X118735112Y-127549547D01*
X118735535Y-127550322D01*
X118793887Y-127528552D01*
X118850198Y-127537673D01*
X118930873Y-127571091D01*
X119087808Y-127602307D01*
X119128992Y-127610499D01*
X119128996Y-127610500D01*
X119128997Y-127610500D01*
X119331004Y-127610500D01*
X119331005Y-127610499D01*
X119529127Y-127571091D01*
X119715756Y-127493786D01*
X119796110Y-127440094D01*
X119862786Y-127419217D01*
X119930166Y-127437701D01*
X119933865Y-127440078D01*
X120014244Y-127493786D01*
X120014245Y-127493786D01*
X120014246Y-127493787D01*
X120054962Y-127510652D01*
X120200873Y-127571091D01*
X120357808Y-127602307D01*
X120398992Y-127610499D01*
X120398996Y-127610500D01*
X120398997Y-127610500D01*
X120601004Y-127610500D01*
X120601005Y-127610499D01*
X120799127Y-127571091D01*
X120985756Y-127493786D01*
X121153718Y-127381558D01*
X121296558Y-127238718D01*
X121408786Y-127070756D01*
X121486091Y-126884127D01*
X121525500Y-126686003D01*
X121525500Y-126033997D01*
X121486091Y-125835873D01*
X121408786Y-125649244D01*
X121408783Y-125649239D01*
X121408779Y-125649232D01*
X121407248Y-125646940D01*
X121406814Y-125645556D01*
X121405913Y-125643869D01*
X121406233Y-125643697D01*
X121386373Y-125580262D01*
X121404860Y-125512883D01*
X121456841Y-125466195D01*
X121510353Y-125454054D01*
X130727101Y-125454054D01*
X130794140Y-125473739D01*
X130839895Y-125526543D01*
X130851100Y-125577514D01*
X130880283Y-132274960D01*
X130860891Y-132342084D01*
X130808286Y-132388069D01*
X130756284Y-132399500D01*
X129079766Y-132399500D01*
X129012727Y-132379815D01*
X129010875Y-132378602D01*
X128879185Y-132290609D01*
X128879172Y-132290602D01*
X128733501Y-132230264D01*
X128733489Y-132230261D01*
X128578845Y-132199500D01*
X128578842Y-132199500D01*
X128421158Y-132199500D01*
X128421155Y-132199500D01*
X128266510Y-132230261D01*
X128266498Y-132230264D01*
X128120827Y-132290602D01*
X128120814Y-132290609D01*
X127989711Y-132378210D01*
X127989707Y-132378213D01*
X127878213Y-132489707D01*
X127878210Y-132489711D01*
X127790609Y-132620814D01*
X127790602Y-132620827D01*
X127730264Y-132766498D01*
X127730261Y-132766510D01*
X127699500Y-132921153D01*
X127699500Y-133078846D01*
X127730261Y-133233489D01*
X127730264Y-133233501D01*
X127790602Y-133379172D01*
X127790609Y-133379185D01*
X127878210Y-133510288D01*
X127878213Y-133510292D01*
X127989707Y-133621786D01*
X127989711Y-133621789D01*
X128120814Y-133709390D01*
X128120827Y-133709397D01*
X128234956Y-133756670D01*
X128266503Y-133769737D01*
X128421153Y-133800499D01*
X128421156Y-133800500D01*
X128421158Y-133800500D01*
X128578844Y-133800500D01*
X128578845Y-133800499D01*
X128733497Y-133769737D01*
X128879179Y-133709394D01*
X128933663Y-133672989D01*
X129010875Y-133621398D01*
X129077553Y-133600520D01*
X129079766Y-133600500D01*
X130762598Y-133600500D01*
X130829637Y-133620185D01*
X130875392Y-133672989D01*
X130886596Y-133723958D01*
X130921654Y-141769481D01*
X130999455Y-159625022D01*
X130980063Y-159692146D01*
X130927458Y-159738131D01*
X130875021Y-159749561D01*
X59873565Y-159500433D01*
X59806595Y-159480514D01*
X59761026Y-159427549D01*
X59750000Y-159376434D01*
X59750000Y-156376416D01*
X59769685Y-156309377D01*
X59822489Y-156263622D01*
X59891647Y-156253678D01*
X59906079Y-156256638D01*
X60138211Y-156318838D01*
X60318586Y-156342584D01*
X60378711Y-156350500D01*
X60378712Y-156350500D01*
X60621289Y-156350500D01*
X60669388Y-156344167D01*
X60861789Y-156318838D01*
X61096100Y-156256054D01*
X61320212Y-156163224D01*
X61530289Y-156041936D01*
X61722738Y-155894265D01*
X61894265Y-155722738D01*
X62041936Y-155530289D01*
X62163224Y-155320212D01*
X62256054Y-155096100D01*
X62318838Y-154861789D01*
X62350500Y-154621288D01*
X62350500Y-154378712D01*
X62318838Y-154138211D01*
X62256054Y-153903900D01*
X62163224Y-153679788D01*
X62041936Y-153469711D01*
X61894265Y-153277262D01*
X61894260Y-153277256D01*
X61722743Y-153105739D01*
X61722736Y-153105733D01*
X61530293Y-152958067D01*
X61530292Y-152958066D01*
X61530289Y-152958064D01*
X61320212Y-152836776D01*
X61320205Y-152836773D01*
X61096104Y-152743947D01*
X60861785Y-152681161D01*
X60621289Y-152649500D01*
X60621288Y-152649500D01*
X60378712Y-152649500D01*
X60378711Y-152649500D01*
X60138212Y-152681161D01*
X59906093Y-152743358D01*
X59836244Y-152741695D01*
X59778381Y-152702533D01*
X59750877Y-152638304D01*
X59750000Y-152623583D01*
X59750000Y-149435258D01*
X83849500Y-149435258D01*
X83849500Y-149664741D01*
X83863324Y-149769737D01*
X83879452Y-149892238D01*
X83879453Y-149892240D01*
X83938842Y-150113887D01*
X84026650Y-150325876D01*
X84026657Y-150325890D01*
X84141392Y-150524617D01*
X84281081Y-150706661D01*
X84281089Y-150706670D01*
X84443330Y-150868911D01*
X84443338Y-150868918D01*
X84625382Y-151008607D01*
X84625385Y-151008608D01*
X84625388Y-151008611D01*
X84824112Y-151123344D01*
X84824117Y-151123346D01*
X84824123Y-151123349D01*
X84915480Y-151161190D01*
X85036113Y-151211158D01*
X85257762Y-151270548D01*
X85485266Y-151300500D01*
X85485273Y-151300500D01*
X85714727Y-151300500D01*
X85714734Y-151300500D01*
X85942238Y-151270548D01*
X86163887Y-151211158D01*
X86375888Y-151123344D01*
X86574612Y-151008611D01*
X86756661Y-150868919D01*
X86756665Y-150868914D01*
X86756670Y-150868911D01*
X86918911Y-150706670D01*
X86918914Y-150706665D01*
X86918919Y-150706661D01*
X87058611Y-150524612D01*
X87173344Y-150325888D01*
X87261158Y-150113887D01*
X87320548Y-149892238D01*
X87350500Y-149664734D01*
X87350500Y-149435266D01*
X87348342Y-149418872D01*
X95799500Y-149418872D01*
X95799500Y-149681127D01*
X95811167Y-149769738D01*
X95833730Y-149941116D01*
X95880024Y-150113887D01*
X95901602Y-150194418D01*
X95901605Y-150194428D01*
X96001953Y-150436690D01*
X96001958Y-150436700D01*
X96133075Y-150663803D01*
X96292718Y-150871851D01*
X96292726Y-150871860D01*
X96478140Y-151057274D01*
X96478148Y-151057281D01*
X96686196Y-151216924D01*
X96913299Y-151348041D01*
X96913309Y-151348046D01*
X97155571Y-151448394D01*
X97155581Y-151448398D01*
X97408884Y-151516270D01*
X97668880Y-151550500D01*
X97668887Y-151550500D01*
X97931113Y-151550500D01*
X97931120Y-151550500D01*
X98191116Y-151516270D01*
X98444419Y-151448398D01*
X98686697Y-151348043D01*
X98913803Y-151216924D01*
X99121851Y-151057282D01*
X99121855Y-151057277D01*
X99121860Y-151057274D01*
X99307274Y-150871860D01*
X99307277Y-150871855D01*
X99307282Y-150871851D01*
X99466924Y-150663803D01*
X99598043Y-150436697D01*
X99698398Y-150194419D01*
X99766270Y-149941116D01*
X99800500Y-149681120D01*
X99800500Y-149418880D01*
X99766270Y-149158884D01*
X99702570Y-148921153D01*
X108699500Y-148921153D01*
X108699500Y-149078846D01*
X108730261Y-149233489D01*
X108730264Y-149233501D01*
X108790602Y-149379172D01*
X108790609Y-149379185D01*
X108878210Y-149510288D01*
X108878213Y-149510292D01*
X108989707Y-149621786D01*
X108989711Y-149621789D01*
X109120814Y-149709390D01*
X109120827Y-149709397D01*
X109266498Y-149769735D01*
X109266503Y-149769737D01*
X109421153Y-149800499D01*
X109421156Y-149800500D01*
X109421158Y-149800500D01*
X109578844Y-149800500D01*
X109578845Y-149800499D01*
X109733497Y-149769737D01*
X109879179Y-149709394D01*
X110010289Y-149621789D01*
X110121789Y-149510289D01*
X110209394Y-149379179D01*
X110269737Y-149233497D01*
X110300500Y-149078842D01*
X110300500Y-148977343D01*
X110304725Y-148945250D01*
X110330500Y-148849057D01*
X110330500Y-148690943D01*
X110330500Y-144129765D01*
X110350185Y-144062726D01*
X110351398Y-144060874D01*
X110439390Y-143929185D01*
X110439390Y-143929184D01*
X110439394Y-143929179D01*
X110499737Y-143783497D01*
X110530500Y-143628842D01*
X110530500Y-143471158D01*
X110530500Y-143471155D01*
X110530499Y-143471153D01*
X110515025Y-143393357D01*
X110511182Y-143374038D01*
X112229500Y-143374038D01*
X112229500Y-143625962D01*
X112229957Y-143628846D01*
X112268910Y-143874785D01*
X112346760Y-144114383D01*
X112461132Y-144338848D01*
X112609201Y-144542649D01*
X112609205Y-144542654D01*
X112787345Y-144720794D01*
X112787350Y-144720798D01*
X112926439Y-144821851D01*
X112991155Y-144868870D01*
X113134184Y-144941747D01*
X113215616Y-144983239D01*
X113215618Y-144983239D01*
X113215621Y-144983241D01*
X113455215Y-145061090D01*
X113704038Y-145100500D01*
X113704039Y-145100500D01*
X113955961Y-145100500D01*
X113955962Y-145100500D01*
X114204785Y-145061090D01*
X114444379Y-144983241D01*
X114668845Y-144868870D01*
X114872656Y-144720793D01*
X115050793Y-144542656D01*
X115198870Y-144338845D01*
X115313241Y-144114379D01*
X115391090Y-143874785D01*
X115430500Y-143625962D01*
X115430500Y-143374038D01*
X115391090Y-143125215D01*
X115313241Y-142885621D01*
X115313239Y-142885618D01*
X115313239Y-142885616D01*
X115246738Y-142755101D01*
X115239173Y-142740255D01*
X115219750Y-142702135D01*
X117077640Y-142702135D01*
X117077640Y-144297870D01*
X117077641Y-144297876D01*
X117084048Y-144357483D01*
X117134342Y-144492328D01*
X117134346Y-144492335D01*
X117220592Y-144607544D01*
X117220595Y-144607547D01*
X117335804Y-144693793D01*
X117335811Y-144693797D01*
X117470657Y-144744091D01*
X117470656Y-144744091D01*
X117477584Y-144744835D01*
X117530267Y-144750500D01*
X118676012Y-144750499D01*
X118735623Y-144744091D01*
X118870471Y-144693796D01*
X118871570Y-144692972D01*
X118872857Y-144692492D01*
X118878252Y-144689547D01*
X118878675Y-144690322D01*
X118937027Y-144668552D01*
X118993338Y-144677673D01*
X119074013Y-144711091D01*
X119239917Y-144744091D01*
X119272132Y-144750499D01*
X119272136Y-144750500D01*
X119272137Y-144750500D01*
X119474144Y-144750500D01*
X119474145Y-144750499D01*
X119672267Y-144711091D01*
X119858896Y-144633786D01*
X119939250Y-144580094D01*
X120005926Y-144559217D01*
X120073306Y-144577701D01*
X120077005Y-144580078D01*
X120157384Y-144633786D01*
X120344013Y-144711091D01*
X120509917Y-144744091D01*
X120542132Y-144750499D01*
X120542136Y-144750500D01*
X120542137Y-144750500D01*
X120744144Y-144750500D01*
X120744145Y-144750499D01*
X120942267Y-144711091D01*
X121128896Y-144633786D01*
X121296858Y-144521558D01*
X121439698Y-144378718D01*
X121551926Y-144210756D01*
X121629231Y-144024127D01*
X121668640Y-143826003D01*
X121668640Y-143173997D01*
X121633770Y-142998691D01*
X121639997Y-142929100D01*
X121682860Y-142873922D01*
X121748750Y-142850678D01*
X121755387Y-142850500D01*
X128920234Y-142850500D01*
X128987273Y-142870185D01*
X128989125Y-142871398D01*
X129120814Y-142959390D01*
X129120827Y-142959397D01*
X129215693Y-142998691D01*
X129266503Y-143019737D01*
X129421153Y-143050499D01*
X129421156Y-143050500D01*
X129421158Y-143050500D01*
X129578844Y-143050500D01*
X129578845Y-143050499D01*
X129733497Y-143019737D01*
X129879179Y-142959394D01*
X130010289Y-142871789D01*
X130121789Y-142760289D01*
X130209394Y-142629179D01*
X130269737Y-142483497D01*
X130300500Y-142328842D01*
X130300500Y-142171158D01*
X130300500Y-142171155D01*
X130300499Y-142171153D01*
X130269737Y-142016503D01*
X130259885Y-141992718D01*
X130209397Y-141870827D01*
X130209390Y-141870814D01*
X130121789Y-141739711D01*
X130121786Y-141739707D01*
X130010292Y-141628213D01*
X130010288Y-141628210D01*
X129879185Y-141540609D01*
X129879172Y-141540602D01*
X129733501Y-141480264D01*
X129733489Y-141480261D01*
X129578845Y-141449500D01*
X129578842Y-141449500D01*
X129421158Y-141449500D01*
X129421155Y-141449500D01*
X129266510Y-141480261D01*
X129266498Y-141480264D01*
X129120827Y-141540602D01*
X129120814Y-141540609D01*
X128989125Y-141628602D01*
X128922447Y-141649480D01*
X128920234Y-141649500D01*
X120586670Y-141649500D01*
X120586654Y-141649499D01*
X120579058Y-141649499D01*
X120420943Y-141649499D01*
X120344579Y-141669961D01*
X120268214Y-141690423D01*
X120268209Y-141690426D01*
X120131290Y-141769475D01*
X120131282Y-141769481D01*
X119668744Y-142232019D01*
X119607421Y-142265504D01*
X119556872Y-142265955D01*
X119474147Y-142249500D01*
X119474143Y-142249500D01*
X119272137Y-142249500D01*
X119272132Y-142249500D01*
X119074020Y-142288907D01*
X119074008Y-142288910D01*
X118993338Y-142322325D01*
X118923869Y-142329794D01*
X118878482Y-142310036D01*
X118878254Y-142310454D01*
X118873587Y-142307905D01*
X118871572Y-142307028D01*
X118870471Y-142306204D01*
X118870470Y-142306203D01*
X118870468Y-142306202D01*
X118735622Y-142255908D01*
X118735623Y-142255908D01*
X118676023Y-142249501D01*
X118676021Y-142249500D01*
X118676013Y-142249500D01*
X118676004Y-142249500D01*
X117530269Y-142249500D01*
X117530263Y-142249501D01*
X117470656Y-142255908D01*
X117335811Y-142306202D01*
X117335804Y-142306206D01*
X117220595Y-142392452D01*
X117220592Y-142392455D01*
X117134346Y-142507664D01*
X117134342Y-142507671D01*
X117084048Y-142642517D01*
X117077641Y-142702116D01*
X117077640Y-142702135D01*
X115219750Y-142702135D01*
X115198870Y-142661155D01*
X115179952Y-142635117D01*
X115050798Y-142457350D01*
X115050794Y-142457345D01*
X114872654Y-142279205D01*
X114872649Y-142279201D01*
X114668848Y-142131132D01*
X114668847Y-142131131D01*
X114668845Y-142131130D01*
X114598747Y-142095413D01*
X114444383Y-142016760D01*
X114204785Y-141938910D01*
X113955962Y-141899500D01*
X113704038Y-141899500D01*
X113637738Y-141910001D01*
X113455214Y-141938910D01*
X113215616Y-142016760D01*
X112991151Y-142131132D01*
X112787350Y-142279201D01*
X112787345Y-142279205D01*
X112609205Y-142457345D01*
X112609201Y-142457350D01*
X112461132Y-142661151D01*
X112346760Y-142885616D01*
X112268910Y-143125214D01*
X112238613Y-143316503D01*
X112229500Y-143374038D01*
X110511182Y-143374038D01*
X110499738Y-143316508D01*
X110499737Y-143316507D01*
X110499737Y-143316503D01*
X110440710Y-143173997D01*
X110439397Y-143170827D01*
X110439390Y-143170814D01*
X110351789Y-143039711D01*
X110351786Y-143039707D01*
X110240292Y-142928213D01*
X110240288Y-142928210D01*
X110109185Y-142840609D01*
X110109172Y-142840602D01*
X109963501Y-142780264D01*
X109963489Y-142780261D01*
X109808845Y-142749500D01*
X109808842Y-142749500D01*
X109651158Y-142749500D01*
X109651155Y-142749500D01*
X109496510Y-142780261D01*
X109496498Y-142780264D01*
X109350827Y-142840602D01*
X109350814Y-142840609D01*
X109219711Y-142928210D01*
X109219707Y-142928213D01*
X109108213Y-143039707D01*
X109108210Y-143039711D01*
X109020609Y-143170814D01*
X109020602Y-143170827D01*
X108960264Y-143316498D01*
X108960261Y-143316510D01*
X108929500Y-143471153D01*
X108929500Y-143628846D01*
X108960261Y-143783489D01*
X108960264Y-143783501D01*
X109020602Y-143929172D01*
X109020609Y-143929185D01*
X109108602Y-144060874D01*
X109129480Y-144127551D01*
X109129500Y-144129765D01*
X109129500Y-148218527D01*
X109109815Y-148285566D01*
X109074391Y-148321629D01*
X108989711Y-148378210D01*
X108989707Y-148378213D01*
X108878213Y-148489707D01*
X108878210Y-148489711D01*
X108790609Y-148620814D01*
X108790602Y-148620827D01*
X108730264Y-148766498D01*
X108730261Y-148766510D01*
X108699500Y-148921153D01*
X99702570Y-148921153D01*
X99698398Y-148905581D01*
X99674984Y-148849055D01*
X99598046Y-148663309D01*
X99598041Y-148663299D01*
X99466924Y-148436196D01*
X99307281Y-148228148D01*
X99307274Y-148228140D01*
X99121860Y-148042726D01*
X99121851Y-148042718D01*
X98913803Y-147883075D01*
X98686700Y-147751958D01*
X98686690Y-147751953D01*
X98444428Y-147651605D01*
X98444421Y-147651603D01*
X98444419Y-147651602D01*
X98191116Y-147583730D01*
X98133339Y-147576123D01*
X97931127Y-147549500D01*
X97931120Y-147549500D01*
X97668880Y-147549500D01*
X97668872Y-147549500D01*
X97437772Y-147579926D01*
X97408884Y-147583730D01*
X97155581Y-147651602D01*
X97155571Y-147651605D01*
X96913309Y-147751953D01*
X96913299Y-147751958D01*
X96686196Y-147883075D01*
X96478148Y-148042718D01*
X96292718Y-148228148D01*
X96133075Y-148436196D01*
X96001958Y-148663299D01*
X96001953Y-148663309D01*
X95901605Y-148905571D01*
X95901602Y-148905581D01*
X95833730Y-149158885D01*
X95799500Y-149418872D01*
X87348342Y-149418872D01*
X87320548Y-149207762D01*
X87261158Y-148986113D01*
X87173344Y-148774112D01*
X87058611Y-148575388D01*
X87058608Y-148575385D01*
X87058607Y-148575382D01*
X86918918Y-148393338D01*
X86918911Y-148393330D01*
X86756670Y-148231089D01*
X86756661Y-148231081D01*
X86574617Y-148091392D01*
X86375890Y-147976657D01*
X86375876Y-147976650D01*
X86163887Y-147888842D01*
X86142364Y-147883075D01*
X85942238Y-147829452D01*
X85904215Y-147824446D01*
X85714741Y-147799500D01*
X85714734Y-147799500D01*
X85485266Y-147799500D01*
X85485258Y-147799500D01*
X85268715Y-147828009D01*
X85257762Y-147829452D01*
X85167244Y-147853706D01*
X85036112Y-147888842D01*
X84824123Y-147976650D01*
X84824109Y-147976657D01*
X84625382Y-148091392D01*
X84443338Y-148231081D01*
X84281081Y-148393338D01*
X84141392Y-148575382D01*
X84026657Y-148774109D01*
X84026650Y-148774123D01*
X83938842Y-148986112D01*
X83879453Y-149207759D01*
X83879451Y-149207770D01*
X83849500Y-149435258D01*
X59750000Y-149435258D01*
X59750000Y-146128549D01*
X73657000Y-146128549D01*
X73657000Y-146351450D01*
X73657001Y-146351466D01*
X73686094Y-146572452D01*
X73686095Y-146572457D01*
X73686096Y-146572463D01*
X73686097Y-146572465D01*
X73743790Y-146787780D01*
X73743793Y-146787790D01*
X73829093Y-146993722D01*
X73829095Y-146993726D01*
X73940552Y-147186774D01*
X73940557Y-147186780D01*
X73940558Y-147186782D01*
X74076251Y-147363622D01*
X74076257Y-147363629D01*
X74233870Y-147521242D01*
X74233876Y-147521247D01*
X74410726Y-147656948D01*
X74603774Y-147768405D01*
X74809719Y-147853710D01*
X75025037Y-147911404D01*
X75246043Y-147940500D01*
X75246050Y-147940500D01*
X75468950Y-147940500D01*
X75468957Y-147940500D01*
X75689963Y-147911404D01*
X75905281Y-147853710D01*
X76111226Y-147768405D01*
X76304274Y-147656948D01*
X76481124Y-147521247D01*
X76638747Y-147363624D01*
X76774448Y-147186774D01*
X76885905Y-146993726D01*
X76971210Y-146787781D01*
X77028904Y-146572463D01*
X77058000Y-146351457D01*
X77058000Y-146128543D01*
X77028904Y-145907537D01*
X76971210Y-145692219D01*
X76885905Y-145486274D01*
X76774448Y-145293226D01*
X76638747Y-145116376D01*
X76638742Y-145116370D01*
X76481129Y-144958757D01*
X76481122Y-144958751D01*
X76304282Y-144823058D01*
X76304280Y-144823057D01*
X76304274Y-144823052D01*
X76111226Y-144711595D01*
X76111222Y-144711593D01*
X75905290Y-144626293D01*
X75905283Y-144626291D01*
X75905281Y-144626290D01*
X75689963Y-144568596D01*
X75689957Y-144568595D01*
X75689952Y-144568594D01*
X75468966Y-144539501D01*
X75468963Y-144539500D01*
X75468957Y-144539500D01*
X75246043Y-144539500D01*
X75246037Y-144539500D01*
X75246033Y-144539501D01*
X75025047Y-144568594D01*
X75025040Y-144568595D01*
X75025037Y-144568596D01*
X74809719Y-144626290D01*
X74809709Y-144626293D01*
X74603777Y-144711593D01*
X74603773Y-144711595D01*
X74410726Y-144823052D01*
X74410717Y-144823058D01*
X74233877Y-144958751D01*
X74233870Y-144958757D01*
X74076257Y-145116370D01*
X74076251Y-145116377D01*
X73940558Y-145293217D01*
X73940552Y-145293226D01*
X73829095Y-145486273D01*
X73829093Y-145486277D01*
X73743793Y-145692209D01*
X73743790Y-145692219D01*
X73686097Y-145907534D01*
X73686094Y-145907547D01*
X73657001Y-146128533D01*
X73657000Y-146128549D01*
X59750000Y-146128549D01*
X59750000Y-143368872D01*
X81649500Y-143368872D01*
X81649500Y-143631127D01*
X81669560Y-143783489D01*
X81683730Y-143891116D01*
X81751602Y-144144418D01*
X81751605Y-144144428D01*
X81851953Y-144386690D01*
X81851958Y-144386700D01*
X81983075Y-144613803D01*
X82142718Y-144821851D01*
X82142726Y-144821860D01*
X82328140Y-145007274D01*
X82328148Y-145007281D01*
X82536196Y-145166924D01*
X82763299Y-145298041D01*
X82763309Y-145298046D01*
X83005571Y-145398394D01*
X83005581Y-145398398D01*
X83258884Y-145466270D01*
X83518880Y-145500500D01*
X83518887Y-145500500D01*
X83781113Y-145500500D01*
X83781120Y-145500500D01*
X84041116Y-145466270D01*
X84294419Y-145398398D01*
X84536697Y-145298043D01*
X84763803Y-145166924D01*
X84971851Y-145007282D01*
X84971855Y-145007277D01*
X84971860Y-145007274D01*
X85157274Y-144821860D01*
X85157277Y-144821855D01*
X85157282Y-144821851D01*
X85316924Y-144613803D01*
X85448043Y-144386697D01*
X85548398Y-144144419D01*
X85616270Y-143891116D01*
X85650500Y-143631120D01*
X85650500Y-143368880D01*
X85616270Y-143108884D01*
X85548398Y-142855581D01*
X85546367Y-142850678D01*
X85460877Y-142644286D01*
X85448046Y-142613309D01*
X85448041Y-142613299D01*
X85440352Y-142599982D01*
X102069500Y-142599982D01*
X102069500Y-144400017D01*
X102080000Y-144502796D01*
X102135185Y-144669332D01*
X102135187Y-144669337D01*
X102147653Y-144689547D01*
X102227288Y-144818656D01*
X102351344Y-144942712D01*
X102500665Y-145034814D01*
X102667202Y-145089999D01*
X102769990Y-145100500D01*
X102769995Y-145100500D01*
X104570005Y-145100500D01*
X104570010Y-145100500D01*
X104672798Y-145089999D01*
X104839335Y-145034814D01*
X104988656Y-144942712D01*
X105112712Y-144818656D01*
X105204814Y-144669335D01*
X105259999Y-144502798D01*
X105270500Y-144400010D01*
X105270500Y-142599990D01*
X105259999Y-142497202D01*
X105204814Y-142330665D01*
X105112712Y-142181344D01*
X104988656Y-142057288D01*
X104883984Y-141992726D01*
X104839337Y-141965187D01*
X104839332Y-141965185D01*
X104837863Y-141964698D01*
X104672798Y-141910001D01*
X104672796Y-141910000D01*
X104570017Y-141899500D01*
X104570010Y-141899500D01*
X102769990Y-141899500D01*
X102769982Y-141899500D01*
X102667203Y-141910000D01*
X102667202Y-141910001D01*
X102584669Y-141937349D01*
X102500667Y-141965185D01*
X102500662Y-141965187D01*
X102351342Y-142057289D01*
X102227289Y-142181342D01*
X102135187Y-142330662D01*
X102135186Y-142330665D01*
X102080001Y-142497202D01*
X102080001Y-142497203D01*
X102080000Y-142497203D01*
X102069500Y-142599982D01*
X85440352Y-142599982D01*
X85316924Y-142386196D01*
X85194424Y-142226554D01*
X85157282Y-142178149D01*
X85157281Y-142178148D01*
X85157274Y-142178140D01*
X84971860Y-141992726D01*
X84971851Y-141992718D01*
X84763803Y-141833075D01*
X84536700Y-141701958D01*
X84536690Y-141701953D01*
X84294428Y-141601605D01*
X84294421Y-141601603D01*
X84294419Y-141601602D01*
X84041116Y-141533730D01*
X83983339Y-141526123D01*
X83781127Y-141499500D01*
X83781120Y-141499500D01*
X83518880Y-141499500D01*
X83518872Y-141499500D01*
X83287772Y-141529926D01*
X83258884Y-141533730D01*
X83005581Y-141601602D01*
X83005571Y-141601605D01*
X82763309Y-141701953D01*
X82763299Y-141701958D01*
X82536196Y-141833075D01*
X82328148Y-141992718D01*
X82142718Y-142178148D01*
X81983075Y-142386196D01*
X81851958Y-142613299D01*
X81851953Y-142613309D01*
X81751605Y-142855571D01*
X81751602Y-142855581D01*
X81707617Y-143019738D01*
X81683730Y-143108885D01*
X81649500Y-143368872D01*
X59750000Y-143368872D01*
X59750000Y-140159984D01*
X73657000Y-140159984D01*
X73657000Y-142160015D01*
X73667500Y-142262795D01*
X73667501Y-142262797D01*
X73683293Y-142310454D01*
X73722686Y-142429335D01*
X73722687Y-142429337D01*
X73814786Y-142578651D01*
X73814789Y-142578655D01*
X73938844Y-142702710D01*
X73938848Y-142702713D01*
X74088162Y-142794812D01*
X74088164Y-142794813D01*
X74088166Y-142794814D01*
X74254703Y-142849999D01*
X74357492Y-142860500D01*
X74357497Y-142860500D01*
X76357503Y-142860500D01*
X76357508Y-142860500D01*
X76460297Y-142849999D01*
X76626834Y-142794814D01*
X76776155Y-142702711D01*
X76900211Y-142578655D01*
X76992314Y-142429334D01*
X77047499Y-142262797D01*
X77058000Y-142160008D01*
X77058000Y-140159992D01*
X77047499Y-140057203D01*
X76992314Y-139890666D01*
X76900211Y-139741345D01*
X76776155Y-139617289D01*
X76776151Y-139617286D01*
X76626837Y-139525187D01*
X76626835Y-139525186D01*
X76543565Y-139497593D01*
X76460297Y-139470001D01*
X76460295Y-139470000D01*
X76357515Y-139459500D01*
X76357508Y-139459500D01*
X74357492Y-139459500D01*
X74357484Y-139459500D01*
X74254704Y-139470000D01*
X74254703Y-139470001D01*
X74088164Y-139525186D01*
X74088162Y-139525187D01*
X73938848Y-139617286D01*
X73938844Y-139617289D01*
X73814789Y-139741344D01*
X73814786Y-139741348D01*
X73722687Y-139890662D01*
X73722686Y-139890664D01*
X73667501Y-140057203D01*
X73667500Y-140057204D01*
X73657000Y-140159984D01*
X59750000Y-140159984D01*
X59750000Y-137435258D01*
X83849500Y-137435258D01*
X83849500Y-137664741D01*
X83874446Y-137854215D01*
X83879452Y-137892238D01*
X83879453Y-137892240D01*
X83938842Y-138113887D01*
X84026650Y-138325876D01*
X84026657Y-138325890D01*
X84141392Y-138524617D01*
X84281081Y-138706661D01*
X84281089Y-138706670D01*
X84443330Y-138868911D01*
X84443338Y-138868918D01*
X84625382Y-139008607D01*
X84625385Y-139008608D01*
X84625388Y-139008611D01*
X84824112Y-139123344D01*
X84824117Y-139123346D01*
X84824123Y-139123349D01*
X84915480Y-139161190D01*
X85036113Y-139211158D01*
X85257762Y-139270548D01*
X85485266Y-139300500D01*
X85485273Y-139300500D01*
X85714727Y-139300500D01*
X85714734Y-139300500D01*
X85942238Y-139270548D01*
X86163887Y-139211158D01*
X86375888Y-139123344D01*
X86574612Y-139008611D01*
X86756661Y-138868919D01*
X86756665Y-138868914D01*
X86756670Y-138868911D01*
X86918911Y-138706670D01*
X86918914Y-138706665D01*
X86918919Y-138706661D01*
X87058611Y-138524612D01*
X87173344Y-138325888D01*
X87261158Y-138113887D01*
X87320548Y-137892238D01*
X87350500Y-137664734D01*
X87350500Y-137435266D01*
X87320548Y-137207762D01*
X87261158Y-136986113D01*
X87220215Y-136887271D01*
X87218078Y-136867394D01*
X87211093Y-136848665D01*
X87214420Y-136833368D01*
X87212747Y-136817803D01*
X87221695Y-136799925D01*
X87225945Y-136780392D01*
X87242631Y-136758101D01*
X87244022Y-136755323D01*
X87247060Y-136752173D01*
X87362417Y-136636817D01*
X87423739Y-136603334D01*
X87450097Y-136600500D01*
X95871681Y-136600500D01*
X95938720Y-136620185D01*
X95984475Y-136672989D01*
X95994419Y-136742147D01*
X95986242Y-136771953D01*
X95951605Y-136855571D01*
X95951602Y-136855581D01*
X95916627Y-136986112D01*
X95883730Y-137108885D01*
X95849500Y-137368872D01*
X95849500Y-137631127D01*
X95853925Y-137664734D01*
X95883730Y-137891116D01*
X95943421Y-138113887D01*
X95951602Y-138144418D01*
X95951605Y-138144428D01*
X96051953Y-138386690D01*
X96051958Y-138386700D01*
X96183075Y-138613803D01*
X96342718Y-138821851D01*
X96342726Y-138821860D01*
X96528140Y-139007274D01*
X96528148Y-139007281D01*
X96736196Y-139166924D01*
X96963299Y-139298041D01*
X96963309Y-139298046D01*
X97205571Y-139398394D01*
X97205581Y-139398398D01*
X97458884Y-139466270D01*
X97718880Y-139500500D01*
X97718887Y-139500500D01*
X97981113Y-139500500D01*
X97981120Y-139500500D01*
X98241116Y-139466270D01*
X98494419Y-139398398D01*
X98671340Y-139325114D01*
X98736690Y-139298046D01*
X98736691Y-139298045D01*
X98736697Y-139298043D01*
X98963803Y-139166924D01*
X99171851Y-139007282D01*
X99171855Y-139007277D01*
X99171860Y-139007274D01*
X99357274Y-138821860D01*
X99357277Y-138821855D01*
X99357282Y-138821851D01*
X99516924Y-138613803D01*
X99648043Y-138386697D01*
X99748398Y-138144419D01*
X99816270Y-137891116D01*
X99850500Y-137631120D01*
X99850500Y-137368880D01*
X99816270Y-137108884D01*
X99748398Y-136855581D01*
X99713757Y-136771952D01*
X99706289Y-136702484D01*
X99737564Y-136640005D01*
X99797652Y-136604352D01*
X99828319Y-136600500D01*
X128311331Y-136600500D01*
X128311347Y-136600501D01*
X128318943Y-136600501D01*
X128477054Y-136600501D01*
X128477057Y-136600501D01*
X128629785Y-136559577D01*
X128705255Y-136516004D01*
X128766716Y-136480520D01*
X128878520Y-136368716D01*
X128878521Y-136368714D01*
X129003560Y-136243674D01*
X129064881Y-136210191D01*
X129134573Y-136215175D01*
X129138674Y-136216789D01*
X129266503Y-136269737D01*
X129421153Y-136300499D01*
X129421156Y-136300500D01*
X129421158Y-136300500D01*
X129578844Y-136300500D01*
X129578845Y-136300499D01*
X129733497Y-136269737D01*
X129879179Y-136209394D01*
X130010289Y-136121789D01*
X130121789Y-136010289D01*
X130209394Y-135879179D01*
X130269737Y-135733497D01*
X130300500Y-135578842D01*
X130300500Y-135421158D01*
X130300500Y-135421155D01*
X130300499Y-135421153D01*
X130288968Y-135363183D01*
X130269737Y-135266503D01*
X130249846Y-135218481D01*
X130209397Y-135120827D01*
X130209390Y-135120814D01*
X130121789Y-134989711D01*
X130121786Y-134989707D01*
X130010292Y-134878213D01*
X130010288Y-134878210D01*
X129879185Y-134790609D01*
X129879172Y-134790602D01*
X129733501Y-134730264D01*
X129733489Y-134730261D01*
X129578845Y-134699500D01*
X129578842Y-134699500D01*
X129421158Y-134699500D01*
X129421155Y-134699500D01*
X129266510Y-134730261D01*
X129266498Y-134730264D01*
X129120827Y-134790602D01*
X129120814Y-134790609D01*
X128989127Y-134878601D01*
X128922450Y-134899479D01*
X128920236Y-134899499D01*
X128818943Y-134899499D01*
X128742579Y-134919961D01*
X128666214Y-134940423D01*
X128666209Y-134940426D01*
X128529290Y-135019475D01*
X128529282Y-135019481D01*
X128185584Y-135363181D01*
X128124261Y-135396666D01*
X128097903Y-135399500D01*
X116674500Y-135399500D01*
X116607461Y-135379815D01*
X116561706Y-135327011D01*
X116550500Y-135275500D01*
X116550500Y-135120155D01*
X116550499Y-135120153D01*
X116524552Y-134989711D01*
X116519737Y-134965503D01*
X116509349Y-134940423D01*
X116459397Y-134819827D01*
X116459390Y-134819814D01*
X116371398Y-134688125D01*
X116350520Y-134621447D01*
X116350500Y-134619234D01*
X116350500Y-132079765D01*
X116370185Y-132012726D01*
X116371398Y-132010874D01*
X116459390Y-131879185D01*
X116459390Y-131879184D01*
X116459394Y-131879179D01*
X116519737Y-131733497D01*
X116550500Y-131578842D01*
X116550500Y-131421158D01*
X116550500Y-131421155D01*
X116550499Y-131421153D01*
X116548559Y-131411402D01*
X116519737Y-131266503D01*
X116519735Y-131266498D01*
X116459397Y-131120827D01*
X116459390Y-131120814D01*
X116371789Y-130989711D01*
X116371786Y-130989707D01*
X116260292Y-130878213D01*
X116260288Y-130878210D01*
X116129185Y-130790609D01*
X116129172Y-130790602D01*
X115983501Y-130730264D01*
X115983489Y-130730261D01*
X115828845Y-130699500D01*
X115828842Y-130699500D01*
X115671158Y-130699500D01*
X115671155Y-130699500D01*
X115516510Y-130730261D01*
X115516498Y-130730264D01*
X115370827Y-130790602D01*
X115370814Y-130790609D01*
X115239711Y-130878210D01*
X115239707Y-130878213D01*
X115128213Y-130989707D01*
X115128210Y-130989711D01*
X115040609Y-131120814D01*
X115040602Y-131120827D01*
X114980264Y-131266498D01*
X114980261Y-131266510D01*
X114949500Y-131421153D01*
X114949500Y-131578846D01*
X114980261Y-131733489D01*
X114980264Y-131733501D01*
X115040602Y-131879172D01*
X115040609Y-131879185D01*
X115128602Y-132010874D01*
X115149480Y-132077551D01*
X115149500Y-132079765D01*
X115149500Y-134619234D01*
X115129815Y-134686273D01*
X115128602Y-134688125D01*
X115040609Y-134819814D01*
X115040602Y-134819827D01*
X114980264Y-134965498D01*
X114980261Y-134965510D01*
X114949500Y-135120153D01*
X114949500Y-135275500D01*
X114929815Y-135342539D01*
X114877011Y-135388294D01*
X114825500Y-135399500D01*
X99197096Y-135399500D01*
X99167655Y-135390855D01*
X99137669Y-135384332D01*
X99132653Y-135380577D01*
X99130057Y-135379815D01*
X99109415Y-135363181D01*
X99083589Y-135337355D01*
X99083587Y-135337352D01*
X98964716Y-135218481D01*
X98964715Y-135218480D01*
X98877903Y-135168360D01*
X98877903Y-135168359D01*
X98877899Y-135168358D01*
X98827784Y-135139423D01*
X98675056Y-135098499D01*
X98516942Y-135098499D01*
X98509346Y-135098499D01*
X98509330Y-135098500D01*
X97183058Y-135098500D01*
X97024943Y-135098500D01*
X96872216Y-135139423D01*
X96872215Y-135139423D01*
X96872213Y-135139424D01*
X96872210Y-135139425D01*
X96822097Y-135168359D01*
X96822096Y-135168360D01*
X96778690Y-135193420D01*
X96735286Y-135218479D01*
X96735283Y-135218481D01*
X96678265Y-135275500D01*
X96623481Y-135330284D01*
X96623479Y-135330286D01*
X96601180Y-135352584D01*
X96590582Y-135363183D01*
X96529258Y-135396667D01*
X96529253Y-135396666D01*
X96502902Y-135399500D01*
X87236669Y-135399500D01*
X87236653Y-135399499D01*
X87229057Y-135399499D01*
X87070943Y-135399499D01*
X86918215Y-135440423D01*
X86871810Y-135467215D01*
X86781287Y-135519477D01*
X86781282Y-135519481D01*
X86669478Y-135631286D01*
X86397860Y-135902903D01*
X86336537Y-135936388D01*
X86266845Y-135931404D01*
X86262743Y-135929789D01*
X86163887Y-135888842D01*
X86163885Y-135888841D01*
X86163884Y-135888841D01*
X86098035Y-135871197D01*
X85942238Y-135829452D01*
X85904215Y-135824446D01*
X85714741Y-135799500D01*
X85714734Y-135799500D01*
X85485266Y-135799500D01*
X85485258Y-135799500D01*
X85268715Y-135828009D01*
X85257762Y-135829452D01*
X85164076Y-135854554D01*
X85036112Y-135888842D01*
X84824123Y-135976650D01*
X84824109Y-135976657D01*
X84625382Y-136091392D01*
X84443338Y-136231081D01*
X84281081Y-136393338D01*
X84141392Y-136575382D01*
X84026657Y-136774109D01*
X84026650Y-136774123D01*
X83938842Y-136986112D01*
X83879453Y-137207759D01*
X83879451Y-137207770D01*
X83849500Y-137435258D01*
X59750000Y-137435258D01*
X59750000Y-132485258D01*
X83849500Y-132485258D01*
X83849500Y-132714741D01*
X83856541Y-132768216D01*
X83879452Y-132942238D01*
X83879453Y-132942240D01*
X83938842Y-133163887D01*
X84026650Y-133375876D01*
X84026657Y-133375890D01*
X84141392Y-133574617D01*
X84281081Y-133756661D01*
X84281089Y-133756670D01*
X84443330Y-133918911D01*
X84443338Y-133918918D01*
X84625382Y-134058607D01*
X84625385Y-134058608D01*
X84625388Y-134058611D01*
X84824112Y-134173344D01*
X84824117Y-134173346D01*
X84824123Y-134173349D01*
X84915480Y-134211190D01*
X85036113Y-134261158D01*
X85257762Y-134320548D01*
X85485266Y-134350500D01*
X85485273Y-134350500D01*
X85714727Y-134350500D01*
X85714734Y-134350500D01*
X85942238Y-134320548D01*
X86163887Y-134261158D01*
X86375888Y-134173344D01*
X86574612Y-134058611D01*
X86756661Y-133918919D01*
X86756665Y-133918914D01*
X86756670Y-133918911D01*
X86918911Y-133756670D01*
X86918914Y-133756665D01*
X86918919Y-133756661D01*
X87058611Y-133574612D01*
X87173344Y-133375888D01*
X87261158Y-133163887D01*
X87320548Y-132942238D01*
X87350500Y-132714734D01*
X87350500Y-132485266D01*
X87348342Y-132468872D01*
X95799500Y-132468872D01*
X95799500Y-132731127D01*
X95824491Y-132920943D01*
X95833730Y-132991116D01*
X95898677Y-133233501D01*
X95901602Y-133244418D01*
X95901605Y-133244428D01*
X96001953Y-133486690D01*
X96001958Y-133486700D01*
X96133075Y-133713803D01*
X96292718Y-133921851D01*
X96292726Y-133921860D01*
X96478140Y-134107274D01*
X96478148Y-134107281D01*
X96686196Y-134266924D01*
X96913299Y-134398041D01*
X96913309Y-134398046D01*
X97155571Y-134498394D01*
X97155581Y-134498398D01*
X97408884Y-134566270D01*
X97668880Y-134600500D01*
X97668887Y-134600500D01*
X97931113Y-134600500D01*
X97931120Y-134600500D01*
X98191116Y-134566270D01*
X98444419Y-134498398D01*
X98686697Y-134398043D01*
X98913803Y-134266924D01*
X99121851Y-134107282D01*
X99121855Y-134107277D01*
X99121860Y-134107274D01*
X99307274Y-133921860D01*
X99307277Y-133921855D01*
X99307282Y-133921851D01*
X99466924Y-133713803D01*
X99598043Y-133486697D01*
X99698398Y-133244419D01*
X99766270Y-132991116D01*
X99800500Y-132731120D01*
X99800500Y-132468880D01*
X99794216Y-132421153D01*
X108199500Y-132421153D01*
X108199500Y-132578846D01*
X108230261Y-132733489D01*
X108230264Y-132733501D01*
X108290602Y-132879172D01*
X108290609Y-132879185D01*
X108378210Y-133010288D01*
X108378213Y-133010292D01*
X108489707Y-133121786D01*
X108489711Y-133121789D01*
X108620814Y-133209390D01*
X108620827Y-133209397D01*
X108705379Y-133244419D01*
X108766503Y-133269737D01*
X108921153Y-133300499D01*
X108921156Y-133300500D01*
X108921158Y-133300500D01*
X109078844Y-133300500D01*
X109078845Y-133300499D01*
X109233497Y-133269737D01*
X109379179Y-133209394D01*
X109510289Y-133121789D01*
X109621789Y-133010289D01*
X109709394Y-132879179D01*
X109769737Y-132733497D01*
X109792151Y-132620814D01*
X109800638Y-132578150D01*
X109833023Y-132516239D01*
X109834524Y-132514709D01*
X110098713Y-132250521D01*
X110098716Y-132250520D01*
X110210520Y-132138716D01*
X110260639Y-132051904D01*
X110289577Y-132001785D01*
X110330501Y-131849057D01*
X110330501Y-131690943D01*
X110330501Y-131683348D01*
X110330500Y-131683330D01*
X110330500Y-128479097D01*
X110350185Y-128412058D01*
X110402989Y-128366303D01*
X110472147Y-128356359D01*
X110535703Y-128385384D01*
X110542181Y-128391416D01*
X110915425Y-128764660D01*
X110948910Y-128825983D01*
X110949361Y-128828149D01*
X110980261Y-128983491D01*
X110980264Y-128983501D01*
X111040602Y-129129172D01*
X111040609Y-129129185D01*
X111128210Y-129260288D01*
X111128213Y-129260292D01*
X111239707Y-129371786D01*
X111239711Y-129371789D01*
X111370814Y-129459390D01*
X111370827Y-129459397D01*
X111516498Y-129519735D01*
X111516503Y-129519737D01*
X111671153Y-129550499D01*
X111671156Y-129550500D01*
X111671158Y-129550500D01*
X111828844Y-129550500D01*
X111828845Y-129550499D01*
X111983497Y-129519737D01*
X112129179Y-129459394D01*
X112260289Y-129371789D01*
X112371789Y-129260289D01*
X112459394Y-129129179D01*
X112519737Y-128983497D01*
X112550500Y-128828842D01*
X112550500Y-128671158D01*
X112550500Y-128671155D01*
X112550499Y-128671153D01*
X112519738Y-128516510D01*
X112519737Y-128516503D01*
X112519735Y-128516498D01*
X112459397Y-128370827D01*
X112459390Y-128370814D01*
X112371789Y-128239711D01*
X112371786Y-128239707D01*
X112260292Y-128128213D01*
X112260288Y-128128210D01*
X112129185Y-128040609D01*
X112129172Y-128040602D01*
X111983501Y-127980264D01*
X111983491Y-127980261D01*
X111828149Y-127949361D01*
X111766238Y-127916976D01*
X111764660Y-127915425D01*
X110577055Y-126727820D01*
X110543570Y-126666497D01*
X110543119Y-126615945D01*
X110550500Y-126578841D01*
X110550500Y-126421155D01*
X110550499Y-126421153D01*
X110519738Y-126266510D01*
X110519737Y-126266503D01*
X110498015Y-126214060D01*
X110459397Y-126120827D01*
X110459390Y-126120814D01*
X110371789Y-125989711D01*
X110371786Y-125989707D01*
X110260292Y-125878213D01*
X110260288Y-125878210D01*
X110129185Y-125790609D01*
X110129172Y-125790602D01*
X109983501Y-125730264D01*
X109983489Y-125730261D01*
X109828845Y-125699500D01*
X109828842Y-125699500D01*
X109671158Y-125699500D01*
X109671155Y-125699500D01*
X109516510Y-125730261D01*
X109516498Y-125730264D01*
X109370827Y-125790602D01*
X109370814Y-125790609D01*
X109239711Y-125878210D01*
X109239707Y-125878213D01*
X109128213Y-125989707D01*
X109128210Y-125989711D01*
X109040609Y-126120814D01*
X109040602Y-126120827D01*
X108980264Y-126266498D01*
X108980261Y-126266510D01*
X108949500Y-126421153D01*
X108949500Y-126578846D01*
X108980261Y-126733489D01*
X108980264Y-126733501D01*
X109040602Y-126879172D01*
X109040609Y-126879184D01*
X109108602Y-126980942D01*
X109129480Y-127047619D01*
X109129500Y-127049833D01*
X109129500Y-131469903D01*
X109120855Y-131499342D01*
X109114332Y-131529330D01*
X109110577Y-131534345D01*
X109109815Y-131536942D01*
X109093185Y-131557579D01*
X109025383Y-131625382D01*
X108985339Y-131665426D01*
X108924016Y-131698910D01*
X108921850Y-131699361D01*
X108766508Y-131730261D01*
X108766498Y-131730264D01*
X108620827Y-131790602D01*
X108620814Y-131790609D01*
X108489711Y-131878210D01*
X108489707Y-131878213D01*
X108378213Y-131989707D01*
X108378210Y-131989711D01*
X108290609Y-132120814D01*
X108290602Y-132120827D01*
X108230264Y-132266498D01*
X108230261Y-132266510D01*
X108199500Y-132421153D01*
X99794216Y-132421153D01*
X99766270Y-132208884D01*
X99698398Y-131955581D01*
X99666751Y-131879179D01*
X99598046Y-131713309D01*
X99598041Y-131713299D01*
X99466924Y-131486196D01*
X99307281Y-131278148D01*
X99307274Y-131278140D01*
X99121860Y-131092726D01*
X99121851Y-131092718D01*
X98913803Y-130933075D01*
X98686700Y-130801958D01*
X98686690Y-130801953D01*
X98444428Y-130701605D01*
X98444421Y-130701603D01*
X98444419Y-130701602D01*
X98191116Y-130633730D01*
X98133339Y-130626123D01*
X97931127Y-130599500D01*
X97931120Y-130599500D01*
X97668880Y-130599500D01*
X97668872Y-130599500D01*
X97437772Y-130629926D01*
X97408884Y-130633730D01*
X97210924Y-130686773D01*
X97155581Y-130701602D01*
X97155571Y-130701605D01*
X96913309Y-130801953D01*
X96913299Y-130801958D01*
X96686196Y-130933075D01*
X96478148Y-131092718D01*
X96292718Y-131278148D01*
X96133075Y-131486196D01*
X96001958Y-131713299D01*
X96001953Y-131713309D01*
X95901605Y-131955571D01*
X95901602Y-131955581D01*
X95836245Y-132199500D01*
X95833730Y-132208885D01*
X95799500Y-132468872D01*
X87348342Y-132468872D01*
X87320548Y-132257762D01*
X87261158Y-132036113D01*
X87196151Y-131879172D01*
X87173349Y-131824123D01*
X87173346Y-131824117D01*
X87173344Y-131824112D01*
X87058611Y-131625388D01*
X87058608Y-131625385D01*
X87058607Y-131625382D01*
X86918918Y-131443338D01*
X86918911Y-131443330D01*
X86756670Y-131281089D01*
X86756661Y-131281081D01*
X86574617Y-131141392D01*
X86375890Y-131026657D01*
X86375876Y-131026650D01*
X86163887Y-130938842D01*
X86142364Y-130933075D01*
X85942238Y-130879452D01*
X85904215Y-130874446D01*
X85714741Y-130849500D01*
X85714734Y-130849500D01*
X85485266Y-130849500D01*
X85485258Y-130849500D01*
X85268715Y-130878009D01*
X85257762Y-130879452D01*
X85164076Y-130904554D01*
X85036112Y-130938842D01*
X84824123Y-131026650D01*
X84824109Y-131026657D01*
X84625382Y-131141392D01*
X84443338Y-131281081D01*
X84281081Y-131443338D01*
X84141392Y-131625382D01*
X84026657Y-131824109D01*
X84026650Y-131824123D01*
X83938842Y-132036112D01*
X83916147Y-132120814D01*
X83881393Y-132250520D01*
X83879453Y-132257759D01*
X83879451Y-132257770D01*
X83849500Y-132485258D01*
X59750000Y-132485258D01*
X59750000Y-129628549D01*
X73657000Y-129628549D01*
X73657000Y-129851450D01*
X73657001Y-129851466D01*
X73686094Y-130072452D01*
X73686095Y-130072457D01*
X73686096Y-130072463D01*
X73686097Y-130072465D01*
X73743790Y-130287780D01*
X73743793Y-130287790D01*
X73829093Y-130493722D01*
X73829095Y-130493726D01*
X73940552Y-130686774D01*
X73940557Y-130686780D01*
X73940558Y-130686782D01*
X74076251Y-130863622D01*
X74076257Y-130863629D01*
X74233870Y-131021242D01*
X74233876Y-131021247D01*
X74410726Y-131156948D01*
X74603774Y-131268405D01*
X74809719Y-131353710D01*
X75025037Y-131411404D01*
X75246043Y-131440500D01*
X75246050Y-131440500D01*
X75468950Y-131440500D01*
X75468957Y-131440500D01*
X75689963Y-131411404D01*
X75905281Y-131353710D01*
X76111226Y-131268405D01*
X76304274Y-131156948D01*
X76481124Y-131021247D01*
X76638747Y-130863624D01*
X76774448Y-130686774D01*
X76885905Y-130493726D01*
X76971210Y-130287781D01*
X77028904Y-130072463D01*
X77058000Y-129851457D01*
X77058000Y-129628543D01*
X77028904Y-129407537D01*
X76971210Y-129192219D01*
X76885905Y-128986274D01*
X76774448Y-128793226D01*
X76735367Y-128742294D01*
X76638748Y-128616377D01*
X76638742Y-128616370D01*
X76481129Y-128458757D01*
X76481122Y-128458751D01*
X76304282Y-128323058D01*
X76304280Y-128323057D01*
X76304274Y-128323052D01*
X76111226Y-128211595D01*
X76111222Y-128211593D01*
X75905290Y-128126293D01*
X75905283Y-128126291D01*
X75905281Y-128126290D01*
X75689963Y-128068596D01*
X75689957Y-128068595D01*
X75689952Y-128068594D01*
X75468966Y-128039501D01*
X75468963Y-128039500D01*
X75468957Y-128039500D01*
X75246043Y-128039500D01*
X75246037Y-128039500D01*
X75246033Y-128039501D01*
X75025047Y-128068594D01*
X75025040Y-128068595D01*
X75025037Y-128068596D01*
X74945160Y-128089999D01*
X74809719Y-128126290D01*
X74809709Y-128126293D01*
X74603777Y-128211593D01*
X74603773Y-128211595D01*
X74410726Y-128323052D01*
X74410717Y-128323058D01*
X74233877Y-128458751D01*
X74233870Y-128458757D01*
X74076257Y-128616370D01*
X74076251Y-128616377D01*
X73940558Y-128793217D01*
X73940552Y-128793226D01*
X73829095Y-128986273D01*
X73829093Y-128986277D01*
X73743793Y-129192209D01*
X73743790Y-129192219D01*
X73695676Y-129371786D01*
X73686097Y-129407534D01*
X73686094Y-129407547D01*
X73657001Y-129628533D01*
X73657000Y-129628549D01*
X59750000Y-129628549D01*
X59750000Y-126418872D01*
X81649500Y-126418872D01*
X81649500Y-126681127D01*
X81660883Y-126767584D01*
X81683730Y-126941116D01*
X81730157Y-127114383D01*
X81751602Y-127194418D01*
X81751605Y-127194428D01*
X81851953Y-127436690D01*
X81851958Y-127436700D01*
X81983075Y-127663803D01*
X82142718Y-127871851D01*
X82142726Y-127871860D01*
X82328140Y-128057274D01*
X82328148Y-128057281D01*
X82328149Y-128057282D01*
X82333112Y-128061090D01*
X82536196Y-128216924D01*
X82763299Y-128348041D01*
X82763309Y-128348046D01*
X83005571Y-128448394D01*
X83005581Y-128448398D01*
X83258884Y-128516270D01*
X83518880Y-128550500D01*
X83518887Y-128550500D01*
X83781113Y-128550500D01*
X83781120Y-128550500D01*
X84041116Y-128516270D01*
X84294419Y-128448398D01*
X84492614Y-128366303D01*
X84536690Y-128348046D01*
X84536691Y-128348045D01*
X84536697Y-128348043D01*
X84763803Y-128216924D01*
X84971851Y-128057282D01*
X84971855Y-128057277D01*
X84971860Y-128057274D01*
X85157274Y-127871860D01*
X85157277Y-127871855D01*
X85157282Y-127871851D01*
X85316924Y-127663803D01*
X85448043Y-127436697D01*
X85455284Y-127419217D01*
X85548394Y-127194428D01*
X85548398Y-127194419D01*
X85616270Y-126941116D01*
X85650500Y-126681120D01*
X85650500Y-126418880D01*
X85616270Y-126158884D01*
X85548398Y-125905581D01*
X85517234Y-125830345D01*
X85448046Y-125663309D01*
X85448043Y-125663303D01*
X85411485Y-125599982D01*
X102319500Y-125599982D01*
X102319500Y-127400017D01*
X102330000Y-127502796D01*
X102361927Y-127599144D01*
X102385186Y-127669335D01*
X102477288Y-127818656D01*
X102601344Y-127942712D01*
X102750665Y-128034814D01*
X102917202Y-128089999D01*
X103019990Y-128100500D01*
X103019995Y-128100500D01*
X104820005Y-128100500D01*
X104820010Y-128100500D01*
X104922798Y-128089999D01*
X105089335Y-128034814D01*
X105238656Y-127942712D01*
X105362712Y-127818656D01*
X105454814Y-127669335D01*
X105509999Y-127502798D01*
X105520500Y-127400010D01*
X105520500Y-125599990D01*
X105509999Y-125497202D01*
X105454814Y-125330665D01*
X105362712Y-125181344D01*
X105238656Y-125057288D01*
X105089335Y-124965186D01*
X104922798Y-124910001D01*
X104922796Y-124910000D01*
X104820017Y-124899500D01*
X104820010Y-124899500D01*
X103019990Y-124899500D01*
X103019982Y-124899500D01*
X102917203Y-124910000D01*
X102917202Y-124910001D01*
X102848970Y-124932611D01*
X102750667Y-124965185D01*
X102750662Y-124965187D01*
X102601342Y-125057289D01*
X102477289Y-125181342D01*
X102385187Y-125330662D01*
X102385186Y-125330665D01*
X102330001Y-125497202D01*
X102330001Y-125497203D01*
X102330000Y-125497203D01*
X102319500Y-125599982D01*
X85411485Y-125599982D01*
X85369085Y-125526543D01*
X85316924Y-125436196D01*
X85194424Y-125276554D01*
X85157282Y-125228149D01*
X85157281Y-125228148D01*
X85157274Y-125228140D01*
X84971860Y-125042726D01*
X84971851Y-125042718D01*
X84763803Y-124883075D01*
X84536700Y-124751958D01*
X84536690Y-124751953D01*
X84294428Y-124651605D01*
X84294421Y-124651603D01*
X84294419Y-124651602D01*
X84041116Y-124583730D01*
X83983339Y-124576123D01*
X83781127Y-124549500D01*
X83781120Y-124549500D01*
X83518880Y-124549500D01*
X83518872Y-124549500D01*
X83287772Y-124579926D01*
X83258884Y-124583730D01*
X83005581Y-124651602D01*
X83005571Y-124651605D01*
X82763309Y-124751953D01*
X82763299Y-124751958D01*
X82536196Y-124883075D01*
X82328148Y-125042718D01*
X82142718Y-125228148D01*
X81983075Y-125436196D01*
X81851958Y-125663299D01*
X81851953Y-125663309D01*
X81751605Y-125905571D01*
X81751602Y-125905581D01*
X81693928Y-126120827D01*
X81683730Y-126158885D01*
X81649500Y-126418872D01*
X59750000Y-126418872D01*
X59750000Y-123659984D01*
X73657000Y-123659984D01*
X73657000Y-125660015D01*
X73667500Y-125762795D01*
X73667501Y-125762797D01*
X73670144Y-125770773D01*
X73722686Y-125929335D01*
X73722687Y-125929337D01*
X73814786Y-126078651D01*
X73814789Y-126078655D01*
X73938844Y-126202710D01*
X73938848Y-126202713D01*
X74088162Y-126294812D01*
X74088164Y-126294813D01*
X74088166Y-126294814D01*
X74254703Y-126349999D01*
X74357492Y-126360500D01*
X74357497Y-126360500D01*
X76357503Y-126360500D01*
X76357508Y-126360500D01*
X76460297Y-126349999D01*
X76626834Y-126294814D01*
X76776155Y-126202711D01*
X76900211Y-126078655D01*
X76992314Y-125929334D01*
X77047499Y-125762797D01*
X77058000Y-125660008D01*
X77058000Y-123659992D01*
X77047499Y-123557203D01*
X76992314Y-123390666D01*
X76900211Y-123241345D01*
X76776155Y-123117289D01*
X76776151Y-123117286D01*
X76626837Y-123025187D01*
X76626835Y-123025186D01*
X76543565Y-122997593D01*
X76460297Y-122970001D01*
X76460295Y-122970000D01*
X76357515Y-122959500D01*
X76357508Y-122959500D01*
X74357492Y-122959500D01*
X74357484Y-122959500D01*
X74254704Y-122970000D01*
X74254703Y-122970001D01*
X74088164Y-123025186D01*
X74088162Y-123025187D01*
X73938848Y-123117286D01*
X73938844Y-123117289D01*
X73814789Y-123241344D01*
X73814786Y-123241348D01*
X73722687Y-123390662D01*
X73722686Y-123390664D01*
X73667501Y-123557203D01*
X73667500Y-123557204D01*
X73657000Y-123659984D01*
X59750000Y-123659984D01*
X59750000Y-115435258D01*
X83699500Y-115435258D01*
X83699500Y-115664741D01*
X83719480Y-115816498D01*
X83729452Y-115892238D01*
X83788842Y-116113887D01*
X83876650Y-116325876D01*
X83876657Y-116325890D01*
X83991392Y-116524617D01*
X84131081Y-116706661D01*
X84131089Y-116706670D01*
X84293330Y-116868911D01*
X84293338Y-116868918D01*
X84475382Y-117008607D01*
X84475385Y-117008608D01*
X84475388Y-117008611D01*
X84674112Y-117123344D01*
X84674117Y-117123346D01*
X84674123Y-117123349D01*
X84765480Y-117161190D01*
X84886113Y-117211158D01*
X85107762Y-117270548D01*
X85335266Y-117300500D01*
X85335273Y-117300500D01*
X85564727Y-117300500D01*
X85564734Y-117300500D01*
X85792238Y-117270548D01*
X86013887Y-117211158D01*
X86225888Y-117123344D01*
X86424612Y-117008611D01*
X86606661Y-116868919D01*
X86606665Y-116868914D01*
X86606670Y-116868911D01*
X86768911Y-116706670D01*
X86768914Y-116706665D01*
X86768919Y-116706661D01*
X86908611Y-116524612D01*
X87023344Y-116325888D01*
X87111158Y-116113887D01*
X87170548Y-115892238D01*
X87200500Y-115664734D01*
X87200500Y-115435266D01*
X87170548Y-115207762D01*
X87111158Y-114986113D01*
X87023344Y-114774112D01*
X86908611Y-114575388D01*
X86908608Y-114575385D01*
X86908607Y-114575382D01*
X86768918Y-114393338D01*
X86768911Y-114393330D01*
X86606670Y-114231089D01*
X86606661Y-114231081D01*
X86424617Y-114091392D01*
X86225890Y-113976657D01*
X86225876Y-113976650D01*
X86013887Y-113888842D01*
X85992364Y-113883075D01*
X85792238Y-113829452D01*
X85754215Y-113824446D01*
X85564741Y-113799500D01*
X85564734Y-113799500D01*
X85335266Y-113799500D01*
X85335258Y-113799500D01*
X85118715Y-113828009D01*
X85107762Y-113829452D01*
X85014076Y-113854554D01*
X84886112Y-113888842D01*
X84674123Y-113976650D01*
X84674109Y-113976657D01*
X84475382Y-114091392D01*
X84293338Y-114231081D01*
X84131081Y-114393338D01*
X83991392Y-114575382D01*
X83876657Y-114774109D01*
X83876650Y-114774123D01*
X83788842Y-114986112D01*
X83729453Y-115207759D01*
X83729451Y-115207770D01*
X83699500Y-115435258D01*
X59750000Y-115435258D01*
X59750000Y-111628549D01*
X73657000Y-111628549D01*
X73657000Y-111851450D01*
X73657001Y-111851466D01*
X73686094Y-112072452D01*
X73686095Y-112072457D01*
X73686096Y-112072463D01*
X73686097Y-112072465D01*
X73743790Y-112287780D01*
X73743793Y-112287790D01*
X73829093Y-112493722D01*
X73829095Y-112493726D01*
X73940552Y-112686774D01*
X73940557Y-112686780D01*
X73940558Y-112686782D01*
X74076251Y-112863622D01*
X74076257Y-112863629D01*
X74233870Y-113021242D01*
X74233876Y-113021247D01*
X74410726Y-113156948D01*
X74603774Y-113268405D01*
X74809719Y-113353710D01*
X75025037Y-113411404D01*
X75246043Y-113440500D01*
X75246050Y-113440500D01*
X75468950Y-113440500D01*
X75468957Y-113440500D01*
X75689963Y-113411404D01*
X75905281Y-113353710D01*
X76111226Y-113268405D01*
X76304274Y-113156948D01*
X76481124Y-113021247D01*
X76638747Y-112863624D01*
X76774448Y-112686774D01*
X76885905Y-112493726D01*
X76971210Y-112287781D01*
X77028904Y-112072463D01*
X77058000Y-111851457D01*
X77058000Y-111628543D01*
X77028904Y-111407537D01*
X76971210Y-111192219D01*
X76960732Y-111166924D01*
X76885906Y-110986277D01*
X76885905Y-110986274D01*
X76774448Y-110793226D01*
X76697153Y-110692492D01*
X76638748Y-110616377D01*
X76638742Y-110616370D01*
X76481129Y-110458757D01*
X76481122Y-110458751D01*
X76304282Y-110323058D01*
X76304280Y-110323057D01*
X76304274Y-110323052D01*
X76111226Y-110211595D01*
X76111222Y-110211593D01*
X75905290Y-110126293D01*
X75905283Y-110126291D01*
X75905281Y-110126290D01*
X75689963Y-110068596D01*
X75689957Y-110068595D01*
X75689952Y-110068594D01*
X75468966Y-110039501D01*
X75468963Y-110039500D01*
X75468957Y-110039500D01*
X75246043Y-110039500D01*
X75246037Y-110039500D01*
X75246033Y-110039501D01*
X75025047Y-110068594D01*
X75025040Y-110068595D01*
X75025037Y-110068596D01*
X74854172Y-110114379D01*
X74809719Y-110126290D01*
X74809709Y-110126293D01*
X74603777Y-110211593D01*
X74603773Y-110211595D01*
X74410726Y-110323052D01*
X74410717Y-110323058D01*
X74233877Y-110458751D01*
X74233870Y-110458757D01*
X74076257Y-110616370D01*
X74076251Y-110616377D01*
X73940558Y-110793217D01*
X73940552Y-110793226D01*
X73829095Y-110986273D01*
X73829093Y-110986277D01*
X73743793Y-111192209D01*
X73743790Y-111192219D01*
X73686097Y-111407534D01*
X73686094Y-111407547D01*
X73657001Y-111628533D01*
X73657000Y-111628549D01*
X59750000Y-111628549D01*
X59750000Y-109368872D01*
X81499500Y-109368872D01*
X81499500Y-109631127D01*
X81517618Y-109768735D01*
X81533730Y-109891116D01*
X81596745Y-110126293D01*
X81601602Y-110144418D01*
X81601605Y-110144428D01*
X81701953Y-110386690D01*
X81701958Y-110386700D01*
X81833075Y-110613803D01*
X81992718Y-110821851D01*
X81992726Y-110821860D01*
X82178140Y-111007274D01*
X82178148Y-111007281D01*
X82386196Y-111166924D01*
X82613299Y-111298041D01*
X82613309Y-111298046D01*
X82855571Y-111398394D01*
X82855581Y-111398398D01*
X83108884Y-111466270D01*
X83368880Y-111500500D01*
X83368887Y-111500500D01*
X83631113Y-111500500D01*
X83631120Y-111500500D01*
X83891116Y-111466270D01*
X84144419Y-111398398D01*
X84386697Y-111298043D01*
X84613803Y-111166924D01*
X84821851Y-111007282D01*
X84821855Y-111007277D01*
X84821860Y-111007274D01*
X85007274Y-110821860D01*
X85007277Y-110821855D01*
X85007282Y-110821851D01*
X85166924Y-110613803D01*
X85298043Y-110386697D01*
X85398398Y-110144419D01*
X85466270Y-109891116D01*
X85500500Y-109631120D01*
X85500500Y-109368880D01*
X85466270Y-109108884D01*
X85398398Y-108855581D01*
X85347826Y-108733489D01*
X85310877Y-108644286D01*
X85298046Y-108613309D01*
X85298041Y-108613299D01*
X85290352Y-108599982D01*
X102239500Y-108599982D01*
X102239500Y-110400017D01*
X102250000Y-110502796D01*
X102305185Y-110669332D01*
X102305187Y-110669337D01*
X102317653Y-110689547D01*
X102397288Y-110818656D01*
X102521344Y-110942712D01*
X102670665Y-111034814D01*
X102837202Y-111089999D01*
X102939990Y-111100500D01*
X102939995Y-111100500D01*
X104740005Y-111100500D01*
X104740010Y-111100500D01*
X104842798Y-111089999D01*
X105009335Y-111034814D01*
X105158656Y-110942712D01*
X105282712Y-110818656D01*
X105374814Y-110669335D01*
X105429999Y-110502798D01*
X105440500Y-110400010D01*
X105440500Y-108599990D01*
X105429999Y-108497202D01*
X105374814Y-108330665D01*
X105282712Y-108181344D01*
X105158656Y-108057288D01*
X105053984Y-107992726D01*
X105009337Y-107965187D01*
X105009332Y-107965185D01*
X105007863Y-107964698D01*
X104842798Y-107910001D01*
X104842796Y-107910000D01*
X104740017Y-107899500D01*
X104740010Y-107899500D01*
X102939990Y-107899500D01*
X102939982Y-107899500D01*
X102837203Y-107910000D01*
X102837202Y-107910001D01*
X102778859Y-107929334D01*
X102670667Y-107965185D01*
X102670662Y-107965187D01*
X102521342Y-108057289D01*
X102397289Y-108181342D01*
X102305187Y-108330662D01*
X102305185Y-108330667D01*
X102286785Y-108386196D01*
X102250001Y-108497202D01*
X102250001Y-108497203D01*
X102250000Y-108497203D01*
X102239500Y-108599982D01*
X85290352Y-108599982D01*
X85166924Y-108386196D01*
X85026128Y-108202710D01*
X85007282Y-108178149D01*
X85007281Y-108178148D01*
X85007274Y-108178140D01*
X84821860Y-107992726D01*
X84821851Y-107992718D01*
X84613803Y-107833075D01*
X84386700Y-107701958D01*
X84386690Y-107701953D01*
X84144428Y-107601605D01*
X84144421Y-107601603D01*
X84144419Y-107601602D01*
X83891116Y-107533730D01*
X83833339Y-107526123D01*
X83631127Y-107499500D01*
X83631120Y-107499500D01*
X83368880Y-107499500D01*
X83368872Y-107499500D01*
X83137772Y-107529926D01*
X83108884Y-107533730D01*
X82855581Y-107601602D01*
X82855571Y-107601605D01*
X82613309Y-107701953D01*
X82613299Y-107701958D01*
X82386196Y-107833075D01*
X82178148Y-107992718D01*
X81992718Y-108178148D01*
X81833075Y-108386196D01*
X81701958Y-108613299D01*
X81701953Y-108613309D01*
X81601605Y-108855571D01*
X81601602Y-108855581D01*
X81534380Y-109106461D01*
X81533730Y-109108885D01*
X81499500Y-109368872D01*
X59750000Y-109368872D01*
X59750000Y-105659984D01*
X73657000Y-105659984D01*
X73657000Y-107660015D01*
X73667500Y-107762795D01*
X73667501Y-107762797D01*
X73690789Y-107833075D01*
X73722686Y-107929335D01*
X73722687Y-107929337D01*
X73814786Y-108078651D01*
X73814789Y-108078655D01*
X73938844Y-108202710D01*
X73938848Y-108202713D01*
X74088162Y-108294812D01*
X74088164Y-108294813D01*
X74088166Y-108294814D01*
X74254703Y-108349999D01*
X74357492Y-108360500D01*
X74357497Y-108360500D01*
X76357503Y-108360500D01*
X76357508Y-108360500D01*
X76460297Y-108349999D01*
X76626834Y-108294814D01*
X76776155Y-108202711D01*
X76900211Y-108078655D01*
X76992314Y-107929334D01*
X77047499Y-107762797D01*
X77058000Y-107660008D01*
X77058000Y-105659992D01*
X77047499Y-105557203D01*
X76992314Y-105390666D01*
X76900211Y-105241345D01*
X76776155Y-105117289D01*
X76776151Y-105117286D01*
X76626837Y-105025187D01*
X76626835Y-105025186D01*
X76543565Y-104997593D01*
X76460297Y-104970001D01*
X76460295Y-104970000D01*
X76357515Y-104959500D01*
X76357508Y-104959500D01*
X74357492Y-104959500D01*
X74357484Y-104959500D01*
X74254704Y-104970000D01*
X74254703Y-104970001D01*
X74088164Y-105025186D01*
X74088162Y-105025187D01*
X73938848Y-105117286D01*
X73938844Y-105117289D01*
X73814789Y-105241344D01*
X73814786Y-105241348D01*
X73722687Y-105390662D01*
X73722686Y-105390664D01*
X73667501Y-105557203D01*
X73667500Y-105557204D01*
X73657000Y-105659984D01*
X59750000Y-105659984D01*
X59750000Y-103435258D01*
X83699500Y-103435258D01*
X83699500Y-103664741D01*
X83724446Y-103854215D01*
X83729452Y-103892238D01*
X83761084Y-104010292D01*
X83788842Y-104113887D01*
X83876650Y-104325876D01*
X83876656Y-104325888D01*
X83985551Y-104514501D01*
X83991392Y-104524617D01*
X84131081Y-104706661D01*
X84131089Y-104706670D01*
X84293330Y-104868911D01*
X84293338Y-104868918D01*
X84475382Y-105008607D01*
X84475385Y-105008608D01*
X84475388Y-105008611D01*
X84674112Y-105123344D01*
X84674117Y-105123346D01*
X84674123Y-105123349D01*
X84710723Y-105138509D01*
X84886113Y-105211158D01*
X85107762Y-105270548D01*
X85335266Y-105300500D01*
X85335273Y-105300500D01*
X85564727Y-105300500D01*
X85564734Y-105300500D01*
X85792238Y-105270548D01*
X86013887Y-105211158D01*
X86112728Y-105170215D01*
X86182196Y-105162747D01*
X86244675Y-105194021D01*
X86247861Y-105197096D01*
X86716139Y-105665374D01*
X86716149Y-105665385D01*
X86720479Y-105669715D01*
X86720480Y-105669716D01*
X86832284Y-105781520D01*
X86919095Y-105831639D01*
X86919097Y-105831641D01*
X86957151Y-105853611D01*
X86969215Y-105860577D01*
X87121943Y-105901501D01*
X87121946Y-105901501D01*
X87287653Y-105901501D01*
X87287669Y-105901500D01*
X122112331Y-105901500D01*
X122112347Y-105901501D01*
X122119943Y-105901501D01*
X122278054Y-105901501D01*
X122278057Y-105901501D01*
X122430785Y-105860577D01*
X122480904Y-105831639D01*
X122567716Y-105781520D01*
X122679520Y-105669716D01*
X122679520Y-105669714D01*
X122689728Y-105659507D01*
X122689729Y-105659504D01*
X124014664Y-104334571D01*
X124075985Y-104301088D01*
X124078152Y-104300637D01*
X124078841Y-104300500D01*
X124078842Y-104300500D01*
X124233497Y-104269737D01*
X124379179Y-104209394D01*
X124510289Y-104121789D01*
X124621789Y-104010289D01*
X124709394Y-103879179D01*
X124769737Y-103733497D01*
X124800500Y-103578842D01*
X124800500Y-103421158D01*
X124800500Y-103421155D01*
X124800499Y-103421153D01*
X124790101Y-103368880D01*
X124769737Y-103266503D01*
X124745405Y-103207759D01*
X124709397Y-103120827D01*
X124709390Y-103120814D01*
X124621789Y-102989711D01*
X124621786Y-102989707D01*
X124510292Y-102878213D01*
X124510288Y-102878210D01*
X124379185Y-102790609D01*
X124379172Y-102790602D01*
X124233501Y-102730264D01*
X124233489Y-102730261D01*
X124078845Y-102699500D01*
X124078842Y-102699500D01*
X123921158Y-102699500D01*
X123921155Y-102699500D01*
X123766510Y-102730261D01*
X123766498Y-102730264D01*
X123620827Y-102790602D01*
X123620814Y-102790609D01*
X123489711Y-102878210D01*
X123489707Y-102878213D01*
X123378213Y-102989707D01*
X123378210Y-102989711D01*
X123290609Y-103120814D01*
X123290602Y-103120827D01*
X123230264Y-103266498D01*
X123230261Y-103266508D01*
X123199362Y-103421848D01*
X123166977Y-103483759D01*
X123165426Y-103485337D01*
X121986584Y-104664181D01*
X121925261Y-104697666D01*
X121898903Y-104700500D01*
X99531644Y-104700500D01*
X99464605Y-104680815D01*
X99418850Y-104628011D01*
X99408906Y-104558853D01*
X99424256Y-104514501D01*
X99438412Y-104489981D01*
X99498043Y-104386697D01*
X99598398Y-104144419D01*
X99666270Y-103891116D01*
X99700500Y-103631120D01*
X99700500Y-103368880D01*
X99666270Y-103108884D01*
X99598398Y-102855581D01*
X99571486Y-102790609D01*
X99498046Y-102613309D01*
X99498041Y-102613299D01*
X99366924Y-102386196D01*
X99207281Y-102178148D01*
X99207274Y-102178140D01*
X99021860Y-101992726D01*
X99021851Y-101992718D01*
X98813803Y-101833075D01*
X98586700Y-101701958D01*
X98586690Y-101701953D01*
X98344428Y-101601605D01*
X98344421Y-101601603D01*
X98344419Y-101601602D01*
X98091116Y-101533730D01*
X98033339Y-101526123D01*
X97831127Y-101499500D01*
X97831120Y-101499500D01*
X97568880Y-101499500D01*
X97568872Y-101499500D01*
X97337772Y-101529926D01*
X97308884Y-101533730D01*
X97055581Y-101601602D01*
X97055571Y-101601605D01*
X96813309Y-101701953D01*
X96813299Y-101701958D01*
X96586196Y-101833075D01*
X96378148Y-101992718D01*
X96192718Y-102178148D01*
X96033075Y-102386196D01*
X95901958Y-102613299D01*
X95901953Y-102613309D01*
X95801605Y-102855571D01*
X95801602Y-102855581D01*
X95733730Y-103108884D01*
X95732158Y-103120827D01*
X95699500Y-103368872D01*
X95699500Y-103631127D01*
X95712979Y-103733501D01*
X95733730Y-103891116D01*
X95801602Y-104144418D01*
X95801605Y-104144428D01*
X95901953Y-104386690D01*
X95901956Y-104386695D01*
X95975744Y-104514501D01*
X95992216Y-104582401D01*
X95969363Y-104648428D01*
X95914441Y-104691618D01*
X95868356Y-104700500D01*
X87501097Y-104700500D01*
X87434058Y-104680815D01*
X87413416Y-104664181D01*
X87097096Y-104347861D01*
X87063611Y-104286538D01*
X87068595Y-104216846D01*
X87070200Y-104212764D01*
X87111158Y-104113887D01*
X87170548Y-103892238D01*
X87200500Y-103664734D01*
X87200500Y-103435266D01*
X87170548Y-103207762D01*
X87111158Y-102986113D01*
X87057086Y-102855571D01*
X87023349Y-102774123D01*
X87023346Y-102774117D01*
X87023344Y-102774112D01*
X86908611Y-102575388D01*
X86908608Y-102575385D01*
X86908607Y-102575382D01*
X86768918Y-102393338D01*
X86768911Y-102393330D01*
X86606670Y-102231089D01*
X86606661Y-102231081D01*
X86424617Y-102091392D01*
X86225890Y-101976657D01*
X86225876Y-101976650D01*
X86013887Y-101888842D01*
X85792238Y-101829452D01*
X85754215Y-101824446D01*
X85564741Y-101799500D01*
X85564734Y-101799500D01*
X85335266Y-101799500D01*
X85335258Y-101799500D01*
X85118715Y-101828009D01*
X85107762Y-101829452D01*
X85014076Y-101854554D01*
X84886112Y-101888842D01*
X84674123Y-101976650D01*
X84674109Y-101976657D01*
X84475382Y-102091392D01*
X84293338Y-102231081D01*
X84131081Y-102393338D01*
X83991392Y-102575382D01*
X83876657Y-102774109D01*
X83876650Y-102774123D01*
X83788842Y-102986112D01*
X83729453Y-103207759D01*
X83729451Y-103207770D01*
X83699500Y-103435258D01*
X59750000Y-103435258D01*
X59750000Y-93381902D01*
X73229500Y-93381902D01*
X73229500Y-93618097D01*
X73266446Y-93851368D01*
X73339433Y-94075996D01*
X73388496Y-94172286D01*
X73446657Y-94286433D01*
X73585483Y-94477510D01*
X73752490Y-94644517D01*
X73943567Y-94783343D01*
X74042991Y-94834002D01*
X74154003Y-94890566D01*
X74154005Y-94890566D01*
X74154008Y-94890568D01*
X74274412Y-94929689D01*
X74378631Y-94963553D01*
X74611903Y-95000500D01*
X74611908Y-95000500D01*
X74848097Y-95000500D01*
X75081368Y-94963553D01*
X75305992Y-94890568D01*
X75516433Y-94783343D01*
X75707510Y-94644517D01*
X75874517Y-94477510D01*
X75899682Y-94442872D01*
X75955011Y-94400207D01*
X76024625Y-94394228D01*
X76086420Y-94426833D01*
X76100315Y-94442870D01*
X76125483Y-94477510D01*
X76292490Y-94644517D01*
X76483567Y-94783343D01*
X76582991Y-94834002D01*
X76694003Y-94890566D01*
X76694005Y-94890566D01*
X76694008Y-94890568D01*
X76814412Y-94929689D01*
X76918631Y-94963553D01*
X77151903Y-95000500D01*
X77151908Y-95000500D01*
X77388097Y-95000500D01*
X77621368Y-94963553D01*
X77845992Y-94890568D01*
X78056433Y-94783343D01*
X78247510Y-94644517D01*
X78414517Y-94477510D01*
X78553343Y-94286433D01*
X78660568Y-94075992D01*
X78733553Y-93851368D01*
X78739961Y-93810912D01*
X78770500Y-93618097D01*
X78770500Y-93381902D01*
X78741806Y-93200739D01*
X78739505Y-93186213D01*
X82499500Y-93186213D01*
X82499500Y-93398787D01*
X82532754Y-93608743D01*
X82535793Y-93618097D01*
X82598444Y-93810914D01*
X82694951Y-94000320D01*
X82819890Y-94172286D01*
X82970213Y-94322609D01*
X83142179Y-94447548D01*
X83142181Y-94447549D01*
X83142184Y-94447551D01*
X83331588Y-94544057D01*
X83533757Y-94609746D01*
X83743713Y-94643000D01*
X83743714Y-94643000D01*
X84256286Y-94643000D01*
X84256287Y-94643000D01*
X84466243Y-94609746D01*
X84668412Y-94544057D01*
X84857816Y-94447551D01*
X84922980Y-94400207D01*
X85029786Y-94322609D01*
X85029788Y-94322606D01*
X85029792Y-94322604D01*
X85180104Y-94172292D01*
X85180106Y-94172288D01*
X85180109Y-94172286D01*
X85305048Y-94000320D01*
X85305047Y-94000320D01*
X85305051Y-94000316D01*
X85401557Y-93810912D01*
X85467246Y-93608743D01*
X85500500Y-93398787D01*
X85500500Y-93186213D01*
X97499500Y-93186213D01*
X97499500Y-93398787D01*
X97532754Y-93608743D01*
X97535793Y-93618097D01*
X97598444Y-93810914D01*
X97694951Y-94000320D01*
X97819890Y-94172286D01*
X97970213Y-94322609D01*
X98142179Y-94447548D01*
X98142181Y-94447549D01*
X98142184Y-94447551D01*
X98331588Y-94544057D01*
X98533757Y-94609746D01*
X98743713Y-94643000D01*
X98743714Y-94643000D01*
X99256286Y-94643000D01*
X99256287Y-94643000D01*
X99466243Y-94609746D01*
X99668412Y-94544057D01*
X99857816Y-94447551D01*
X99922980Y-94400207D01*
X100029786Y-94322609D01*
X100029788Y-94322606D01*
X100029792Y-94322604D01*
X100180104Y-94172292D01*
X100180106Y-94172288D01*
X100180109Y-94172286D01*
X100305048Y-94000320D01*
X100305047Y-94000320D01*
X100305051Y-94000316D01*
X100401557Y-93810912D01*
X100467246Y-93608743D01*
X100500500Y-93398787D01*
X100500500Y-93186213D01*
X100467246Y-92976257D01*
X100401557Y-92774088D01*
X100305051Y-92584684D01*
X100305049Y-92584681D01*
X100305048Y-92584679D01*
X100180109Y-92412713D01*
X100029786Y-92262390D01*
X99857820Y-92137451D01*
X99668414Y-92040944D01*
X99668413Y-92040943D01*
X99668412Y-92040943D01*
X99466243Y-91975254D01*
X99466241Y-91975253D01*
X99466240Y-91975253D01*
X99304957Y-91949708D01*
X99256287Y-91942000D01*
X98743713Y-91942000D01*
X98695042Y-91949708D01*
X98533760Y-91975253D01*
X98331585Y-92040944D01*
X98142179Y-92137451D01*
X97970213Y-92262390D01*
X97819890Y-92412713D01*
X97694951Y-92584679D01*
X97598444Y-92774085D01*
X97532753Y-92976260D01*
X97505452Y-93148631D01*
X97499500Y-93186213D01*
X85500500Y-93186213D01*
X85467246Y-92976257D01*
X85401557Y-92774088D01*
X85305051Y-92584684D01*
X85305049Y-92584681D01*
X85305048Y-92584679D01*
X85180109Y-92412713D01*
X85029786Y-92262390D01*
X84857820Y-92137451D01*
X84668414Y-92040944D01*
X84668413Y-92040943D01*
X84668412Y-92040943D01*
X84466243Y-91975254D01*
X84466241Y-91975253D01*
X84466240Y-91975253D01*
X84304957Y-91949708D01*
X84256287Y-91942000D01*
X83743713Y-91942000D01*
X83695042Y-91949708D01*
X83533760Y-91975253D01*
X83331585Y-92040944D01*
X83142179Y-92137451D01*
X82970213Y-92262390D01*
X82819890Y-92412713D01*
X82694951Y-92584679D01*
X82598444Y-92774085D01*
X82532753Y-92976260D01*
X82505452Y-93148631D01*
X82499500Y-93186213D01*
X78739505Y-93186213D01*
X78733553Y-93148632D01*
X78660568Y-92924008D01*
X78660566Y-92924005D01*
X78660566Y-92924003D01*
X78553342Y-92713566D01*
X78539999Y-92695201D01*
X78414517Y-92522490D01*
X78247510Y-92355483D01*
X78056433Y-92216657D01*
X77845996Y-92109433D01*
X77621368Y-92036446D01*
X77388097Y-91999500D01*
X77388092Y-91999500D01*
X77151908Y-91999500D01*
X77151903Y-91999500D01*
X76918631Y-92036446D01*
X76694003Y-92109433D01*
X76483566Y-92216657D01*
X76374550Y-92295862D01*
X76292490Y-92355483D01*
X76292488Y-92355485D01*
X76292487Y-92355485D01*
X76125484Y-92522488D01*
X76100318Y-92557127D01*
X76044987Y-92599792D01*
X75975374Y-92605771D01*
X75913579Y-92573165D01*
X75899682Y-92557127D01*
X75874517Y-92522490D01*
X75707510Y-92355483D01*
X75516433Y-92216657D01*
X75305996Y-92109433D01*
X75081368Y-92036446D01*
X74848097Y-91999500D01*
X74848092Y-91999500D01*
X74611908Y-91999500D01*
X74611903Y-91999500D01*
X74378631Y-92036446D01*
X74154003Y-92109433D01*
X73943566Y-92216657D01*
X73834550Y-92295862D01*
X73752490Y-92355483D01*
X73752488Y-92355485D01*
X73752487Y-92355485D01*
X73585485Y-92522487D01*
X73585485Y-92522488D01*
X73585483Y-92522490D01*
X73540300Y-92584679D01*
X73446657Y-92713566D01*
X73339433Y-92924003D01*
X73266446Y-93148631D01*
X73229500Y-93381902D01*
X59750000Y-93381902D01*
X59750000Y-64106213D01*
X87499500Y-64106213D01*
X87499500Y-64318786D01*
X87532753Y-64528739D01*
X87598444Y-64730914D01*
X87694951Y-64920320D01*
X87819890Y-65092286D01*
X87970213Y-65242609D01*
X88142179Y-65367548D01*
X88142181Y-65367549D01*
X88142184Y-65367551D01*
X88331588Y-65464057D01*
X88533757Y-65529746D01*
X88743713Y-65563000D01*
X88743714Y-65563000D01*
X89256286Y-65563000D01*
X89256287Y-65563000D01*
X89466243Y-65529746D01*
X89668412Y-65464057D01*
X89857816Y-65367551D01*
X89879789Y-65351586D01*
X90029786Y-65242609D01*
X90029788Y-65242606D01*
X90029792Y-65242604D01*
X90180104Y-65092292D01*
X90180106Y-65092288D01*
X90180109Y-65092286D01*
X90305048Y-64920320D01*
X90305047Y-64920320D01*
X90305051Y-64920316D01*
X90401557Y-64730912D01*
X90467246Y-64528743D01*
X90500500Y-64318787D01*
X90500500Y-64106213D01*
X90467246Y-63896257D01*
X90401557Y-63694088D01*
X90334501Y-63562483D01*
X92499500Y-63562483D01*
X92499500Y-64862501D01*
X92499501Y-64862518D01*
X92510000Y-64965296D01*
X92510001Y-64965299D01*
X92552081Y-65092286D01*
X92565186Y-65131834D01*
X92657288Y-65281156D01*
X92781344Y-65405212D01*
X92930666Y-65497314D01*
X93097203Y-65552499D01*
X93199991Y-65563000D01*
X94800008Y-65562999D01*
X94902797Y-65552499D01*
X95069334Y-65497314D01*
X95218656Y-65405212D01*
X95342712Y-65281156D01*
X95434814Y-65131834D01*
X95489999Y-64965297D01*
X95500500Y-64862509D01*
X95500499Y-63562492D01*
X95489999Y-63459703D01*
X95434814Y-63293166D01*
X95342712Y-63143844D01*
X95218656Y-63019788D01*
X95069334Y-62927686D01*
X94902797Y-62872501D01*
X94902795Y-62872500D01*
X94800010Y-62862000D01*
X93199998Y-62862000D01*
X93199981Y-62862001D01*
X93097203Y-62872500D01*
X93097200Y-62872501D01*
X92930668Y-62927685D01*
X92930663Y-62927687D01*
X92781342Y-63019789D01*
X92657289Y-63143842D01*
X92565187Y-63293163D01*
X92565186Y-63293166D01*
X92510001Y-63459703D01*
X92510001Y-63459704D01*
X92510000Y-63459704D01*
X92499500Y-63562483D01*
X90334501Y-63562483D01*
X90305051Y-63504684D01*
X90305049Y-63504681D01*
X90305048Y-63504679D01*
X90180109Y-63332713D01*
X90029786Y-63182390D01*
X89857820Y-63057451D01*
X89668414Y-62960944D01*
X89668413Y-62960943D01*
X89668412Y-62960943D01*
X89466243Y-62895254D01*
X89466241Y-62895253D01*
X89466240Y-62895253D01*
X89304957Y-62869708D01*
X89256287Y-62862000D01*
X88743713Y-62862000D01*
X88695042Y-62869708D01*
X88533760Y-62895253D01*
X88331585Y-62960944D01*
X88142179Y-63057451D01*
X87970213Y-63182390D01*
X87819890Y-63332713D01*
X87694951Y-63504679D01*
X87598444Y-63694085D01*
X87532753Y-63896260D01*
X87499500Y-64106213D01*
X59750000Y-64106213D01*
X59750000Y-57468549D01*
X68109500Y-57468549D01*
X68109500Y-57691450D01*
X68109501Y-57691466D01*
X68138594Y-57912452D01*
X68138595Y-57912457D01*
X68138596Y-57912463D01*
X68138597Y-57912465D01*
X68196290Y-58127780D01*
X68196293Y-58127790D01*
X68281593Y-58333722D01*
X68281595Y-58333726D01*
X68393052Y-58526774D01*
X68393057Y-58526780D01*
X68393058Y-58526782D01*
X68528751Y-58703622D01*
X68528757Y-58703629D01*
X68686370Y-58861242D01*
X68686376Y-58861247D01*
X68863226Y-58996948D01*
X69056274Y-59108405D01*
X69262219Y-59193710D01*
X69477537Y-59251404D01*
X69698543Y-59280500D01*
X69698550Y-59280500D01*
X69921450Y-59280500D01*
X69921457Y-59280500D01*
X70142463Y-59251404D01*
X70357781Y-59193710D01*
X70563726Y-59108405D01*
X70756774Y-58996948D01*
X70933624Y-58861247D01*
X71091247Y-58703624D01*
X71226948Y-58526774D01*
X71338405Y-58333726D01*
X71423710Y-58127781D01*
X71481404Y-57912463D01*
X71510500Y-57691457D01*
X71510500Y-57468543D01*
X71481404Y-57247537D01*
X71423710Y-57032219D01*
X71338405Y-56826274D01*
X71226948Y-56633226D01*
X71147416Y-56529577D01*
X71091248Y-56456377D01*
X71091242Y-56456370D01*
X70933629Y-56298757D01*
X70933622Y-56298751D01*
X70756782Y-56163058D01*
X70756780Y-56163057D01*
X70756774Y-56163052D01*
X70563726Y-56051595D01*
X70563722Y-56051593D01*
X70357790Y-55966293D01*
X70357783Y-55966291D01*
X70357781Y-55966290D01*
X70142463Y-55908596D01*
X70142457Y-55908595D01*
X70142452Y-55908594D01*
X69921466Y-55879501D01*
X69921463Y-55879500D01*
X69921457Y-55879500D01*
X69698543Y-55879500D01*
X69698537Y-55879500D01*
X69698533Y-55879501D01*
X69477547Y-55908594D01*
X69477540Y-55908595D01*
X69477537Y-55908596D01*
X69262219Y-55966290D01*
X69262209Y-55966293D01*
X69056277Y-56051593D01*
X69056273Y-56051595D01*
X68863226Y-56163052D01*
X68863217Y-56163058D01*
X68686377Y-56298751D01*
X68686370Y-56298757D01*
X68528757Y-56456370D01*
X68528751Y-56456377D01*
X68393058Y-56633217D01*
X68393052Y-56633226D01*
X68281595Y-56826273D01*
X68281593Y-56826277D01*
X68196293Y-57032209D01*
X68196290Y-57032219D01*
X68138597Y-57247534D01*
X68138594Y-57247547D01*
X68109501Y-57468533D01*
X68109500Y-57468549D01*
X59750000Y-57468549D01*
X59750000Y-54342882D01*
X79649500Y-54342882D01*
X79649500Y-55657118D01*
X79652249Y-55703263D01*
X79652249Y-55703267D01*
X79652250Y-55703268D01*
X79695907Y-55903961D01*
X79695909Y-55903968D01*
X79769249Y-56075231D01*
X79776763Y-56092777D01*
X79776766Y-56092781D01*
X79891882Y-56262868D01*
X79891890Y-56262877D01*
X80037122Y-56408109D01*
X80037131Y-56408117D01*
X80139849Y-56477637D01*
X80207223Y-56523237D01*
X80207228Y-56523239D01*
X80396031Y-56604090D01*
X80396038Y-56604092D01*
X80462935Y-56618644D01*
X80596737Y-56647751D01*
X80642882Y-56650500D01*
X80642893Y-56650500D01*
X81957107Y-56650500D01*
X81957118Y-56650500D01*
X82003263Y-56647751D01*
X82178954Y-56609531D01*
X82203961Y-56604092D01*
X82203968Y-56604090D01*
X82266902Y-56577139D01*
X82392777Y-56523237D01*
X82534179Y-56427533D01*
X82562868Y-56408117D01*
X82562869Y-56408115D01*
X82562875Y-56408112D01*
X82708112Y-56262875D01*
X82710782Y-56258931D01*
X82727533Y-56234179D01*
X82823237Y-56092777D01*
X82879117Y-55962284D01*
X82904090Y-55903968D01*
X82904092Y-55903961D01*
X82909531Y-55878954D01*
X82947751Y-55703263D01*
X82950500Y-55657118D01*
X82950500Y-54342882D01*
X85449500Y-54342882D01*
X85449500Y-55657118D01*
X85452249Y-55703263D01*
X85452249Y-55703267D01*
X85452250Y-55703268D01*
X85495907Y-55903961D01*
X85495909Y-55903968D01*
X85569249Y-56075231D01*
X85576763Y-56092777D01*
X85576766Y-56092781D01*
X85691882Y-56262868D01*
X85691890Y-56262877D01*
X85837122Y-56408109D01*
X85837131Y-56408117D01*
X85939849Y-56477637D01*
X86007223Y-56523237D01*
X86007228Y-56523239D01*
X86196031Y-56604090D01*
X86196038Y-56604092D01*
X86262935Y-56618644D01*
X86396737Y-56647751D01*
X86442882Y-56650500D01*
X86442893Y-56650500D01*
X87757107Y-56650500D01*
X87757118Y-56650500D01*
X87803263Y-56647751D01*
X87978954Y-56609531D01*
X88003961Y-56604092D01*
X88003968Y-56604090D01*
X88066902Y-56577139D01*
X88192777Y-56523237D01*
X88334179Y-56427533D01*
X88362868Y-56408117D01*
X88362869Y-56408115D01*
X88362875Y-56408112D01*
X88508112Y-56262875D01*
X88510782Y-56258931D01*
X88527533Y-56234179D01*
X88623237Y-56092777D01*
X88679117Y-55962284D01*
X88704090Y-55903968D01*
X88704092Y-55903961D01*
X88709531Y-55878954D01*
X88747751Y-55703263D01*
X88750500Y-55657118D01*
X88750500Y-54870097D01*
X94349500Y-54870097D01*
X94349500Y-55129902D01*
X94390140Y-55386493D01*
X94470422Y-55633576D01*
X94529857Y-55750222D01*
X94578386Y-55845465D01*
X94588368Y-55865054D01*
X94616641Y-55903968D01*
X94741069Y-56075229D01*
X94924771Y-56258931D01*
X95134949Y-56411634D01*
X95222760Y-56456376D01*
X95366423Y-56529577D01*
X95366425Y-56529577D01*
X95366428Y-56529579D01*
X95613507Y-56609860D01*
X95745706Y-56630797D01*
X95870098Y-56650500D01*
X95870103Y-56650500D01*
X96129902Y-56650500D01*
X96243298Y-56632539D01*
X96386493Y-56609860D01*
X96633572Y-56529579D01*
X96865051Y-56411634D01*
X97075229Y-56258931D01*
X97258931Y-56075229D01*
X97411634Y-55865051D01*
X97529579Y-55633572D01*
X97609860Y-55386493D01*
X97646045Y-55158028D01*
X97650500Y-55129902D01*
X97650500Y-54870876D01*
X98149223Y-54870876D01*
X98149223Y-55028569D01*
X98179984Y-55183212D01*
X98179987Y-55183224D01*
X98240325Y-55328895D01*
X98240332Y-55328908D01*
X98327933Y-55460011D01*
X98327936Y-55460015D01*
X98439430Y-55571509D01*
X98439434Y-55571512D01*
X98570537Y-55659113D01*
X98570550Y-55659120D01*
X98716221Y-55719458D01*
X98716226Y-55719460D01*
X98870876Y-55750222D01*
X98870879Y-55750223D01*
X98870881Y-55750223D01*
X99028567Y-55750223D01*
X99028568Y-55750222D01*
X99183220Y-55719460D01*
X99303895Y-55669475D01*
X99328895Y-55659120D01*
X99328895Y-55659119D01*
X99328902Y-55659117D01*
X99328907Y-55659113D01*
X99328910Y-55659112D01*
X99385351Y-55621399D01*
X99452028Y-55600520D01*
X99454243Y-55600500D01*
X100177583Y-55600500D01*
X100244622Y-55620185D01*
X100288066Y-55668203D01*
X100378387Y-55845466D01*
X100388368Y-55865054D01*
X100416641Y-55903968D01*
X100541069Y-56075229D01*
X100724771Y-56258931D01*
X100934949Y-56411634D01*
X101022760Y-56456376D01*
X101166423Y-56529577D01*
X101166425Y-56529577D01*
X101166428Y-56529579D01*
X101413507Y-56609860D01*
X101545706Y-56630797D01*
X101670098Y-56650500D01*
X101670103Y-56650500D01*
X101929902Y-56650500D01*
X102043298Y-56632539D01*
X102186493Y-56609860D01*
X102433572Y-56529579D01*
X102665051Y-56411634D01*
X102875229Y-56258931D01*
X103058931Y-56075229D01*
X103211634Y-55865051D01*
X103329579Y-55633572D01*
X103409860Y-55386493D01*
X103446045Y-55158028D01*
X103450500Y-55129902D01*
X103450500Y-54870096D01*
X103433407Y-54762173D01*
X103431106Y-54747648D01*
X104199500Y-54747648D01*
X104199500Y-54952351D01*
X104231522Y-55154534D01*
X104294781Y-55349223D01*
X104351231Y-55460011D01*
X104386798Y-55529815D01*
X104387715Y-55531613D01*
X104508028Y-55697213D01*
X104652786Y-55841971D01*
X104744491Y-55908597D01*
X104818390Y-55962287D01*
X104934607Y-56021503D01*
X105000776Y-56055218D01*
X105000778Y-56055218D01*
X105000781Y-56055220D01*
X105062369Y-56075231D01*
X105195465Y-56118477D01*
X105296557Y-56134488D01*
X105397648Y-56150500D01*
X105397649Y-56150500D01*
X105602351Y-56150500D01*
X105602352Y-56150500D01*
X105804534Y-56118477D01*
X105999219Y-56055220D01*
X106181610Y-55962287D01*
X106295556Y-55879501D01*
X106347213Y-55841971D01*
X106347215Y-55841968D01*
X106347219Y-55841966D01*
X106491966Y-55697219D01*
X106491968Y-55697215D01*
X106491971Y-55697213D01*
X106560424Y-55602994D01*
X106612287Y-55531610D01*
X106705220Y-55349219D01*
X106768477Y-55154534D01*
X106800500Y-54952352D01*
X106800500Y-54747648D01*
X106768477Y-54545466D01*
X106705220Y-54350781D01*
X106705218Y-54350778D01*
X106705218Y-54350776D01*
X106648943Y-54240332D01*
X106612287Y-54168390D01*
X106604556Y-54157749D01*
X106491971Y-54002786D01*
X106347213Y-53858028D01*
X106181613Y-53737715D01*
X106181612Y-53737714D01*
X106181610Y-53737713D01*
X106124653Y-53708691D01*
X105999223Y-53644781D01*
X105804534Y-53581522D01*
X105629995Y-53553878D01*
X105602352Y-53549500D01*
X105397648Y-53549500D01*
X105373329Y-53553351D01*
X105195465Y-53581522D01*
X105000776Y-53644781D01*
X104818386Y-53737715D01*
X104652786Y-53858028D01*
X104508028Y-54002786D01*
X104387715Y-54168386D01*
X104294781Y-54350776D01*
X104231522Y-54545465D01*
X104199500Y-54747648D01*
X103431106Y-54747648D01*
X103409860Y-54613506D01*
X103353299Y-54439430D01*
X103329579Y-54366428D01*
X103329577Y-54366425D01*
X103329577Y-54366423D01*
X103286787Y-54282445D01*
X103211634Y-54134949D01*
X103058931Y-53924771D01*
X102875229Y-53741069D01*
X102869801Y-53737125D01*
X102665054Y-53588368D01*
X102665053Y-53588367D01*
X102665051Y-53588366D01*
X102588773Y-53549500D01*
X102433576Y-53470422D01*
X102186493Y-53390140D01*
X101929902Y-53349500D01*
X101929897Y-53349500D01*
X101670103Y-53349500D01*
X101670098Y-53349500D01*
X101413506Y-53390140D01*
X101166423Y-53470422D01*
X100934945Y-53588368D01*
X100724774Y-53741066D01*
X100724768Y-53741071D01*
X100541071Y-53924768D01*
X100541066Y-53924774D01*
X100388368Y-54134945D01*
X100388366Y-54134949D01*
X100288066Y-54331796D01*
X100240093Y-54382591D01*
X100177583Y-54399500D01*
X99582940Y-54399500D01*
X99515901Y-54379815D01*
X99495258Y-54363180D01*
X99460015Y-54327936D01*
X99460011Y-54327933D01*
X99328908Y-54240332D01*
X99328895Y-54240325D01*
X99183224Y-54179987D01*
X99183212Y-54179984D01*
X99028568Y-54149223D01*
X99028565Y-54149223D01*
X98870881Y-54149223D01*
X98870878Y-54149223D01*
X98716233Y-54179984D01*
X98716221Y-54179987D01*
X98570550Y-54240325D01*
X98570537Y-54240332D01*
X98439434Y-54327933D01*
X98439430Y-54327936D01*
X98327936Y-54439430D01*
X98327933Y-54439434D01*
X98240332Y-54570537D01*
X98240325Y-54570550D01*
X98179987Y-54716221D01*
X98179984Y-54716233D01*
X98149223Y-54870876D01*
X97650500Y-54870876D01*
X97650500Y-54870107D01*
X97650498Y-54870088D01*
X97626130Y-54716233D01*
X97609860Y-54613507D01*
X97529579Y-54366428D01*
X97529577Y-54366425D01*
X97529577Y-54366423D01*
X97486787Y-54282445D01*
X97411634Y-54134949D01*
X97258931Y-53924771D01*
X97075229Y-53741069D01*
X97069801Y-53737125D01*
X96865054Y-53588368D01*
X96865053Y-53588367D01*
X96865051Y-53588366D01*
X96788773Y-53549500D01*
X96633576Y-53470422D01*
X96386493Y-53390140D01*
X96129902Y-53349500D01*
X96129897Y-53349500D01*
X95870103Y-53349500D01*
X95870098Y-53349500D01*
X95613506Y-53390140D01*
X95366423Y-53470422D01*
X95134945Y-53588368D01*
X94924774Y-53741066D01*
X94924768Y-53741071D01*
X94741071Y-53924768D01*
X94741066Y-53924774D01*
X94588368Y-54134945D01*
X94470422Y-54366423D01*
X94390140Y-54613506D01*
X94349500Y-54870097D01*
X88750500Y-54870097D01*
X88750500Y-54342882D01*
X88747751Y-54296737D01*
X88712527Y-54134813D01*
X88704092Y-54096038D01*
X88704090Y-54096031D01*
X88623239Y-53907228D01*
X88623237Y-53907223D01*
X88529914Y-53769337D01*
X88508117Y-53737131D01*
X88508109Y-53737122D01*
X88362877Y-53591890D01*
X88362868Y-53591882D01*
X88192781Y-53476766D01*
X88192777Y-53476763D01*
X88192773Y-53476761D01*
X88192771Y-53476760D01*
X88003968Y-53395909D01*
X88003961Y-53395907D01*
X87803268Y-53352250D01*
X87803267Y-53352249D01*
X87803263Y-53352249D01*
X87757118Y-53349500D01*
X86442882Y-53349500D01*
X86396737Y-53352249D01*
X86396732Y-53352249D01*
X86396731Y-53352250D01*
X86196038Y-53395907D01*
X86196031Y-53395909D01*
X86007228Y-53476760D01*
X86007218Y-53476766D01*
X85837131Y-53591882D01*
X85837122Y-53591890D01*
X85691890Y-53737122D01*
X85691882Y-53737131D01*
X85576766Y-53907218D01*
X85576760Y-53907228D01*
X85495909Y-54096031D01*
X85495907Y-54096038D01*
X85464519Y-54240332D01*
X85452249Y-54296737D01*
X85449500Y-54342882D01*
X82950500Y-54342882D01*
X82947751Y-54296737D01*
X82912527Y-54134813D01*
X82904092Y-54096038D01*
X82904090Y-54096031D01*
X82823239Y-53907228D01*
X82823237Y-53907223D01*
X82729914Y-53769337D01*
X82708117Y-53737131D01*
X82708109Y-53737122D01*
X82562877Y-53591890D01*
X82562868Y-53591882D01*
X82392781Y-53476766D01*
X82392777Y-53476763D01*
X82392773Y-53476761D01*
X82392771Y-53476760D01*
X82203968Y-53395909D01*
X82203961Y-53395907D01*
X82003268Y-53352250D01*
X82003267Y-53352249D01*
X82003263Y-53352249D01*
X81957118Y-53349500D01*
X80642882Y-53349500D01*
X80596737Y-53352249D01*
X80596732Y-53352249D01*
X80596731Y-53352250D01*
X80396038Y-53395907D01*
X80396031Y-53395909D01*
X80207228Y-53476760D01*
X80207218Y-53476766D01*
X80037131Y-53591882D01*
X80037122Y-53591890D01*
X79891890Y-53737122D01*
X79891882Y-53737131D01*
X79776766Y-53907218D01*
X79776760Y-53907228D01*
X79695909Y-54096031D01*
X79695907Y-54096038D01*
X79664519Y-54240332D01*
X79652249Y-54296737D01*
X79649500Y-54342882D01*
X59750000Y-54342882D01*
X59750000Y-51499984D01*
X68109500Y-51499984D01*
X68109500Y-53500015D01*
X68120000Y-53602795D01*
X68120001Y-53602796D01*
X68175186Y-53769335D01*
X68175187Y-53769337D01*
X68267286Y-53918651D01*
X68267289Y-53918655D01*
X68391344Y-54042710D01*
X68391348Y-54042713D01*
X68540662Y-54134812D01*
X68540664Y-54134813D01*
X68540666Y-54134814D01*
X68707203Y-54189999D01*
X68809992Y-54200500D01*
X68809997Y-54200500D01*
X70810003Y-54200500D01*
X70810008Y-54200500D01*
X70912797Y-54189999D01*
X71079334Y-54134814D01*
X71228655Y-54042711D01*
X71352711Y-53918655D01*
X71444814Y-53769334D01*
X71499999Y-53602797D01*
X71510500Y-53500008D01*
X71510500Y-51499992D01*
X71499999Y-51397203D01*
X71444814Y-51230666D01*
X71352711Y-51081345D01*
X71228655Y-50957289D01*
X71228651Y-50957286D01*
X71079337Y-50865187D01*
X71079335Y-50865186D01*
X70996065Y-50837593D01*
X70912797Y-50810001D01*
X70912795Y-50810000D01*
X70810015Y-50799500D01*
X70810008Y-50799500D01*
X68809992Y-50799500D01*
X68809984Y-50799500D01*
X68707204Y-50810000D01*
X68707203Y-50810001D01*
X68540664Y-50865186D01*
X68540662Y-50865187D01*
X68391348Y-50957286D01*
X68391344Y-50957289D01*
X68267289Y-51081344D01*
X68267286Y-51081348D01*
X68175187Y-51230662D01*
X68175186Y-51230664D01*
X68120001Y-51397203D01*
X68120000Y-51397204D01*
X68109500Y-51499984D01*
X59750000Y-51499984D01*
X59750000Y-45124000D01*
X59769685Y-45056961D01*
X59822489Y-45011206D01*
X59874000Y-45000000D01*
X130376539Y-45000000D01*
X130443578Y-45019685D01*
G37*
%TD.AperFunction*%
%TA.AperFunction,Conductor*%
%TO.N,GNDPWR*%
G36*
X131339200Y-74488937D02*
G01*
X131346087Y-74495322D01*
X159538584Y-102687819D01*
X159572069Y-102749142D01*
X159567085Y-102818834D01*
X159525213Y-102874767D01*
X159459749Y-102899184D01*
X159450903Y-102899500D01*
X155480766Y-102899500D01*
X155413727Y-102879815D01*
X155411875Y-102878602D01*
X155280185Y-102790609D01*
X155280172Y-102790602D01*
X155134501Y-102730264D01*
X155134489Y-102730261D01*
X154979845Y-102699500D01*
X154979842Y-102699500D01*
X154822158Y-102699500D01*
X154822155Y-102699500D01*
X154667510Y-102730261D01*
X154667498Y-102730264D01*
X154521827Y-102790602D01*
X154521814Y-102790609D01*
X154390711Y-102878210D01*
X154390707Y-102878213D01*
X154279213Y-102989707D01*
X154279210Y-102989711D01*
X154191609Y-103120814D01*
X154191602Y-103120827D01*
X154131264Y-103266498D01*
X154131261Y-103266510D01*
X154100500Y-103421153D01*
X154100500Y-103578846D01*
X154131261Y-103733489D01*
X154131264Y-103733501D01*
X154191602Y-103879172D01*
X154191609Y-103879185D01*
X154279210Y-104010288D01*
X154279213Y-104010292D01*
X154390707Y-104121786D01*
X154390711Y-104121789D01*
X154521814Y-104209390D01*
X154521827Y-104209397D01*
X154667498Y-104269735D01*
X154667503Y-104269737D01*
X154822153Y-104300499D01*
X154822156Y-104300500D01*
X154822158Y-104300500D01*
X154979844Y-104300500D01*
X154979845Y-104300499D01*
X155134497Y-104269737D01*
X155280179Y-104209394D01*
X155280185Y-104209390D01*
X155411875Y-104121398D01*
X155478553Y-104100520D01*
X155480766Y-104100500D01*
X159998287Y-104100500D01*
X160065326Y-104120185D01*
X160085968Y-104136819D01*
X160546803Y-104597654D01*
X160580288Y-104658977D01*
X160580739Y-104661143D01*
X160611639Y-104816485D01*
X160611642Y-104816495D01*
X160640746Y-104886758D01*
X160641150Y-104890519D01*
X160643346Y-104893600D01*
X160644855Y-104924979D01*
X160648215Y-104956227D01*
X160646574Y-104960710D01*
X160646703Y-104963389D01*
X160633600Y-104996161D01*
X160632734Y-104997663D01*
X160612078Y-105033439D01*
X160591423Y-105069214D01*
X160591423Y-105069215D01*
X160550499Y-105221943D01*
X160550499Y-105221945D01*
X160550499Y-105390046D01*
X160550500Y-105390059D01*
X160550500Y-107778902D01*
X160530815Y-107845941D01*
X160514181Y-107866583D01*
X158303563Y-110077200D01*
X158242240Y-110110685D01*
X158177564Y-110107450D01*
X158051370Y-110066447D01*
X157818097Y-110029500D01*
X157818092Y-110029500D01*
X157581908Y-110029500D01*
X157581903Y-110029500D01*
X157348631Y-110066446D01*
X157124003Y-110139433D01*
X156913566Y-110246657D01*
X156804550Y-110325862D01*
X156722490Y-110385483D01*
X156722488Y-110385485D01*
X156722487Y-110385485D01*
X156555485Y-110552487D01*
X156555485Y-110552488D01*
X156555483Y-110552490D01*
X156495862Y-110634550D01*
X156416657Y-110743566D01*
X156309433Y-110954003D01*
X156236446Y-111178631D01*
X156199500Y-111411902D01*
X156199500Y-111648097D01*
X156236446Y-111881368D01*
X156309433Y-112105996D01*
X156416657Y-112316433D01*
X156555483Y-112507510D01*
X156722490Y-112674517D01*
X156757127Y-112699683D01*
X156799792Y-112755013D01*
X156805771Y-112824626D01*
X156773165Y-112886421D01*
X156757130Y-112900315D01*
X156739365Y-112913222D01*
X156722488Y-112925484D01*
X156555485Y-113092487D01*
X156555485Y-113092488D01*
X156555483Y-113092490D01*
X156495862Y-113174550D01*
X156416657Y-113283566D01*
X156309433Y-113494003D01*
X156236446Y-113718631D01*
X156199500Y-113951902D01*
X156199500Y-114188097D01*
X156236446Y-114421364D01*
X156236446Y-114421365D01*
X156277450Y-114547563D01*
X156279445Y-114617405D01*
X156247200Y-114673562D01*
X138557584Y-132363181D01*
X138496261Y-132396666D01*
X138469903Y-132399500D01*
X131509791Y-132399500D01*
X131442752Y-132379815D01*
X131396997Y-132327011D01*
X131385792Y-132276040D01*
X131374401Y-129661668D01*
X131356609Y-125578592D01*
X131376001Y-125511470D01*
X131428606Y-125465485D01*
X131480608Y-125454054D01*
X141273788Y-125454054D01*
X141340827Y-125473739D01*
X141342679Y-125474952D01*
X141474368Y-125562944D01*
X141474381Y-125562951D01*
X141537910Y-125589265D01*
X141620057Y-125623291D01*
X141735424Y-125646239D01*
X141774707Y-125654053D01*
X141774710Y-125654054D01*
X141774712Y-125654054D01*
X141932398Y-125654054D01*
X141932399Y-125654053D01*
X142087051Y-125623291D01*
X142232733Y-125562948D01*
X142363843Y-125475343D01*
X142475343Y-125363843D01*
X142562948Y-125232733D01*
X142623291Y-125087051D01*
X142654054Y-124932396D01*
X142654054Y-124774712D01*
X142654054Y-124774709D01*
X142654053Y-124774707D01*
X142623292Y-124620064D01*
X142623291Y-124620057D01*
X142623289Y-124620052D01*
X142562951Y-124474381D01*
X142562944Y-124474368D01*
X142475343Y-124343265D01*
X142475340Y-124343261D01*
X142363846Y-124231767D01*
X142363842Y-124231764D01*
X142232739Y-124144163D01*
X142232726Y-124144156D01*
X142087055Y-124083818D01*
X142087043Y-124083815D01*
X141932399Y-124053054D01*
X141932396Y-124053054D01*
X141774712Y-124053054D01*
X141774709Y-124053054D01*
X141620064Y-124083815D01*
X141620052Y-124083818D01*
X141474381Y-124144156D01*
X141474368Y-124144163D01*
X141342679Y-124232156D01*
X141276001Y-124253034D01*
X141273788Y-124253054D01*
X131474294Y-124253054D01*
X131407255Y-124233369D01*
X131361500Y-124180565D01*
X131350295Y-124129594D01*
X131350014Y-124065029D01*
X131327835Y-118975038D01*
X131330422Y-118966081D01*
X131329096Y-118956853D01*
X131339964Y-118933053D01*
X131347227Y-118907916D01*
X131354247Y-118901779D01*
X131358121Y-118893297D01*
X131380133Y-118879150D01*
X131399832Y-118861931D01*
X131410616Y-118859560D01*
X131416899Y-118855523D01*
X131451834Y-118850500D01*
X131663331Y-118850500D01*
X131663347Y-118850501D01*
X131670943Y-118850501D01*
X131829054Y-118850501D01*
X131829057Y-118850501D01*
X131981785Y-118809577D01*
X131981786Y-118809575D01*
X131989635Y-118807473D01*
X131989820Y-118808165D01*
X132028364Y-118800500D01*
X132078844Y-118800500D01*
X132078845Y-118800499D01*
X132233497Y-118769737D01*
X132379179Y-118709394D01*
X132510289Y-118621789D01*
X132621789Y-118510289D01*
X132709394Y-118379179D01*
X132769737Y-118233497D01*
X132800500Y-118078842D01*
X132800500Y-117921158D01*
X132800500Y-117921155D01*
X132800499Y-117921153D01*
X132769738Y-117766510D01*
X132769737Y-117766503D01*
X132769735Y-117766498D01*
X132709397Y-117620827D01*
X132709390Y-117620814D01*
X132621789Y-117489711D01*
X132621786Y-117489707D01*
X132510292Y-117378213D01*
X132510288Y-117378210D01*
X132379185Y-117290609D01*
X132379172Y-117290602D01*
X132233501Y-117230264D01*
X132233489Y-117230261D01*
X132078845Y-117199500D01*
X132078842Y-117199500D01*
X131921158Y-117199500D01*
X131921155Y-117199500D01*
X131766510Y-117230261D01*
X131766498Y-117230264D01*
X131620827Y-117290602D01*
X131620809Y-117290612D01*
X131513251Y-117362480D01*
X131446574Y-117383358D01*
X131379194Y-117364873D01*
X131332504Y-117312894D01*
X131320362Y-117259921D01*
X131285129Y-109174038D01*
X131304521Y-109106916D01*
X131357126Y-109060931D01*
X131409128Y-109049500D01*
X138398903Y-109049500D01*
X138465942Y-109069185D01*
X138486584Y-109085819D01*
X147665425Y-118264660D01*
X147698910Y-118325983D01*
X147699361Y-118328149D01*
X147730261Y-118483491D01*
X147730264Y-118483501D01*
X147790602Y-118629172D01*
X147790609Y-118629185D01*
X147878210Y-118760288D01*
X147878213Y-118760292D01*
X147989707Y-118871786D01*
X147989711Y-118871789D01*
X148120814Y-118959390D01*
X148120827Y-118959397D01*
X148266498Y-119019735D01*
X148266503Y-119019737D01*
X148421153Y-119050499D01*
X148421156Y-119050500D01*
X148421158Y-119050500D01*
X148578844Y-119050500D01*
X148578845Y-119050499D01*
X148733497Y-119019737D01*
X148879179Y-118959394D01*
X149010289Y-118871789D01*
X149121789Y-118760289D01*
X149209394Y-118629179D01*
X149269737Y-118483497D01*
X149300500Y-118328842D01*
X149300500Y-118171158D01*
X149300500Y-118171155D01*
X149300499Y-118171153D01*
X149269738Y-118016510D01*
X149269737Y-118016503D01*
X149230242Y-117921153D01*
X149209397Y-117870827D01*
X149209390Y-117870814D01*
X149121789Y-117739711D01*
X149121786Y-117739707D01*
X149010292Y-117628213D01*
X149010288Y-117628210D01*
X148879185Y-117540609D01*
X148879172Y-117540602D01*
X148733501Y-117480264D01*
X148733491Y-117480261D01*
X148578149Y-117449361D01*
X148516238Y-117416976D01*
X148514660Y-117415425D01*
X139186590Y-108087355D01*
X139186588Y-108087352D01*
X139067717Y-107968481D01*
X139067716Y-107968480D01*
X138980904Y-107918360D01*
X138980904Y-107918359D01*
X138980900Y-107918358D01*
X138930785Y-107889423D01*
X138778057Y-107848499D01*
X138619943Y-107848499D01*
X138612347Y-107848499D01*
X138612331Y-107848500D01*
X131402815Y-107848500D01*
X131335776Y-107828815D01*
X131290021Y-107776011D01*
X131278816Y-107725040D01*
X131278489Y-107650000D01*
X131134407Y-74583541D01*
X131153799Y-74516419D01*
X131206404Y-74470434D01*
X131275518Y-74460189D01*
X131339200Y-74488937D01*
G37*
%TD.AperFunction*%
%TA.AperFunction,Conductor*%
G36*
X229942539Y-32020185D02*
G01*
X229988294Y-32072989D01*
X229999500Y-32124500D01*
X229999500Y-92156000D01*
X229979815Y-92223039D01*
X229927011Y-92268794D01*
X229875500Y-92280000D01*
X222800000Y-92280000D01*
X222800000Y-108520000D01*
X229875500Y-108520000D01*
X229942539Y-108539685D01*
X229988294Y-108592489D01*
X229999500Y-108644000D01*
X229999500Y-161875500D01*
X229979815Y-161942539D01*
X229927011Y-161988294D01*
X229875500Y-161999500D01*
X50124500Y-161999500D01*
X50057461Y-161979815D01*
X50011706Y-161927011D01*
X50000500Y-161875500D01*
X50000500Y-154378711D01*
X58649500Y-154378711D01*
X58649500Y-154621288D01*
X58681161Y-154861785D01*
X58743947Y-155096104D01*
X58836773Y-155320205D01*
X58836776Y-155320212D01*
X58958064Y-155530289D01*
X58958066Y-155530292D01*
X58958067Y-155530293D01*
X59105733Y-155722736D01*
X59105739Y-155722743D01*
X59277260Y-155894264D01*
X59296644Y-155909137D01*
X59337847Y-155965564D01*
X59342003Y-156035310D01*
X59333953Y-156059026D01*
X59284664Y-156166950D01*
X59264976Y-156233998D01*
X59244500Y-156376417D01*
X59244500Y-159376437D01*
X59255864Y-159483025D01*
X59266889Y-159534135D01*
X59289277Y-159601993D01*
X59300471Y-159635921D01*
X59377832Y-159757234D01*
X59420696Y-159807055D01*
X59422089Y-159808788D01*
X59423406Y-159810206D01*
X59531811Y-159904807D01*
X59531814Y-159904808D01*
X59531815Y-159904809D01*
X59662483Y-159965036D01*
X59662484Y-159965036D01*
X59662488Y-159965038D01*
X59729446Y-159984953D01*
X59729453Y-159984955D01*
X59729457Y-159984955D01*
X59729463Y-159984957D01*
X59871791Y-160005930D01*
X130873233Y-160255058D01*
X130873233Y-160255057D01*
X130873247Y-160255058D01*
X130982680Y-160243464D01*
X131035117Y-160232034D01*
X131139450Y-160197031D01*
X131260150Y-160118718D01*
X131312755Y-160072733D01*
X131312757Y-160072731D01*
X131406504Y-159963584D01*
X131465703Y-159832446D01*
X131485095Y-159765322D01*
X131504950Y-159622819D01*
X131482100Y-154378711D01*
X211149500Y-154378711D01*
X211149500Y-154621288D01*
X211181161Y-154861785D01*
X211243947Y-155096104D01*
X211336773Y-155320205D01*
X211336776Y-155320212D01*
X211458064Y-155530289D01*
X211458066Y-155530292D01*
X211458067Y-155530293D01*
X211605733Y-155722736D01*
X211605739Y-155722743D01*
X211777256Y-155894260D01*
X211777263Y-155894266D01*
X211870181Y-155965564D01*
X211969711Y-156041936D01*
X212179788Y-156163224D01*
X212403900Y-156256054D01*
X212638211Y-156318838D01*
X212818586Y-156342584D01*
X212878711Y-156350500D01*
X212878712Y-156350500D01*
X213121289Y-156350500D01*
X213169388Y-156344167D01*
X213361789Y-156318838D01*
X213596100Y-156256054D01*
X213820212Y-156163224D01*
X214030289Y-156041936D01*
X214222738Y-155894265D01*
X214394265Y-155722738D01*
X214541936Y-155530289D01*
X214663224Y-155320212D01*
X214756054Y-155096100D01*
X214818838Y-154861789D01*
X214850500Y-154621288D01*
X214850500Y-154378712D01*
X214818838Y-154138211D01*
X214756054Y-153903900D01*
X214663224Y-153679788D01*
X214541936Y-153469711D01*
X214394265Y-153277262D01*
X214394260Y-153277256D01*
X214222743Y-153105739D01*
X214222736Y-153105733D01*
X214030293Y-152958067D01*
X214030292Y-152958066D01*
X214030289Y-152958064D01*
X213821104Y-152837291D01*
X213820214Y-152836777D01*
X213820205Y-152836773D01*
X213596104Y-152743947D01*
X213361785Y-152681161D01*
X213121289Y-152649500D01*
X213121288Y-152649500D01*
X212878712Y-152649500D01*
X212878711Y-152649500D01*
X212638214Y-152681161D01*
X212403895Y-152743947D01*
X212179794Y-152836773D01*
X212179785Y-152836777D01*
X211969706Y-152958067D01*
X211777263Y-153105733D01*
X211777256Y-153105739D01*
X211605739Y-153277256D01*
X211605733Y-153277263D01*
X211458067Y-153469706D01*
X211336777Y-153679785D01*
X211336773Y-153679794D01*
X211243947Y-153903895D01*
X211181161Y-154138214D01*
X211149500Y-154378711D01*
X131482100Y-154378711D01*
X131478139Y-153469711D01*
X131427149Y-141767278D01*
X131392105Y-133725038D01*
X131411497Y-133657916D01*
X131464102Y-133611931D01*
X131516104Y-133600500D01*
X138683331Y-133600500D01*
X138683347Y-133600501D01*
X138690943Y-133600501D01*
X138849054Y-133600501D01*
X138849057Y-133600501D01*
X139001785Y-133559577D01*
X139051904Y-133530639D01*
X139138716Y-133480520D01*
X139250520Y-133368716D01*
X139250520Y-133368714D01*
X139260728Y-133358507D01*
X139260729Y-133358504D01*
X147198080Y-125421153D01*
X222699500Y-125421153D01*
X222699500Y-125578846D01*
X222730261Y-125733489D01*
X222730264Y-125733501D01*
X222790602Y-125879172D01*
X222790609Y-125879185D01*
X222878210Y-126010288D01*
X222878213Y-126010292D01*
X222989707Y-126121786D01*
X222989711Y-126121789D01*
X223120814Y-126209390D01*
X223120827Y-126209397D01*
X223266498Y-126269735D01*
X223266503Y-126269737D01*
X223421153Y-126300499D01*
X223421156Y-126300500D01*
X223421158Y-126300500D01*
X223578844Y-126300500D01*
X223578845Y-126300499D01*
X223733497Y-126269737D01*
X223879179Y-126209394D01*
X224010289Y-126121789D01*
X224121789Y-126010289D01*
X224138280Y-125985609D01*
X224191892Y-125940804D01*
X224241382Y-125930500D01*
X225964281Y-125930500D01*
X226031320Y-125950185D01*
X226074765Y-125998205D01*
X226094947Y-126037814D01*
X226094948Y-126037815D01*
X226219890Y-126209786D01*
X226370213Y-126360109D01*
X226542182Y-126485050D01*
X226550946Y-126489516D01*
X226601742Y-126537491D01*
X226618536Y-126605312D01*
X226595998Y-126671447D01*
X226550946Y-126710484D01*
X226542182Y-126714949D01*
X226370213Y-126839890D01*
X226219890Y-126990213D01*
X226094948Y-127162184D01*
X226094947Y-127162185D01*
X226074765Y-127201795D01*
X226026791Y-127252591D01*
X225964281Y-127269500D01*
X223852889Y-127269500D01*
X223805437Y-127260061D01*
X223733501Y-127230264D01*
X223733489Y-127230261D01*
X223578845Y-127199500D01*
X223578842Y-127199500D01*
X223421158Y-127199500D01*
X223421155Y-127199500D01*
X223266510Y-127230261D01*
X223266498Y-127230264D01*
X223120827Y-127290602D01*
X223120814Y-127290609D01*
X222989711Y-127378210D01*
X222989707Y-127378213D01*
X222878213Y-127489707D01*
X222878210Y-127489711D01*
X222790609Y-127620814D01*
X222790602Y-127620827D01*
X222730264Y-127766498D01*
X222730261Y-127766510D01*
X222699500Y-127921153D01*
X222699500Y-128078846D01*
X222730261Y-128233489D01*
X222730264Y-128233501D01*
X222790602Y-128379172D01*
X222790609Y-128379185D01*
X222878210Y-128510288D01*
X222878213Y-128510292D01*
X222989707Y-128621786D01*
X222989711Y-128621789D01*
X223120814Y-128709390D01*
X223120827Y-128709397D01*
X223218351Y-128749792D01*
X223266503Y-128769737D01*
X223421153Y-128800499D01*
X223421156Y-128800500D01*
X223421158Y-128800500D01*
X223578844Y-128800500D01*
X223578845Y-128800499D01*
X223733497Y-128769737D01*
X223879179Y-128709394D01*
X224010289Y-128621789D01*
X224054264Y-128577814D01*
X224125260Y-128506819D01*
X224186583Y-128473334D01*
X224212941Y-128470500D01*
X225964281Y-128470500D01*
X226031320Y-128490185D01*
X226074765Y-128538205D01*
X226094947Y-128577814D01*
X226094948Y-128577815D01*
X226219890Y-128749786D01*
X226370213Y-128900109D01*
X226542179Y-129025048D01*
X226542181Y-129025049D01*
X226542184Y-129025051D01*
X226731588Y-129121557D01*
X226933757Y-129187246D01*
X227143713Y-129220500D01*
X227143714Y-129220500D01*
X227356286Y-129220500D01*
X227356287Y-129220500D01*
X227566243Y-129187246D01*
X227768412Y-129121557D01*
X227957816Y-129025051D01*
X227979789Y-129009086D01*
X228129786Y-128900109D01*
X228129788Y-128900106D01*
X228129792Y-128900104D01*
X228280104Y-128749792D01*
X228280106Y-128749788D01*
X228280109Y-128749786D01*
X228405048Y-128577820D01*
X228405047Y-128577820D01*
X228405051Y-128577816D01*
X228501557Y-128388412D01*
X228567246Y-128186243D01*
X228600500Y-127976287D01*
X228600500Y-127763713D01*
X228567246Y-127553757D01*
X228501557Y-127351588D01*
X228405051Y-127162184D01*
X228405049Y-127162181D01*
X228405048Y-127162179D01*
X228280109Y-126990213D01*
X228129786Y-126839890D01*
X227957820Y-126714951D01*
X227957115Y-126714591D01*
X227949054Y-126710485D01*
X227898259Y-126662512D01*
X227881463Y-126594692D01*
X227903999Y-126528556D01*
X227949054Y-126489515D01*
X227957816Y-126485051D01*
X227979789Y-126469086D01*
X228129786Y-126360109D01*
X228129788Y-126360106D01*
X228129792Y-126360104D01*
X228280104Y-126209792D01*
X228280106Y-126209788D01*
X228280109Y-126209786D01*
X228405048Y-126037820D01*
X228405047Y-126037820D01*
X228405051Y-126037816D01*
X228501557Y-125848412D01*
X228567246Y-125646243D01*
X228600500Y-125436287D01*
X228600500Y-125223713D01*
X228567246Y-125013757D01*
X228501557Y-124811588D01*
X228405051Y-124622184D01*
X228405049Y-124622181D01*
X228405048Y-124622179D01*
X228280109Y-124450213D01*
X228129786Y-124299890D01*
X227957817Y-124174949D01*
X227948504Y-124170204D01*
X227897707Y-124122230D01*
X227880912Y-124054409D01*
X227903449Y-123988274D01*
X227948507Y-123949232D01*
X227957555Y-123944622D01*
X228011716Y-123905270D01*
X228011717Y-123905270D01*
X227379408Y-123272962D01*
X227442993Y-123255925D01*
X227557007Y-123190099D01*
X227650099Y-123097007D01*
X227715925Y-122982993D01*
X227732962Y-122919408D01*
X228365270Y-123551717D01*
X228365270Y-123551716D01*
X228404622Y-123497554D01*
X228501095Y-123308217D01*
X228566757Y-123106130D01*
X228566757Y-123106127D01*
X228600000Y-122896246D01*
X228600000Y-122683753D01*
X228566757Y-122473872D01*
X228566757Y-122473869D01*
X228501095Y-122271782D01*
X228404624Y-122082449D01*
X228365270Y-122028282D01*
X228365269Y-122028282D01*
X227732962Y-122660590D01*
X227715925Y-122597007D01*
X227650099Y-122482993D01*
X227557007Y-122389901D01*
X227442993Y-122324075D01*
X227379409Y-122307037D01*
X228049627Y-121636818D01*
X228110950Y-121603333D01*
X228137307Y-121600499D01*
X228147872Y-121600499D01*
X228207483Y-121594091D01*
X228342331Y-121543796D01*
X228457546Y-121457546D01*
X228543796Y-121342331D01*
X228594091Y-121207483D01*
X228600500Y-121147873D01*
X228600499Y-119352128D01*
X228594091Y-119292517D01*
X228543796Y-119157669D01*
X228543795Y-119157668D01*
X228543793Y-119157664D01*
X228457547Y-119042455D01*
X228457544Y-119042452D01*
X228342335Y-118956206D01*
X228342328Y-118956202D01*
X228207482Y-118905908D01*
X228207483Y-118905908D01*
X228147883Y-118899501D01*
X228147881Y-118899500D01*
X228147873Y-118899500D01*
X228147864Y-118899500D01*
X226352129Y-118899500D01*
X226352123Y-118899501D01*
X226292516Y-118905908D01*
X226157671Y-118956202D01*
X226157664Y-118956206D01*
X226042455Y-119042452D01*
X226042452Y-119042455D01*
X225956206Y-119157664D01*
X225956202Y-119157671D01*
X225905908Y-119292517D01*
X225899501Y-119352116D01*
X225899501Y-119352123D01*
X225899500Y-119352135D01*
X225899500Y-121147870D01*
X225899501Y-121147876D01*
X225905908Y-121207483D01*
X225956202Y-121342328D01*
X225956206Y-121342335D01*
X226042452Y-121457544D01*
X226042455Y-121457547D01*
X226157664Y-121543793D01*
X226157671Y-121543797D01*
X226202618Y-121560561D01*
X226292517Y-121594091D01*
X226352127Y-121600500D01*
X226362685Y-121600499D01*
X226429723Y-121620179D01*
X226450372Y-121636818D01*
X227120591Y-122307037D01*
X227057007Y-122324075D01*
X226942993Y-122389901D01*
X226849901Y-122482993D01*
X226784075Y-122597007D01*
X226767037Y-122660591D01*
X226134728Y-122028282D01*
X226134727Y-122028282D01*
X226095380Y-122082439D01*
X225998904Y-122271782D01*
X225933242Y-122473869D01*
X225933242Y-122473872D01*
X225900000Y-122683753D01*
X225900000Y-122896246D01*
X225933242Y-123106127D01*
X225933242Y-123106130D01*
X225998904Y-123308217D01*
X226095375Y-123497550D01*
X226134728Y-123551716D01*
X226767037Y-122919408D01*
X226784075Y-122982993D01*
X226849901Y-123097007D01*
X226942993Y-123190099D01*
X227057007Y-123255925D01*
X227120590Y-123272962D01*
X226488282Y-123905269D01*
X226488282Y-123905270D01*
X226542452Y-123944626D01*
X226542451Y-123944626D01*
X226551495Y-123949234D01*
X226602292Y-123997208D01*
X226619087Y-124065029D01*
X226596550Y-124131164D01*
X226551499Y-124170202D01*
X226542182Y-124174949D01*
X226370213Y-124299890D01*
X226219890Y-124450213D01*
X226094948Y-124622184D01*
X226094947Y-124622185D01*
X226074765Y-124661795D01*
X226026791Y-124712591D01*
X225964281Y-124729500D01*
X223741872Y-124729500D01*
X223717681Y-124727117D01*
X223673158Y-124718260D01*
X223578844Y-124699500D01*
X223578842Y-124699500D01*
X223421158Y-124699500D01*
X223421155Y-124699500D01*
X223266510Y-124730261D01*
X223266498Y-124730264D01*
X223120827Y-124790602D01*
X223120814Y-124790609D01*
X222989711Y-124878210D01*
X222989707Y-124878213D01*
X222878213Y-124989707D01*
X222878210Y-124989711D01*
X222790609Y-125120814D01*
X222790602Y-125120827D01*
X222730264Y-125266498D01*
X222730261Y-125266510D01*
X222699500Y-125421153D01*
X147198080Y-125421153D01*
X157096438Y-115522796D01*
X157157759Y-115489313D01*
X157222433Y-115492547D01*
X157348632Y-115533553D01*
X157465270Y-115552026D01*
X157581903Y-115570500D01*
X157581908Y-115570500D01*
X157818097Y-115570500D01*
X158051368Y-115533553D01*
X158084468Y-115522798D01*
X158275992Y-115460568D01*
X158486433Y-115353343D01*
X158677510Y-115214517D01*
X158844517Y-115047510D01*
X158983343Y-114856433D01*
X159039099Y-114747007D01*
X159076520Y-114673562D01*
X159090568Y-114645992D01*
X159163553Y-114421368D01*
X159172608Y-114364197D01*
X159200500Y-114188097D01*
X159200500Y-113951902D01*
X159163553Y-113718631D01*
X159129464Y-113613718D01*
X159090566Y-113494003D01*
X158983342Y-113283566D01*
X158844517Y-113092490D01*
X158677510Y-112925483D01*
X158642872Y-112900317D01*
X158600207Y-112844989D01*
X158594228Y-112775375D01*
X158626833Y-112713580D01*
X158642873Y-112699682D01*
X158677510Y-112674517D01*
X158844517Y-112507510D01*
X158983343Y-112316433D01*
X159000915Y-112281947D01*
X206000000Y-112281947D01*
X206000000Y-112518052D01*
X206036934Y-112751247D01*
X206109897Y-112975802D01*
X206217087Y-113186174D01*
X206277338Y-113269104D01*
X206277340Y-113269105D01*
X207017037Y-112529408D01*
X207034075Y-112592993D01*
X207099901Y-112707007D01*
X207192993Y-112800099D01*
X207307007Y-112865925D01*
X207370590Y-112882962D01*
X206630893Y-113622658D01*
X206633854Y-113660276D01*
X206633854Y-113679733D01*
X206630894Y-113717340D01*
X207370591Y-114457037D01*
X207307007Y-114474075D01*
X207192993Y-114539901D01*
X207099901Y-114632993D01*
X207034075Y-114747007D01*
X207017037Y-114810591D01*
X206277340Y-114070894D01*
X206217084Y-114153830D01*
X206109897Y-114364197D01*
X206036934Y-114588752D01*
X206000000Y-114821947D01*
X206000000Y-115058052D01*
X206036934Y-115291247D01*
X206109897Y-115515802D01*
X206217087Y-115726174D01*
X206277338Y-115809104D01*
X206277340Y-115809105D01*
X207017037Y-115069408D01*
X207034075Y-115132993D01*
X207099901Y-115247007D01*
X207192993Y-115340099D01*
X207307007Y-115405925D01*
X207370590Y-115422962D01*
X206630893Y-116162658D01*
X206713828Y-116222914D01*
X206924197Y-116330102D01*
X207148752Y-116403065D01*
X207148751Y-116403065D01*
X207381948Y-116440000D01*
X207618052Y-116440000D01*
X207851247Y-116403065D01*
X208075802Y-116330102D01*
X208286163Y-116222918D01*
X208286169Y-116222914D01*
X208369104Y-116162658D01*
X208369105Y-116162658D01*
X207629408Y-115422962D01*
X207692993Y-115405925D01*
X207807007Y-115340099D01*
X207900099Y-115247007D01*
X207965925Y-115132993D01*
X207982962Y-115069408D01*
X208722658Y-115809105D01*
X208722658Y-115809104D01*
X208782914Y-115726169D01*
X208782918Y-115726163D01*
X208890102Y-115515802D01*
X208963065Y-115291247D01*
X209000000Y-115058052D01*
X209000000Y-114821947D01*
X208963065Y-114588752D01*
X208890102Y-114364197D01*
X208782914Y-114153828D01*
X208722658Y-114070894D01*
X208722658Y-114070893D01*
X207982962Y-114810590D01*
X207965925Y-114747007D01*
X207900099Y-114632993D01*
X207807007Y-114539901D01*
X207692993Y-114474075D01*
X207629409Y-114457037D01*
X208369104Y-113717340D01*
X208366144Y-113679735D01*
X208366144Y-113660275D01*
X208369104Y-113622657D01*
X207629408Y-112882962D01*
X207692993Y-112865925D01*
X207807007Y-112800099D01*
X207900099Y-112707007D01*
X207965925Y-112592993D01*
X207982962Y-112529408D01*
X208722658Y-113269105D01*
X208722658Y-113269104D01*
X208782914Y-113186169D01*
X208782918Y-113186163D01*
X208890102Y-112975802D01*
X208963065Y-112751247D01*
X209000000Y-112518052D01*
X209000000Y-112281947D01*
X208963065Y-112048752D01*
X208890102Y-111824197D01*
X208782914Y-111613828D01*
X208722658Y-111530894D01*
X208722658Y-111530893D01*
X207982962Y-112270590D01*
X207965925Y-112207007D01*
X207900099Y-112092993D01*
X207807007Y-111999901D01*
X207692993Y-111934075D01*
X207629409Y-111917037D01*
X208369105Y-111177340D01*
X208369104Y-111177338D01*
X208286174Y-111117087D01*
X208075802Y-111009897D01*
X207851247Y-110936934D01*
X207851248Y-110936934D01*
X207618052Y-110900000D01*
X207381948Y-110900000D01*
X207148752Y-110936934D01*
X206924197Y-111009897D01*
X206713830Y-111117084D01*
X206630894Y-111177340D01*
X207370591Y-111917037D01*
X207307007Y-111934075D01*
X207192993Y-111999901D01*
X207099901Y-112092993D01*
X207034075Y-112207007D01*
X207017037Y-112270591D01*
X206277340Y-111530894D01*
X206217084Y-111613830D01*
X206109897Y-111824197D01*
X206036934Y-112048752D01*
X206000000Y-112281947D01*
X159000915Y-112281947D01*
X159039099Y-112207007D01*
X159048726Y-112188110D01*
X159090568Y-112105992D01*
X159163553Y-111881368D01*
X159172608Y-111824197D01*
X159200500Y-111648097D01*
X159200500Y-111411902D01*
X159174902Y-111250288D01*
X159163553Y-111178632D01*
X159121497Y-111049199D01*
X159120633Y-111045945D01*
X159121457Y-111014262D01*
X159120553Y-110982593D01*
X159122364Y-110979438D01*
X159122451Y-110976098D01*
X159134214Y-110958799D01*
X159152796Y-110926437D01*
X161509506Y-108569728D01*
X161509511Y-108569724D01*
X161519714Y-108559520D01*
X161519716Y-108559520D01*
X161631520Y-108447716D01*
X161682011Y-108360263D01*
X161710577Y-108310785D01*
X161751501Y-108158057D01*
X161751501Y-107999943D01*
X161751501Y-107992348D01*
X161751500Y-107992330D01*
X161751500Y-105601098D01*
X161769631Y-105536540D01*
X161777342Y-105523893D01*
X161784676Y-105516560D01*
X161834795Y-105429748D01*
X161863733Y-105379629D01*
X161885630Y-105297906D01*
X161921993Y-105238248D01*
X161984840Y-105207718D01*
X162054215Y-105216012D01*
X162093085Y-105242320D01*
X163165425Y-106314660D01*
X163198910Y-106375983D01*
X163199361Y-106378149D01*
X163230261Y-106533491D01*
X163230264Y-106533501D01*
X163290602Y-106679172D01*
X163290609Y-106679185D01*
X163378210Y-106810288D01*
X163378213Y-106810292D01*
X163489707Y-106921786D01*
X163489711Y-106921789D01*
X163620814Y-107009390D01*
X163620827Y-107009397D01*
X163766498Y-107069735D01*
X163766503Y-107069737D01*
X163921153Y-107100499D01*
X163921156Y-107100500D01*
X163921158Y-107100500D01*
X164078844Y-107100500D01*
X164078845Y-107100499D01*
X164233497Y-107069737D01*
X164379179Y-107009394D01*
X164510289Y-106921789D01*
X164621789Y-106810289D01*
X164709394Y-106679179D01*
X164721487Y-106649983D01*
X165449500Y-106649983D01*
X165449500Y-107850001D01*
X165449501Y-107850018D01*
X165460000Y-107952796D01*
X165460001Y-107952799D01*
X165515185Y-108119331D01*
X165515187Y-108119336D01*
X165539070Y-108158057D01*
X165607288Y-108268656D01*
X165731344Y-108392712D01*
X165880666Y-108484814D01*
X166047203Y-108539999D01*
X166149991Y-108550500D01*
X167350008Y-108550499D01*
X167452797Y-108539999D01*
X167619334Y-108484814D01*
X167768656Y-108392712D01*
X167892712Y-108268656D01*
X167984814Y-108119334D01*
X168008102Y-108049054D01*
X168012110Y-108041050D01*
X168030060Y-108021772D01*
X168045055Y-108000116D01*
X168053495Y-107996606D01*
X168059725Y-107989917D01*
X168085249Y-107983404D01*
X168109571Y-107973292D01*
X168125834Y-107973048D01*
X168127425Y-107972643D01*
X168128523Y-107973008D01*
X168132719Y-107972946D01*
X168170525Y-107975921D01*
X168850000Y-107296446D01*
X168850000Y-107302661D01*
X168877259Y-107404394D01*
X168929920Y-107495606D01*
X169004394Y-107570080D01*
X169095606Y-107622741D01*
X169197339Y-107650000D01*
X169203553Y-107650000D01*
X168524076Y-108329474D01*
X168568650Y-108361859D01*
X168750968Y-108454755D01*
X168945582Y-108517990D01*
X169147683Y-108550000D01*
X169352317Y-108550000D01*
X169554417Y-108517990D01*
X169749031Y-108454755D01*
X169931349Y-108361859D01*
X169975921Y-108329474D01*
X169296447Y-107650000D01*
X169302661Y-107650000D01*
X169404394Y-107622741D01*
X169495606Y-107570080D01*
X169570080Y-107495606D01*
X169622741Y-107404394D01*
X169650000Y-107302661D01*
X169650000Y-107296447D01*
X170329474Y-107975921D01*
X170361859Y-107931349D01*
X170454755Y-107749031D01*
X170517990Y-107554417D01*
X170550000Y-107352317D01*
X170550000Y-107147682D01*
X170517990Y-106945582D01*
X170454755Y-106750968D01*
X170361859Y-106568650D01*
X170329474Y-106524077D01*
X170329474Y-106524076D01*
X169650000Y-107203551D01*
X169650000Y-107197339D01*
X169622741Y-107095606D01*
X169570080Y-107004394D01*
X169495606Y-106929920D01*
X169404394Y-106877259D01*
X169302661Y-106850000D01*
X169296446Y-106850000D01*
X169975922Y-106170524D01*
X169975921Y-106170523D01*
X169931359Y-106138147D01*
X169931350Y-106138141D01*
X169749031Y-106045244D01*
X169554417Y-105982009D01*
X169352317Y-105950000D01*
X169147683Y-105950000D01*
X168945582Y-105982009D01*
X168750968Y-106045244D01*
X168568644Y-106138143D01*
X168524077Y-106170523D01*
X168524077Y-106170524D01*
X169203554Y-106850000D01*
X169197339Y-106850000D01*
X169095606Y-106877259D01*
X169004394Y-106929920D01*
X168929920Y-107004394D01*
X168877259Y-107095606D01*
X168850000Y-107197339D01*
X168850000Y-107203553D01*
X168170524Y-106524077D01*
X168132719Y-106527053D01*
X168064341Y-106512689D01*
X168014584Y-106463638D01*
X168012110Y-106458949D01*
X168008101Y-106450942D01*
X167984814Y-106380666D01*
X167892712Y-106231344D01*
X167768656Y-106107288D01*
X167619334Y-106015186D01*
X167452797Y-105960001D01*
X167452795Y-105960000D01*
X167350010Y-105949500D01*
X166149998Y-105949500D01*
X166149981Y-105949501D01*
X166047203Y-105960000D01*
X166047200Y-105960001D01*
X165880668Y-106015185D01*
X165880663Y-106015187D01*
X165731342Y-106107289D01*
X165607289Y-106231342D01*
X165515187Y-106380663D01*
X165515186Y-106380666D01*
X165460001Y-106547203D01*
X165460001Y-106547204D01*
X165460000Y-106547204D01*
X165449500Y-106649983D01*
X164721487Y-106649983D01*
X164769737Y-106533497D01*
X164800500Y-106378842D01*
X164800500Y-106221158D01*
X164800500Y-106221155D01*
X164800499Y-106221153D01*
X164777850Y-106107289D01*
X164769737Y-106066503D01*
X164760931Y-106045244D01*
X164709397Y-105920827D01*
X164709390Y-105920814D01*
X164621789Y-105789711D01*
X164621786Y-105789707D01*
X164510292Y-105678213D01*
X164510288Y-105678210D01*
X164379185Y-105590609D01*
X164379172Y-105590602D01*
X164233501Y-105530264D01*
X164233491Y-105530261D01*
X164078149Y-105499361D01*
X164016238Y-105466976D01*
X164014660Y-105465425D01*
X157837370Y-99288135D01*
X208618010Y-99288135D01*
X208618010Y-99445828D01*
X208648771Y-99600471D01*
X208648774Y-99600483D01*
X208709112Y-99746154D01*
X208709119Y-99746167D01*
X208796720Y-99877270D01*
X208796723Y-99877274D01*
X208908217Y-99988768D01*
X208908221Y-99988771D01*
X209039324Y-100076372D01*
X209039337Y-100076379D01*
X209185008Y-100136717D01*
X209185013Y-100136719D01*
X209339663Y-100167481D01*
X209339666Y-100167482D01*
X209339668Y-100167482D01*
X209497354Y-100167482D01*
X209497355Y-100167481D01*
X209652007Y-100136719D01*
X209797689Y-100076376D01*
X209928799Y-99988771D01*
X210040299Y-99877271D01*
X210127904Y-99746161D01*
X210188247Y-99600479D01*
X210219010Y-99445824D01*
X210219010Y-99431587D01*
X210227653Y-99402149D01*
X210234175Y-99372166D01*
X210237931Y-99367146D01*
X210238695Y-99364548D01*
X210255319Y-99343915D01*
X210264659Y-99334575D01*
X210325976Y-99301090D01*
X210328150Y-99300638D01*
X210390979Y-99288140D01*
X210483497Y-99269737D01*
X210629179Y-99209394D01*
X210760289Y-99121789D01*
X210871789Y-99010289D01*
X210959394Y-98879179D01*
X211019737Y-98733497D01*
X211050500Y-98578842D01*
X211050500Y-98421158D01*
X211050500Y-98421155D01*
X211050499Y-98421153D01*
X211040360Y-98370181D01*
X211019737Y-98266503D01*
X210996537Y-98210492D01*
X210959397Y-98120827D01*
X210959390Y-98120814D01*
X210871789Y-97989711D01*
X210871786Y-97989707D01*
X210760292Y-97878213D01*
X210760288Y-97878210D01*
X210629185Y-97790609D01*
X210629172Y-97790602D01*
X210483501Y-97730264D01*
X210483489Y-97730261D01*
X210328845Y-97699500D01*
X210328842Y-97699500D01*
X210171158Y-97699500D01*
X210171155Y-97699500D01*
X210016510Y-97730261D01*
X210016498Y-97730264D01*
X209870827Y-97790602D01*
X209870814Y-97790609D01*
X209739711Y-97878210D01*
X209739707Y-97878213D01*
X209628213Y-97989707D01*
X209628210Y-97989711D01*
X209540609Y-98120814D01*
X209540602Y-98120827D01*
X209480264Y-98266498D01*
X209480261Y-98266508D01*
X209449362Y-98421848D01*
X209440597Y-98438604D01*
X209436577Y-98457084D01*
X209417834Y-98482118D01*
X209416977Y-98483759D01*
X209415425Y-98485338D01*
X209359540Y-98541222D01*
X209298217Y-98574706D01*
X209296052Y-98575157D01*
X209185018Y-98597243D01*
X209185008Y-98597246D01*
X209039337Y-98657584D01*
X209039324Y-98657591D01*
X208908221Y-98745192D01*
X208908217Y-98745195D01*
X208796723Y-98856689D01*
X208796720Y-98856693D01*
X208709119Y-98987796D01*
X208709112Y-98987809D01*
X208648774Y-99133480D01*
X208648771Y-99133492D01*
X208618010Y-99288135D01*
X157837370Y-99288135D01*
X151949218Y-93399983D01*
X163199500Y-93399983D01*
X163199500Y-94600001D01*
X163199501Y-94600018D01*
X163210000Y-94702796D01*
X163210001Y-94702799D01*
X163225681Y-94750116D01*
X163265186Y-94869334D01*
X163357288Y-95018656D01*
X163481344Y-95142712D01*
X163630666Y-95234814D01*
X163797203Y-95289999D01*
X163899991Y-95300500D01*
X165100008Y-95300499D01*
X165202797Y-95289999D01*
X165369334Y-95234814D01*
X165518656Y-95142712D01*
X165642712Y-95018656D01*
X165734814Y-94869334D01*
X165758102Y-94799054D01*
X165762110Y-94791050D01*
X165780060Y-94771772D01*
X165795055Y-94750116D01*
X165803495Y-94746606D01*
X165809725Y-94739917D01*
X165835249Y-94733404D01*
X165859571Y-94723292D01*
X165875834Y-94723048D01*
X165877425Y-94722643D01*
X165878523Y-94723008D01*
X165882719Y-94722946D01*
X165920525Y-94725921D01*
X166600000Y-94046446D01*
X166600000Y-94052661D01*
X166627259Y-94154394D01*
X166679920Y-94245606D01*
X166754394Y-94320080D01*
X166845606Y-94372741D01*
X166947339Y-94400000D01*
X166953553Y-94400000D01*
X166274076Y-95079474D01*
X166318650Y-95111859D01*
X166500968Y-95204755D01*
X166695582Y-95267990D01*
X166897683Y-95300000D01*
X167102317Y-95300000D01*
X167304417Y-95267990D01*
X167499031Y-95204755D01*
X167681349Y-95111859D01*
X167725921Y-95079474D01*
X167046447Y-94400000D01*
X167052661Y-94400000D01*
X167154394Y-94372741D01*
X167245606Y-94320080D01*
X167320080Y-94245606D01*
X167372741Y-94154394D01*
X167400000Y-94052661D01*
X167400000Y-94046448D01*
X168079474Y-94725922D01*
X168079474Y-94725921D01*
X168111859Y-94681349D01*
X168204755Y-94499031D01*
X168267990Y-94304417D01*
X168300000Y-94102317D01*
X168300000Y-93897682D01*
X168267990Y-93695582D01*
X168260377Y-93672153D01*
X207699500Y-93672153D01*
X207699500Y-93829846D01*
X207730261Y-93984489D01*
X207730264Y-93984501D01*
X207790602Y-94130172D01*
X207790609Y-94130185D01*
X207878210Y-94261288D01*
X207878213Y-94261292D01*
X207989707Y-94372786D01*
X207989715Y-94372792D01*
X208081545Y-94434151D01*
X208100335Y-94449571D01*
X208131284Y-94480520D01*
X208131285Y-94480520D01*
X208138353Y-94487588D01*
X211984627Y-98333862D01*
X212018112Y-98395185D01*
X212020946Y-98421543D01*
X212020946Y-101798788D01*
X212001261Y-101865827D01*
X212000048Y-101867679D01*
X211912055Y-101999368D01*
X211912048Y-101999381D01*
X211851710Y-102145052D01*
X211851707Y-102145064D01*
X211820946Y-102299707D01*
X211820946Y-102457400D01*
X211851707Y-102612043D01*
X211851710Y-102612055D01*
X211912048Y-102757726D01*
X211912055Y-102757739D01*
X211999656Y-102888842D01*
X211999659Y-102888846D01*
X212111153Y-103000340D01*
X212111157Y-103000343D01*
X212242260Y-103087944D01*
X212242273Y-103087951D01*
X212387944Y-103148289D01*
X212387949Y-103148291D01*
X212542599Y-103179053D01*
X212542602Y-103179054D01*
X212542604Y-103179054D01*
X212700290Y-103179054D01*
X212700291Y-103179053D01*
X212854943Y-103148291D01*
X213000625Y-103087948D01*
X213131735Y-103000343D01*
X213243235Y-102888843D01*
X213330840Y-102757733D01*
X213334399Y-102749142D01*
X213391181Y-102612055D01*
X213391183Y-102612051D01*
X213421946Y-102457396D01*
X213421946Y-102299712D01*
X213421946Y-102299709D01*
X213421945Y-102299707D01*
X213391184Y-102145064D01*
X213391183Y-102145057D01*
X213391181Y-102145052D01*
X213330843Y-101999381D01*
X213330836Y-101999368D01*
X213242844Y-101867679D01*
X213221966Y-101801001D01*
X213221946Y-101798788D01*
X213221946Y-98210505D01*
X213221947Y-98210492D01*
X213221947Y-98042391D01*
X213221947Y-98042389D01*
X213181023Y-97889661D01*
X213152085Y-97839541D01*
X213101966Y-97752730D01*
X212990162Y-97640926D01*
X212990161Y-97640925D01*
X212985831Y-97636595D01*
X212985820Y-97636585D01*
X209327221Y-93977986D01*
X209293736Y-93916663D01*
X209293285Y-93866112D01*
X209300500Y-93829842D01*
X209300500Y-93672155D01*
X209300499Y-93672153D01*
X209269737Y-93517503D01*
X209221063Y-93399992D01*
X209209397Y-93371827D01*
X209209390Y-93371814D01*
X209121789Y-93240711D01*
X209121786Y-93240707D01*
X209010292Y-93129213D01*
X209010288Y-93129210D01*
X208879185Y-93041609D01*
X208879172Y-93041602D01*
X208733501Y-92981264D01*
X208733489Y-92981261D01*
X208578845Y-92950500D01*
X208578842Y-92950500D01*
X208421158Y-92950500D01*
X208421155Y-92950500D01*
X208266510Y-92981261D01*
X208266498Y-92981264D01*
X208120827Y-93041602D01*
X208120814Y-93041609D01*
X207989711Y-93129210D01*
X207989707Y-93129213D01*
X207878213Y-93240707D01*
X207878210Y-93240711D01*
X207790609Y-93371814D01*
X207790602Y-93371827D01*
X207730264Y-93517498D01*
X207730261Y-93517510D01*
X207699500Y-93672153D01*
X168260377Y-93672153D01*
X168204755Y-93500968D01*
X168111859Y-93318650D01*
X168079474Y-93274077D01*
X168079474Y-93274076D01*
X167400000Y-93953551D01*
X167400000Y-93947339D01*
X167372741Y-93845606D01*
X167320080Y-93754394D01*
X167245606Y-93679920D01*
X167154394Y-93627259D01*
X167052661Y-93600000D01*
X167046446Y-93600000D01*
X167725922Y-92920524D01*
X167725921Y-92920523D01*
X167681359Y-92888147D01*
X167681350Y-92888141D01*
X167499031Y-92795244D01*
X167304417Y-92732009D01*
X167102317Y-92700000D01*
X166897683Y-92700000D01*
X166695582Y-92732009D01*
X166500968Y-92795244D01*
X166318644Y-92888143D01*
X166274077Y-92920523D01*
X166274077Y-92920524D01*
X166953554Y-93600000D01*
X166947339Y-93600000D01*
X166845606Y-93627259D01*
X166754394Y-93679920D01*
X166679920Y-93754394D01*
X166627259Y-93845606D01*
X166600000Y-93947339D01*
X166600000Y-93953553D01*
X165920524Y-93274077D01*
X165882719Y-93277053D01*
X165814341Y-93262689D01*
X165764584Y-93213638D01*
X165762110Y-93208949D01*
X165758101Y-93200942D01*
X165734814Y-93130666D01*
X165642712Y-92981344D01*
X165518656Y-92857288D01*
X165369334Y-92765186D01*
X165202797Y-92710001D01*
X165202795Y-92710000D01*
X165100010Y-92699500D01*
X163899998Y-92699500D01*
X163899981Y-92699501D01*
X163797203Y-92710000D01*
X163797200Y-92710001D01*
X163630668Y-92765185D01*
X163630663Y-92765187D01*
X163481342Y-92857289D01*
X163357289Y-92981342D01*
X163265187Y-93130663D01*
X163265186Y-93130666D01*
X163210001Y-93297203D01*
X163210001Y-93297204D01*
X163210000Y-93297204D01*
X163199500Y-93399983D01*
X151949218Y-93399983D01*
X130934744Y-72385509D01*
X130901259Y-72324186D01*
X130906243Y-72254494D01*
X130929295Y-72217752D01*
X130928404Y-72216987D01*
X130929928Y-72215211D01*
X130929933Y-72215208D01*
X130929935Y-72215206D01*
X131023682Y-72106059D01*
X131082881Y-71974921D01*
X131102273Y-71907797D01*
X131122128Y-71765294D01*
X131006033Y-45121257D01*
X131006032Y-45121244D01*
X131006032Y-45121242D01*
X131000151Y-45068190D01*
X130994249Y-45014927D01*
X130983044Y-44963956D01*
X130949152Y-44862496D01*
X130949150Y-44862494D01*
X130949150Y-44862492D01*
X130871368Y-44741462D01*
X130871359Y-44741451D01*
X130825615Y-44688659D01*
X130825611Y-44688656D01*
X130825609Y-44688653D01*
X130716875Y-44594433D01*
X130716872Y-44594431D01*
X130716870Y-44594430D01*
X130586004Y-44534664D01*
X130585999Y-44534662D01*
X130585998Y-44534662D01*
X130518959Y-44514977D01*
X130518961Y-44514977D01*
X130518956Y-44514976D01*
X130456886Y-44506052D01*
X130376539Y-44494500D01*
X59874000Y-44494500D01*
X59873991Y-44494500D01*
X59873990Y-44494501D01*
X59766549Y-44506052D01*
X59766537Y-44506054D01*
X59715027Y-44517260D01*
X59612502Y-44551383D01*
X59612496Y-44551386D01*
X59491462Y-44629171D01*
X59491451Y-44629179D01*
X59438659Y-44674923D01*
X59344433Y-44783664D01*
X59344430Y-44783668D01*
X59284664Y-44914534D01*
X59284662Y-44914541D01*
X59264977Y-44981580D01*
X59264976Y-44981584D01*
X59244895Y-45121257D01*
X59244500Y-45124001D01*
X59244500Y-152623584D01*
X59245394Y-152653634D01*
X59246273Y-152668383D01*
X59248952Y-152698313D01*
X59286187Y-152837282D01*
X59286191Y-152837295D01*
X59309907Y-152892678D01*
X59309909Y-152892683D01*
X59313694Y-152901520D01*
X59313697Y-152901528D01*
X59329996Y-152928268D01*
X59331024Y-152930089D01*
X59338478Y-152962175D01*
X59347004Y-152993993D01*
X59346347Y-152996047D01*
X59346835Y-152998146D01*
X59335765Y-153029151D01*
X59325730Y-153060545D01*
X59323841Y-153062549D01*
X59323342Y-153063948D01*
X59320352Y-153066252D01*
X59298527Y-153089416D01*
X59277268Y-153105728D01*
X59277256Y-153105739D01*
X59105739Y-153277256D01*
X59105733Y-153277263D01*
X58958067Y-153469706D01*
X58836777Y-153679785D01*
X58836773Y-153679794D01*
X58743947Y-153903895D01*
X58681161Y-154138214D01*
X58649500Y-154378711D01*
X50000500Y-154378711D01*
X50000500Y-35378711D01*
X58149500Y-35378711D01*
X58149500Y-35621288D01*
X58181161Y-35861785D01*
X58243947Y-36096104D01*
X58254379Y-36121288D01*
X58336776Y-36320212D01*
X58458064Y-36530289D01*
X58458066Y-36530292D01*
X58458067Y-36530293D01*
X58605733Y-36722736D01*
X58605739Y-36722743D01*
X58777256Y-36894260D01*
X58777262Y-36894265D01*
X58969711Y-37041936D01*
X59179788Y-37163224D01*
X59403900Y-37256054D01*
X59638211Y-37318838D01*
X59818586Y-37342584D01*
X59878711Y-37350500D01*
X59878712Y-37350500D01*
X60121289Y-37350500D01*
X60169388Y-37344167D01*
X60361789Y-37318838D01*
X60596100Y-37256054D01*
X60820212Y-37163224D01*
X61030289Y-37041936D01*
X61222738Y-36894265D01*
X61394265Y-36722738D01*
X61541936Y-36530289D01*
X61663224Y-36320212D01*
X61756054Y-36096100D01*
X61814304Y-35878711D01*
X212649500Y-35878711D01*
X212649500Y-36121288D01*
X212681161Y-36361785D01*
X212743947Y-36596104D01*
X212796400Y-36722736D01*
X212836776Y-36820212D01*
X212958064Y-37030289D01*
X212958066Y-37030292D01*
X212958067Y-37030293D01*
X213105733Y-37222736D01*
X213105739Y-37222743D01*
X213277256Y-37394260D01*
X213277262Y-37394265D01*
X213469711Y-37541936D01*
X213679788Y-37663224D01*
X213903900Y-37756054D01*
X214138211Y-37818838D01*
X214318586Y-37842584D01*
X214378711Y-37850500D01*
X214378712Y-37850500D01*
X214621289Y-37850500D01*
X214669388Y-37844167D01*
X214861789Y-37818838D01*
X215096100Y-37756054D01*
X215320212Y-37663224D01*
X215530289Y-37541936D01*
X215722738Y-37394265D01*
X215894265Y-37222738D01*
X216041936Y-37030289D01*
X216163224Y-36820212D01*
X216256054Y-36596100D01*
X216318838Y-36361789D01*
X216350500Y-36121288D01*
X216350500Y-35878712D01*
X216318838Y-35638211D01*
X216256054Y-35403900D01*
X216163224Y-35179788D01*
X216041936Y-34969711D01*
X215894265Y-34777262D01*
X215894260Y-34777256D01*
X215722743Y-34605739D01*
X215722736Y-34605733D01*
X215530293Y-34458067D01*
X215530292Y-34458066D01*
X215530289Y-34458064D01*
X215320212Y-34336776D01*
X215320205Y-34336773D01*
X215096104Y-34243947D01*
X214861785Y-34181161D01*
X214621289Y-34149500D01*
X214621288Y-34149500D01*
X214378712Y-34149500D01*
X214378711Y-34149500D01*
X214138214Y-34181161D01*
X213903895Y-34243947D01*
X213679794Y-34336773D01*
X213679785Y-34336777D01*
X213469706Y-34458067D01*
X213277263Y-34605733D01*
X213277256Y-34605739D01*
X213105739Y-34777256D01*
X213105733Y-34777263D01*
X212958067Y-34969706D01*
X212836777Y-35179785D01*
X212836773Y-35179794D01*
X212743947Y-35403895D01*
X212681161Y-35638214D01*
X212649500Y-35878711D01*
X61814304Y-35878711D01*
X61818838Y-35861789D01*
X61850500Y-35621288D01*
X61850500Y-35378712D01*
X61818838Y-35138211D01*
X61756054Y-34903900D01*
X61663224Y-34679788D01*
X61541936Y-34469711D01*
X61394265Y-34277262D01*
X61394260Y-34277256D01*
X61222743Y-34105739D01*
X61222736Y-34105733D01*
X61030293Y-33958067D01*
X61030292Y-33958066D01*
X61030289Y-33958064D01*
X60820212Y-33836776D01*
X60820205Y-33836773D01*
X60596104Y-33743947D01*
X60361785Y-33681161D01*
X60121289Y-33649500D01*
X60121288Y-33649500D01*
X59878712Y-33649500D01*
X59878711Y-33649500D01*
X59638214Y-33681161D01*
X59403895Y-33743947D01*
X59179794Y-33836773D01*
X59179785Y-33836777D01*
X58969706Y-33958067D01*
X58777263Y-34105733D01*
X58777256Y-34105739D01*
X58605739Y-34277256D01*
X58605733Y-34277263D01*
X58458067Y-34469706D01*
X58336777Y-34679785D01*
X58336773Y-34679794D01*
X58243947Y-34903895D01*
X58181161Y-35138214D01*
X58149500Y-35378711D01*
X50000500Y-35378711D01*
X50000500Y-32124500D01*
X50020185Y-32057461D01*
X50072989Y-32011706D01*
X50124500Y-32000500D01*
X229875500Y-32000500D01*
X229942539Y-32020185D01*
G37*
%TD.AperFunction*%
%TD*%
M02*
