M48
; DRILL file {KiCad 9.0.7} date 2026-04-18T17:54:18+0530
; FORMAT={-:-/ absolute / metric / decimal}
; #@! TF.CreationDate,2026-04-18T17:54:18+05:30
; #@! TF.GenerationSoftware,Kicad,Pcbnew,9.0.7
; #@! TF.FileFunction,Plated,1,2,PTH
FMAT,2
METRIC
; #@! TA.AperFunction,Plated,PTH,ViaDrill
T1C0.300
; #@! TA.AperFunction,Plated,PTH,ComponentDrill
T2C0.600
; #@! TA.AperFunction,Plated,PTH,ComponentDrill
T3C0.750
; #@! TA.AperFunction,Plated,PTH,ComponentDrill
T4C0.800
; #@! TA.AperFunction,Plated,PTH,ComponentDrill
T5C1.000
; #@! TA.AperFunction,Plated,PTH,ComponentDrill
T6C1.100
; #@! TA.AperFunction,Plated,PTH,ComponentDrill
T7C1.300
; #@! TA.AperFunction,Plated,PTH,ComponentDrill
T8C1.600
%
G90
G05
T1
X98.95Y-54.95
X109.0Y-132.5
X109.5Y-149.0
X109.73Y-116.05
X109.73Y-143.55
X109.75Y-126.5
X110.75Y-108.5
X111.75Y-128.75
X115.23Y-128.75
X115.75Y-115.0
X115.75Y-117.5
X115.75Y-131.5
X115.75Y-135.199
X124.0Y-103.5
X128.5Y-133.0
X129.5Y-135.5
X129.5Y-142.25
X132.0Y-118.0
X141.854Y-124.854
X142.326Y-108.326
X148.5Y-118.25
X154.901Y-103.5
X157.0Y-108.5
X161.381Y-104.583
X164.0Y-106.3
X208.5Y-93.751
X209.419Y-99.367
X210.25Y-98.5
X212.621Y-102.379
X223.5Y-125.5
X223.5Y-128.0
T2
X105.5Y-54.85
X110.5Y-56.15
T3
X117.96Y-126.36
X118.103Y-143.5
X118.23Y-109.5
X119.23Y-126.36
X119.373Y-143.5
X119.5Y-109.5
X120.5Y-126.36
X120.643Y-143.5
X120.77Y-109.5
T4
X164.5Y-94.0
X166.75Y-107.25
X167.0Y-94.0
X169.25Y-107.25
T5
X74.73Y-93.5
X77.27Y-93.5
X84.0Y-93.292
X85.45Y-103.55
X85.45Y-115.55
X85.6Y-120.6
X85.6Y-132.6
X85.6Y-137.55
X85.6Y-149.55
X89.0Y-64.212
X94.0Y-64.212
X99.0Y-93.292
X157.7Y-111.53
X157.7Y-114.07
X207.5Y-112.4
X207.5Y-114.94
X227.25Y-120.25
X227.25Y-122.79
X227.25Y-125.33
X227.25Y-127.87
T6
X103.67Y-143.5
X103.84Y-109.5
X103.92Y-126.5
X113.83Y-143.5
X114.0Y-109.5
X114.08Y-126.5
T7
X81.3Y-55.0
X83.5Y-109.5
X83.65Y-126.55
X83.65Y-143.5
X87.1Y-55.0
X96.0Y-55.0
X97.65Y-115.55
X97.7Y-103.5
X97.8Y-132.6
X97.8Y-149.55
X97.85Y-120.55
X97.85Y-137.5
X101.8Y-55.0
T8
X69.81Y-52.5
X69.81Y-57.58
X75.358Y-106.66
X75.358Y-111.74
X75.358Y-124.66
X75.358Y-129.74
X75.358Y-141.16
X75.358Y-146.24
M30
