%TF.GenerationSoftware,KiCad,Pcbnew,9.0.7*%
%TF.CreationDate,2026-04-18T17:53:43+05:30*%
%TF.ProjectId,ParqHome_KICAD,50617271-486f-46d6-955f-4b494341442e,rev?*%
%TF.SameCoordinates,Original*%
%TF.FileFunction,Legend,Top*%
%TF.FilePolarity,Positive*%
%FSLAX46Y46*%
G04 Gerber Fmt 4.6, Leading zero omitted, Abs format (unit mm)*
G04 Created by KiCad (PCBNEW 9.0.7) date 2026-04-18 17:53:43*
%MOMM*%
%LPD*%
G01*
G04 APERTURE LIST*
%ADD10C,0.150000*%
%ADD11C,0.120000*%
G04 APERTURE END LIST*
D10*
X118777901Y-140550057D02*
X118682663Y-140502438D01*
X118682663Y-140502438D02*
X118587425Y-140407200D01*
X118587425Y-140407200D02*
X118444568Y-140264342D01*
X118444568Y-140264342D02*
X118349330Y-140216723D01*
X118349330Y-140216723D02*
X118254092Y-140216723D01*
X118301711Y-140454819D02*
X118206473Y-140407200D01*
X118206473Y-140407200D02*
X118111235Y-140311961D01*
X118111235Y-140311961D02*
X118063616Y-140121485D01*
X118063616Y-140121485D02*
X118063616Y-139788152D01*
X118063616Y-139788152D02*
X118111235Y-139597676D01*
X118111235Y-139597676D02*
X118206473Y-139502438D01*
X118206473Y-139502438D02*
X118301711Y-139454819D01*
X118301711Y-139454819D02*
X118492187Y-139454819D01*
X118492187Y-139454819D02*
X118587425Y-139502438D01*
X118587425Y-139502438D02*
X118682663Y-139597676D01*
X118682663Y-139597676D02*
X118730282Y-139788152D01*
X118730282Y-139788152D02*
X118730282Y-140121485D01*
X118730282Y-140121485D02*
X118682663Y-140311961D01*
X118682663Y-140311961D02*
X118587425Y-140407200D01*
X118587425Y-140407200D02*
X118492187Y-140454819D01*
X118492187Y-140454819D02*
X118301711Y-140454819D01*
X119063616Y-139454819D02*
X119682663Y-139454819D01*
X119682663Y-139454819D02*
X119349330Y-139835771D01*
X119349330Y-139835771D02*
X119492187Y-139835771D01*
X119492187Y-139835771D02*
X119587425Y-139883390D01*
X119587425Y-139883390D02*
X119635044Y-139931009D01*
X119635044Y-139931009D02*
X119682663Y-140026247D01*
X119682663Y-140026247D02*
X119682663Y-140264342D01*
X119682663Y-140264342D02*
X119635044Y-140359580D01*
X119635044Y-140359580D02*
X119587425Y-140407200D01*
X119587425Y-140407200D02*
X119492187Y-140454819D01*
X119492187Y-140454819D02*
X119206473Y-140454819D01*
X119206473Y-140454819D02*
X119111235Y-140407200D01*
X119111235Y-140407200D02*
X119063616Y-140359580D01*
X219454819Y-111666666D02*
X218978628Y-111999999D01*
X219454819Y-112238094D02*
X218454819Y-112238094D01*
X218454819Y-112238094D02*
X218454819Y-111857142D01*
X218454819Y-111857142D02*
X218502438Y-111761904D01*
X218502438Y-111761904D02*
X218550057Y-111714285D01*
X218550057Y-111714285D02*
X218645295Y-111666666D01*
X218645295Y-111666666D02*
X218788152Y-111666666D01*
X218788152Y-111666666D02*
X218883390Y-111714285D01*
X218883390Y-111714285D02*
X218931009Y-111761904D01*
X218931009Y-111761904D02*
X218978628Y-111857142D01*
X218978628Y-111857142D02*
X218978628Y-112238094D01*
X219454819Y-110714285D02*
X219454819Y-111285713D01*
X219454819Y-110999999D02*
X218454819Y-110999999D01*
X218454819Y-110999999D02*
X218597676Y-111095237D01*
X218597676Y-111095237D02*
X218692914Y-111190475D01*
X218692914Y-111190475D02*
X218740533Y-111285713D01*
X156588095Y-107454819D02*
X156588095Y-108264342D01*
X156588095Y-108264342D02*
X156635714Y-108359580D01*
X156635714Y-108359580D02*
X156683333Y-108407200D01*
X156683333Y-108407200D02*
X156778571Y-108454819D01*
X156778571Y-108454819D02*
X156969047Y-108454819D01*
X156969047Y-108454819D02*
X157064285Y-108407200D01*
X157064285Y-108407200D02*
X157111904Y-108359580D01*
X157111904Y-108359580D02*
X157159523Y-108264342D01*
X157159523Y-108264342D02*
X157159523Y-107454819D01*
X157588095Y-107550057D02*
X157635714Y-107502438D01*
X157635714Y-107502438D02*
X157730952Y-107454819D01*
X157730952Y-107454819D02*
X157969047Y-107454819D01*
X157969047Y-107454819D02*
X158064285Y-107502438D01*
X158064285Y-107502438D02*
X158111904Y-107550057D01*
X158111904Y-107550057D02*
X158159523Y-107645295D01*
X158159523Y-107645295D02*
X158159523Y-107740533D01*
X158159523Y-107740533D02*
X158111904Y-107883390D01*
X158111904Y-107883390D02*
X157540476Y-108454819D01*
X157540476Y-108454819D02*
X158159523Y-108454819D01*
X74666666Y-99954819D02*
X74666666Y-100669104D01*
X74666666Y-100669104D02*
X74619047Y-100811961D01*
X74619047Y-100811961D02*
X74523809Y-100907200D01*
X74523809Y-100907200D02*
X74380952Y-100954819D01*
X74380952Y-100954819D02*
X74285714Y-100954819D01*
X75047619Y-99954819D02*
X75666666Y-99954819D01*
X75666666Y-99954819D02*
X75333333Y-100335771D01*
X75333333Y-100335771D02*
X75476190Y-100335771D01*
X75476190Y-100335771D02*
X75571428Y-100383390D01*
X75571428Y-100383390D02*
X75619047Y-100431009D01*
X75619047Y-100431009D02*
X75666666Y-100526247D01*
X75666666Y-100526247D02*
X75666666Y-100764342D01*
X75666666Y-100764342D02*
X75619047Y-100859580D01*
X75619047Y-100859580D02*
X75571428Y-100907200D01*
X75571428Y-100907200D02*
X75476190Y-100954819D01*
X75476190Y-100954819D02*
X75190476Y-100954819D01*
X75190476Y-100954819D02*
X75095238Y-100907200D01*
X75095238Y-100907200D02*
X75047619Y-100859580D01*
X75284819Y-55673333D02*
X75999104Y-55673333D01*
X75999104Y-55673333D02*
X76141961Y-55720952D01*
X76141961Y-55720952D02*
X76237200Y-55816190D01*
X76237200Y-55816190D02*
X76284819Y-55959047D01*
X76284819Y-55959047D02*
X76284819Y-56054285D01*
X76284819Y-54673333D02*
X76284819Y-55244761D01*
X76284819Y-54959047D02*
X75284819Y-54959047D01*
X75284819Y-54959047D02*
X75427676Y-55054285D01*
X75427676Y-55054285D02*
X75522914Y-55149523D01*
X75522914Y-55149523D02*
X75570533Y-55244761D01*
X91011905Y-153154819D02*
X91011905Y-152154819D01*
X91583333Y-153154819D02*
X91154762Y-152583390D01*
X91583333Y-152154819D02*
X91011905Y-152726247D01*
X91916667Y-152154819D02*
X92535714Y-152154819D01*
X92535714Y-152154819D02*
X92202381Y-152535771D01*
X92202381Y-152535771D02*
X92345238Y-152535771D01*
X92345238Y-152535771D02*
X92440476Y-152583390D01*
X92440476Y-152583390D02*
X92488095Y-152631009D01*
X92488095Y-152631009D02*
X92535714Y-152726247D01*
X92535714Y-152726247D02*
X92535714Y-152964342D01*
X92535714Y-152964342D02*
X92488095Y-153059580D01*
X92488095Y-153059580D02*
X92440476Y-153107200D01*
X92440476Y-153107200D02*
X92345238Y-153154819D01*
X92345238Y-153154819D02*
X92059524Y-153154819D01*
X92059524Y-153154819D02*
X91964286Y-153107200D01*
X91964286Y-153107200D02*
X91916667Y-153059580D01*
X119404761Y-106490057D02*
X119309523Y-106442438D01*
X119309523Y-106442438D02*
X119214285Y-106347200D01*
X119214285Y-106347200D02*
X119071428Y-106204342D01*
X119071428Y-106204342D02*
X118976190Y-106156723D01*
X118976190Y-106156723D02*
X118880952Y-106156723D01*
X118928571Y-106394819D02*
X118833333Y-106347200D01*
X118833333Y-106347200D02*
X118738095Y-106251961D01*
X118738095Y-106251961D02*
X118690476Y-106061485D01*
X118690476Y-106061485D02*
X118690476Y-105728152D01*
X118690476Y-105728152D02*
X118738095Y-105537676D01*
X118738095Y-105537676D02*
X118833333Y-105442438D01*
X118833333Y-105442438D02*
X118928571Y-105394819D01*
X118928571Y-105394819D02*
X119119047Y-105394819D01*
X119119047Y-105394819D02*
X119214285Y-105442438D01*
X119214285Y-105442438D02*
X119309523Y-105537676D01*
X119309523Y-105537676D02*
X119357142Y-105728152D01*
X119357142Y-105728152D02*
X119357142Y-106061485D01*
X119357142Y-106061485D02*
X119309523Y-106251961D01*
X119309523Y-106251961D02*
X119214285Y-106347200D01*
X119214285Y-106347200D02*
X119119047Y-106394819D01*
X119119047Y-106394819D02*
X118928571Y-106394819D01*
X120309523Y-106394819D02*
X119738095Y-106394819D01*
X120023809Y-106394819D02*
X120023809Y-105394819D01*
X120023809Y-105394819D02*
X119928571Y-105537676D01*
X119928571Y-105537676D02*
X119833333Y-105632914D01*
X119833333Y-105632914D02*
X119738095Y-105680533D01*
X91011905Y-136204819D02*
X91011905Y-135204819D01*
X91583333Y-136204819D02*
X91154762Y-135633390D01*
X91583333Y-135204819D02*
X91011905Y-135776247D01*
X91964286Y-135300057D02*
X92011905Y-135252438D01*
X92011905Y-135252438D02*
X92107143Y-135204819D01*
X92107143Y-135204819D02*
X92345238Y-135204819D01*
X92345238Y-135204819D02*
X92440476Y-135252438D01*
X92440476Y-135252438D02*
X92488095Y-135300057D01*
X92488095Y-135300057D02*
X92535714Y-135395295D01*
X92535714Y-135395295D02*
X92535714Y-135490533D01*
X92535714Y-135490533D02*
X92488095Y-135633390D01*
X92488095Y-135633390D02*
X91916667Y-136204819D01*
X91916667Y-136204819D02*
X92535714Y-136204819D01*
X201468452Y-94804819D02*
X201135119Y-94328628D01*
X200897024Y-94804819D02*
X200897024Y-93804819D01*
X200897024Y-93804819D02*
X201277976Y-93804819D01*
X201277976Y-93804819D02*
X201373214Y-93852438D01*
X201373214Y-93852438D02*
X201420833Y-93900057D01*
X201420833Y-93900057D02*
X201468452Y-93995295D01*
X201468452Y-93995295D02*
X201468452Y-94138152D01*
X201468452Y-94138152D02*
X201420833Y-94233390D01*
X201420833Y-94233390D02*
X201373214Y-94281009D01*
X201373214Y-94281009D02*
X201277976Y-94328628D01*
X201277976Y-94328628D02*
X200897024Y-94328628D01*
X201897024Y-94804819D02*
X201897024Y-93804819D01*
X201897024Y-94185771D02*
X201992262Y-94138152D01*
X201992262Y-94138152D02*
X202182738Y-94138152D01*
X202182738Y-94138152D02*
X202277976Y-94185771D01*
X202277976Y-94185771D02*
X202325595Y-94233390D01*
X202325595Y-94233390D02*
X202373214Y-94328628D01*
X202373214Y-94328628D02*
X202373214Y-94614342D01*
X202373214Y-94614342D02*
X202325595Y-94709580D01*
X202325595Y-94709580D02*
X202277976Y-94757200D01*
X202277976Y-94757200D02*
X202182738Y-94804819D01*
X202182738Y-94804819D02*
X201992262Y-94804819D01*
X201992262Y-94804819D02*
X201897024Y-94757200D01*
X203325595Y-94804819D02*
X202754167Y-94804819D01*
X203039881Y-94804819D02*
X203039881Y-93804819D01*
X203039881Y-93804819D02*
X202944643Y-93947676D01*
X202944643Y-93947676D02*
X202849405Y-94042914D01*
X202849405Y-94042914D02*
X202754167Y-94090533D01*
X210904819Y-115242856D02*
X209904819Y-115242856D01*
X209904819Y-115242856D02*
X209904819Y-114861904D01*
X209904819Y-114861904D02*
X209952438Y-114766666D01*
X209952438Y-114766666D02*
X210000057Y-114719047D01*
X210000057Y-114719047D02*
X210095295Y-114671428D01*
X210095295Y-114671428D02*
X210238152Y-114671428D01*
X210238152Y-114671428D02*
X210333390Y-114719047D01*
X210333390Y-114719047D02*
X210381009Y-114766666D01*
X210381009Y-114766666D02*
X210428628Y-114861904D01*
X210428628Y-114861904D02*
X210428628Y-115242856D01*
X209904819Y-114242856D02*
X210714342Y-114242856D01*
X210714342Y-114242856D02*
X210809580Y-114195237D01*
X210809580Y-114195237D02*
X210857200Y-114147618D01*
X210857200Y-114147618D02*
X210904819Y-114052380D01*
X210904819Y-114052380D02*
X210904819Y-113861904D01*
X210904819Y-113861904D02*
X210857200Y-113766666D01*
X210857200Y-113766666D02*
X210809580Y-113719047D01*
X210809580Y-113719047D02*
X210714342Y-113671428D01*
X210714342Y-113671428D02*
X209904819Y-113671428D01*
X211000057Y-113433333D02*
X211000057Y-112671428D01*
X210904819Y-111861904D02*
X210428628Y-112195237D01*
X210904819Y-112433332D02*
X209904819Y-112433332D01*
X209904819Y-112433332D02*
X209904819Y-112052380D01*
X209904819Y-112052380D02*
X209952438Y-111957142D01*
X209952438Y-111957142D02*
X210000057Y-111909523D01*
X210000057Y-111909523D02*
X210095295Y-111861904D01*
X210095295Y-111861904D02*
X210238152Y-111861904D01*
X210238152Y-111861904D02*
X210333390Y-111909523D01*
X210333390Y-111909523D02*
X210381009Y-111957142D01*
X210381009Y-111957142D02*
X210428628Y-112052380D01*
X210428628Y-112052380D02*
X210428628Y-112433332D01*
X209904819Y-110957142D02*
X209904819Y-111433332D01*
X209904819Y-111433332D02*
X210381009Y-111480951D01*
X210381009Y-111480951D02*
X210333390Y-111433332D01*
X210333390Y-111433332D02*
X210285771Y-111338094D01*
X210285771Y-111338094D02*
X210285771Y-111099999D01*
X210285771Y-111099999D02*
X210333390Y-111004761D01*
X210333390Y-111004761D02*
X210381009Y-110957142D01*
X210381009Y-110957142D02*
X210476247Y-110909523D01*
X210476247Y-110909523D02*
X210714342Y-110909523D01*
X210714342Y-110909523D02*
X210809580Y-110957142D01*
X210809580Y-110957142D02*
X210857200Y-111004761D01*
X210857200Y-111004761D02*
X210904819Y-111099999D01*
X210904819Y-111099999D02*
X210904819Y-111338094D01*
X210904819Y-111338094D02*
X210857200Y-111433332D01*
X210857200Y-111433332D02*
X210809580Y-111480951D01*
X90861905Y-119154819D02*
X90861905Y-118154819D01*
X91433333Y-119154819D02*
X91004762Y-118583390D01*
X91433333Y-118154819D02*
X90861905Y-118726247D01*
X92385714Y-119154819D02*
X91814286Y-119154819D01*
X92100000Y-119154819D02*
X92100000Y-118154819D01*
X92100000Y-118154819D02*
X92004762Y-118297676D01*
X92004762Y-118297676D02*
X91909524Y-118392914D01*
X91909524Y-118392914D02*
X91814286Y-118440533D01*
X108181905Y-107484819D02*
X108181905Y-106484819D01*
X108181905Y-106484819D02*
X108420000Y-106484819D01*
X108420000Y-106484819D02*
X108562857Y-106532438D01*
X108562857Y-106532438D02*
X108658095Y-106627676D01*
X108658095Y-106627676D02*
X108705714Y-106722914D01*
X108705714Y-106722914D02*
X108753333Y-106913390D01*
X108753333Y-106913390D02*
X108753333Y-107056247D01*
X108753333Y-107056247D02*
X108705714Y-107246723D01*
X108705714Y-107246723D02*
X108658095Y-107341961D01*
X108658095Y-107341961D02*
X108562857Y-107437200D01*
X108562857Y-107437200D02*
X108420000Y-107484819D01*
X108420000Y-107484819D02*
X108181905Y-107484819D01*
X109705714Y-107484819D02*
X109134286Y-107484819D01*
X109420000Y-107484819D02*
X109420000Y-106484819D01*
X109420000Y-106484819D02*
X109324762Y-106627676D01*
X109324762Y-106627676D02*
X109229524Y-106722914D01*
X109229524Y-106722914D02*
X109134286Y-106770533D01*
X103578095Y-107854819D02*
X103578095Y-106854819D01*
X104149523Y-107854819D02*
X103720952Y-107283390D01*
X104149523Y-106854819D02*
X103578095Y-107426247D01*
X204854819Y-114761904D02*
X204854819Y-114190476D01*
X205854819Y-114476190D02*
X204854819Y-114476190D01*
X205854819Y-113857142D02*
X204854819Y-113857142D01*
X204854819Y-113857142D02*
X204854819Y-113476190D01*
X204854819Y-113476190D02*
X204902438Y-113380952D01*
X204902438Y-113380952D02*
X204950057Y-113333333D01*
X204950057Y-113333333D02*
X205045295Y-113285714D01*
X205045295Y-113285714D02*
X205188152Y-113285714D01*
X205188152Y-113285714D02*
X205283390Y-113333333D01*
X205283390Y-113333333D02*
X205331009Y-113380952D01*
X205331009Y-113380952D02*
X205378628Y-113476190D01*
X205378628Y-113476190D02*
X205378628Y-113857142D01*
X204854819Y-112952380D02*
X204854819Y-112333333D01*
X204854819Y-112333333D02*
X205235771Y-112666666D01*
X205235771Y-112666666D02*
X205235771Y-112523809D01*
X205235771Y-112523809D02*
X205283390Y-112428571D01*
X205283390Y-112428571D02*
X205331009Y-112380952D01*
X205331009Y-112380952D02*
X205426247Y-112333333D01*
X205426247Y-112333333D02*
X205664342Y-112333333D01*
X205664342Y-112333333D02*
X205759580Y-112380952D01*
X205759580Y-112380952D02*
X205807200Y-112428571D01*
X205807200Y-112428571D02*
X205854819Y-112523809D01*
X205854819Y-112523809D02*
X205854819Y-112809523D01*
X205854819Y-112809523D02*
X205807200Y-112904761D01*
X205807200Y-112904761D02*
X205759580Y-112952380D01*
X213454819Y-126392856D02*
X212454819Y-126392856D01*
X212454819Y-126392856D02*
X212454819Y-126011904D01*
X212454819Y-126011904D02*
X212502438Y-125916666D01*
X212502438Y-125916666D02*
X212550057Y-125869047D01*
X212550057Y-125869047D02*
X212645295Y-125821428D01*
X212645295Y-125821428D02*
X212788152Y-125821428D01*
X212788152Y-125821428D02*
X212883390Y-125869047D01*
X212883390Y-125869047D02*
X212931009Y-125916666D01*
X212931009Y-125916666D02*
X212978628Y-126011904D01*
X212978628Y-126011904D02*
X212978628Y-126392856D01*
X212454819Y-125392856D02*
X213264342Y-125392856D01*
X213264342Y-125392856D02*
X213359580Y-125345237D01*
X213359580Y-125345237D02*
X213407200Y-125297618D01*
X213407200Y-125297618D02*
X213454819Y-125202380D01*
X213454819Y-125202380D02*
X213454819Y-125011904D01*
X213454819Y-125011904D02*
X213407200Y-124916666D01*
X213407200Y-124916666D02*
X213359580Y-124869047D01*
X213359580Y-124869047D02*
X213264342Y-124821428D01*
X213264342Y-124821428D02*
X212454819Y-124821428D01*
X213550057Y-124583333D02*
X213550057Y-123821428D01*
X213454819Y-123011904D02*
X212978628Y-123345237D01*
X213454819Y-123583332D02*
X212454819Y-123583332D01*
X212454819Y-123583332D02*
X212454819Y-123202380D01*
X212454819Y-123202380D02*
X212502438Y-123107142D01*
X212502438Y-123107142D02*
X212550057Y-123059523D01*
X212550057Y-123059523D02*
X212645295Y-123011904D01*
X212645295Y-123011904D02*
X212788152Y-123011904D01*
X212788152Y-123011904D02*
X212883390Y-123059523D01*
X212883390Y-123059523D02*
X212931009Y-123107142D01*
X212931009Y-123107142D02*
X212978628Y-123202380D01*
X212978628Y-123202380D02*
X212978628Y-123583332D01*
X212788152Y-122154761D02*
X213454819Y-122154761D01*
X212407200Y-122392856D02*
X213121485Y-122630951D01*
X213121485Y-122630951D02*
X213121485Y-122011904D01*
X104154819Y-79966785D02*
X103154819Y-79966785D01*
X103154819Y-79966785D02*
X103154819Y-79585833D01*
X103154819Y-79585833D02*
X103202438Y-79490595D01*
X103202438Y-79490595D02*
X103250057Y-79442976D01*
X103250057Y-79442976D02*
X103345295Y-79395357D01*
X103345295Y-79395357D02*
X103488152Y-79395357D01*
X103488152Y-79395357D02*
X103583390Y-79442976D01*
X103583390Y-79442976D02*
X103631009Y-79490595D01*
X103631009Y-79490595D02*
X103678628Y-79585833D01*
X103678628Y-79585833D02*
X103678628Y-79966785D01*
X104107200Y-79014404D02*
X104154819Y-78871547D01*
X104154819Y-78871547D02*
X104154819Y-78633452D01*
X104154819Y-78633452D02*
X104107200Y-78538214D01*
X104107200Y-78538214D02*
X104059580Y-78490595D01*
X104059580Y-78490595D02*
X103964342Y-78442976D01*
X103964342Y-78442976D02*
X103869104Y-78442976D01*
X103869104Y-78442976D02*
X103773866Y-78490595D01*
X103773866Y-78490595D02*
X103726247Y-78538214D01*
X103726247Y-78538214D02*
X103678628Y-78633452D01*
X103678628Y-78633452D02*
X103631009Y-78823928D01*
X103631009Y-78823928D02*
X103583390Y-78919166D01*
X103583390Y-78919166D02*
X103535771Y-78966785D01*
X103535771Y-78966785D02*
X103440533Y-79014404D01*
X103440533Y-79014404D02*
X103345295Y-79014404D01*
X103345295Y-79014404D02*
X103250057Y-78966785D01*
X103250057Y-78966785D02*
X103202438Y-78919166D01*
X103202438Y-78919166D02*
X103154819Y-78823928D01*
X103154819Y-78823928D02*
X103154819Y-78585833D01*
X103154819Y-78585833D02*
X103202438Y-78442976D01*
X104154819Y-77490595D02*
X104154819Y-78062023D01*
X104154819Y-77776309D02*
X103154819Y-77776309D01*
X103154819Y-77776309D02*
X103297676Y-77871547D01*
X103297676Y-77871547D02*
X103392914Y-77966785D01*
X103392914Y-77966785D02*
X103440533Y-78062023D01*
X74666666Y-135954819D02*
X74666666Y-136669104D01*
X74666666Y-136669104D02*
X74619047Y-136811961D01*
X74619047Y-136811961D02*
X74523809Y-136907200D01*
X74523809Y-136907200D02*
X74380952Y-136954819D01*
X74380952Y-136954819D02*
X74285714Y-136954819D01*
X75619047Y-135954819D02*
X75142857Y-135954819D01*
X75142857Y-135954819D02*
X75095238Y-136431009D01*
X75095238Y-136431009D02*
X75142857Y-136383390D01*
X75142857Y-136383390D02*
X75238095Y-136335771D01*
X75238095Y-136335771D02*
X75476190Y-136335771D01*
X75476190Y-136335771D02*
X75571428Y-136383390D01*
X75571428Y-136383390D02*
X75619047Y-136431009D01*
X75619047Y-136431009D02*
X75666666Y-136526247D01*
X75666666Y-136526247D02*
X75666666Y-136764342D01*
X75666666Y-136764342D02*
X75619047Y-136859580D01*
X75619047Y-136859580D02*
X75571428Y-136907200D01*
X75571428Y-136907200D02*
X75476190Y-136954819D01*
X75476190Y-136954819D02*
X75238095Y-136954819D01*
X75238095Y-136954819D02*
X75142857Y-136907200D01*
X75142857Y-136907200D02*
X75095238Y-136859580D01*
X165694283Y-103109580D02*
X165646664Y-103157200D01*
X165646664Y-103157200D02*
X165503807Y-103204819D01*
X165503807Y-103204819D02*
X165408569Y-103204819D01*
X165408569Y-103204819D02*
X165265712Y-103157200D01*
X165265712Y-103157200D02*
X165170474Y-103061961D01*
X165170474Y-103061961D02*
X165122855Y-102966723D01*
X165122855Y-102966723D02*
X165075236Y-102776247D01*
X165075236Y-102776247D02*
X165075236Y-102633390D01*
X165075236Y-102633390D02*
X165122855Y-102442914D01*
X165122855Y-102442914D02*
X165170474Y-102347676D01*
X165170474Y-102347676D02*
X165265712Y-102252438D01*
X165265712Y-102252438D02*
X165408569Y-102204819D01*
X165408569Y-102204819D02*
X165503807Y-102204819D01*
X165503807Y-102204819D02*
X165646664Y-102252438D01*
X165646664Y-102252438D02*
X165694283Y-102300057D01*
X165884760Y-103300057D02*
X166646664Y-103300057D01*
X167027617Y-103204819D02*
X166932379Y-103157200D01*
X166932379Y-103157200D02*
X166884760Y-103109580D01*
X166884760Y-103109580D02*
X166837141Y-103014342D01*
X166837141Y-103014342D02*
X166837141Y-102728628D01*
X166837141Y-102728628D02*
X166884760Y-102633390D01*
X166884760Y-102633390D02*
X166932379Y-102585771D01*
X166932379Y-102585771D02*
X167027617Y-102538152D01*
X167027617Y-102538152D02*
X167170474Y-102538152D01*
X167170474Y-102538152D02*
X167265712Y-102585771D01*
X167265712Y-102585771D02*
X167313331Y-102633390D01*
X167313331Y-102633390D02*
X167360950Y-102728628D01*
X167360950Y-102728628D02*
X167360950Y-103014342D01*
X167360950Y-103014342D02*
X167313331Y-103109580D01*
X167313331Y-103109580D02*
X167265712Y-103157200D01*
X167265712Y-103157200D02*
X167170474Y-103204819D01*
X167170474Y-103204819D02*
X167027617Y-103204819D01*
X168218093Y-102538152D02*
X168218093Y-103204819D01*
X167789522Y-102538152D02*
X167789522Y-103061961D01*
X167789522Y-103061961D02*
X167837141Y-103157200D01*
X167837141Y-103157200D02*
X167932379Y-103204819D01*
X167932379Y-103204819D02*
X168075236Y-103204819D01*
X168075236Y-103204819D02*
X168170474Y-103157200D01*
X168170474Y-103157200D02*
X168218093Y-103109580D01*
X168551427Y-102538152D02*
X168932379Y-102538152D01*
X168694284Y-102204819D02*
X168694284Y-103061961D01*
X168694284Y-103061961D02*
X168741903Y-103157200D01*
X168741903Y-103157200D02*
X168837141Y-103204819D01*
X168837141Y-103204819D02*
X168932379Y-103204819D01*
X169789522Y-103204819D02*
X169218094Y-103204819D01*
X169503808Y-103204819D02*
X169503808Y-102204819D01*
X169503808Y-102204819D02*
X169408570Y-102347676D01*
X169408570Y-102347676D02*
X169313332Y-102442914D01*
X169313332Y-102442914D02*
X169218094Y-102490533D01*
X159254819Y-114231904D02*
X159254819Y-113660476D01*
X160254819Y-113946190D02*
X159254819Y-113946190D01*
X160254819Y-113327142D02*
X159254819Y-113327142D01*
X159254819Y-113327142D02*
X159254819Y-112946190D01*
X159254819Y-112946190D02*
X159302438Y-112850952D01*
X159302438Y-112850952D02*
X159350057Y-112803333D01*
X159350057Y-112803333D02*
X159445295Y-112755714D01*
X159445295Y-112755714D02*
X159588152Y-112755714D01*
X159588152Y-112755714D02*
X159683390Y-112803333D01*
X159683390Y-112803333D02*
X159731009Y-112850952D01*
X159731009Y-112850952D02*
X159778628Y-112946190D01*
X159778628Y-112946190D02*
X159778628Y-113327142D01*
X159350057Y-112374761D02*
X159302438Y-112327142D01*
X159302438Y-112327142D02*
X159254819Y-112231904D01*
X159254819Y-112231904D02*
X159254819Y-111993809D01*
X159254819Y-111993809D02*
X159302438Y-111898571D01*
X159302438Y-111898571D02*
X159350057Y-111850952D01*
X159350057Y-111850952D02*
X159445295Y-111803333D01*
X159445295Y-111803333D02*
X159540533Y-111803333D01*
X159540533Y-111803333D02*
X159683390Y-111850952D01*
X159683390Y-111850952D02*
X160254819Y-112422380D01*
X160254819Y-112422380D02*
X160254819Y-111803333D01*
X216304819Y-89730356D02*
X215304819Y-89730356D01*
X215304819Y-89730356D02*
X215304819Y-89349404D01*
X215304819Y-89349404D02*
X215352438Y-89254166D01*
X215352438Y-89254166D02*
X215400057Y-89206547D01*
X215400057Y-89206547D02*
X215495295Y-89158928D01*
X215495295Y-89158928D02*
X215638152Y-89158928D01*
X215638152Y-89158928D02*
X215733390Y-89206547D01*
X215733390Y-89206547D02*
X215781009Y-89254166D01*
X215781009Y-89254166D02*
X215828628Y-89349404D01*
X215828628Y-89349404D02*
X215828628Y-89730356D01*
X215304819Y-88730356D02*
X216114342Y-88730356D01*
X216114342Y-88730356D02*
X216209580Y-88682737D01*
X216209580Y-88682737D02*
X216257200Y-88635118D01*
X216257200Y-88635118D02*
X216304819Y-88539880D01*
X216304819Y-88539880D02*
X216304819Y-88349404D01*
X216304819Y-88349404D02*
X216257200Y-88254166D01*
X216257200Y-88254166D02*
X216209580Y-88206547D01*
X216209580Y-88206547D02*
X216114342Y-88158928D01*
X216114342Y-88158928D02*
X215304819Y-88158928D01*
X216400057Y-87920833D02*
X216400057Y-87158928D01*
X216304819Y-86349404D02*
X215828628Y-86682737D01*
X216304819Y-86920832D02*
X215304819Y-86920832D01*
X215304819Y-86920832D02*
X215304819Y-86539880D01*
X215304819Y-86539880D02*
X215352438Y-86444642D01*
X215352438Y-86444642D02*
X215400057Y-86397023D01*
X215400057Y-86397023D02*
X215495295Y-86349404D01*
X215495295Y-86349404D02*
X215638152Y-86349404D01*
X215638152Y-86349404D02*
X215733390Y-86397023D01*
X215733390Y-86397023D02*
X215781009Y-86444642D01*
X215781009Y-86444642D02*
X215828628Y-86539880D01*
X215828628Y-86539880D02*
X215828628Y-86920832D01*
X215304819Y-86016070D02*
X215304819Y-85397023D01*
X215304819Y-85397023D02*
X215685771Y-85730356D01*
X215685771Y-85730356D02*
X215685771Y-85587499D01*
X215685771Y-85587499D02*
X215733390Y-85492261D01*
X215733390Y-85492261D02*
X215781009Y-85444642D01*
X215781009Y-85444642D02*
X215876247Y-85397023D01*
X215876247Y-85397023D02*
X216114342Y-85397023D01*
X216114342Y-85397023D02*
X216209580Y-85444642D01*
X216209580Y-85444642D02*
X216257200Y-85492261D01*
X216257200Y-85492261D02*
X216304819Y-85587499D01*
X216304819Y-85587499D02*
X216304819Y-85873213D01*
X216304819Y-85873213D02*
X216257200Y-85968451D01*
X216257200Y-85968451D02*
X216209580Y-86016070D01*
X59738095Y-150804819D02*
X59738095Y-149804819D01*
X59738095Y-150281009D02*
X60309523Y-150281009D01*
X60309523Y-150804819D02*
X60309523Y-149804819D01*
X60738095Y-149900057D02*
X60785714Y-149852438D01*
X60785714Y-149852438D02*
X60880952Y-149804819D01*
X60880952Y-149804819D02*
X61119047Y-149804819D01*
X61119047Y-149804819D02*
X61214285Y-149852438D01*
X61214285Y-149852438D02*
X61261904Y-149900057D01*
X61261904Y-149900057D02*
X61309523Y-149995295D01*
X61309523Y-149995295D02*
X61309523Y-150090533D01*
X61309523Y-150090533D02*
X61261904Y-150233390D01*
X61261904Y-150233390D02*
X60690476Y-150804819D01*
X60690476Y-150804819D02*
X61309523Y-150804819D01*
X226916666Y-117324819D02*
X226916666Y-118039104D01*
X226916666Y-118039104D02*
X226869047Y-118181961D01*
X226869047Y-118181961D02*
X226773809Y-118277200D01*
X226773809Y-118277200D02*
X226630952Y-118324819D01*
X226630952Y-118324819D02*
X226535714Y-118324819D01*
X227345238Y-117420057D02*
X227392857Y-117372438D01*
X227392857Y-117372438D02*
X227488095Y-117324819D01*
X227488095Y-117324819D02*
X227726190Y-117324819D01*
X227726190Y-117324819D02*
X227821428Y-117372438D01*
X227821428Y-117372438D02*
X227869047Y-117420057D01*
X227869047Y-117420057D02*
X227916666Y-117515295D01*
X227916666Y-117515295D02*
X227916666Y-117610533D01*
X227916666Y-117610533D02*
X227869047Y-117753390D01*
X227869047Y-117753390D02*
X227297619Y-118324819D01*
X227297619Y-118324819D02*
X227916666Y-118324819D01*
X74568095Y-95054819D02*
X75139523Y-95054819D01*
X74853809Y-96054819D02*
X74853809Y-95054819D01*
X75472857Y-96054819D02*
X75472857Y-95054819D01*
X75472857Y-95054819D02*
X75853809Y-95054819D01*
X75853809Y-95054819D02*
X75949047Y-95102438D01*
X75949047Y-95102438D02*
X75996666Y-95150057D01*
X75996666Y-95150057D02*
X76044285Y-95245295D01*
X76044285Y-95245295D02*
X76044285Y-95388152D01*
X76044285Y-95388152D02*
X75996666Y-95483390D01*
X75996666Y-95483390D02*
X75949047Y-95531009D01*
X75949047Y-95531009D02*
X75853809Y-95578628D01*
X75853809Y-95578628D02*
X75472857Y-95578628D01*
X76996666Y-96054819D02*
X76425238Y-96054819D01*
X76710952Y-96054819D02*
X76710952Y-95054819D01*
X76710952Y-95054819D02*
X76615714Y-95197676D01*
X76615714Y-95197676D02*
X76520476Y-95292914D01*
X76520476Y-95292914D02*
X76425238Y-95340533D01*
X164511904Y-89959580D02*
X164464285Y-90007200D01*
X164464285Y-90007200D02*
X164321428Y-90054819D01*
X164321428Y-90054819D02*
X164226190Y-90054819D01*
X164226190Y-90054819D02*
X164083333Y-90007200D01*
X164083333Y-90007200D02*
X163988095Y-89911961D01*
X163988095Y-89911961D02*
X163940476Y-89816723D01*
X163940476Y-89816723D02*
X163892857Y-89626247D01*
X163892857Y-89626247D02*
X163892857Y-89483390D01*
X163892857Y-89483390D02*
X163940476Y-89292914D01*
X163940476Y-89292914D02*
X163988095Y-89197676D01*
X163988095Y-89197676D02*
X164083333Y-89102438D01*
X164083333Y-89102438D02*
X164226190Y-89054819D01*
X164226190Y-89054819D02*
X164321428Y-89054819D01*
X164321428Y-89054819D02*
X164464285Y-89102438D01*
X164464285Y-89102438D02*
X164511904Y-89150057D01*
X164702381Y-90150057D02*
X165464285Y-90150057D01*
X165702381Y-90054819D02*
X165702381Y-89388152D01*
X165702381Y-89054819D02*
X165654762Y-89102438D01*
X165654762Y-89102438D02*
X165702381Y-89150057D01*
X165702381Y-89150057D02*
X165750000Y-89102438D01*
X165750000Y-89102438D02*
X165702381Y-89054819D01*
X165702381Y-89054819D02*
X165702381Y-89150057D01*
X166178571Y-89388152D02*
X166178571Y-90054819D01*
X166178571Y-89483390D02*
X166226190Y-89435771D01*
X166226190Y-89435771D02*
X166321428Y-89388152D01*
X166321428Y-89388152D02*
X166464285Y-89388152D01*
X166464285Y-89388152D02*
X166559523Y-89435771D01*
X166559523Y-89435771D02*
X166607142Y-89531009D01*
X166607142Y-89531009D02*
X166607142Y-90054819D01*
X167607142Y-90054819D02*
X167035714Y-90054819D01*
X167321428Y-90054819D02*
X167321428Y-89054819D01*
X167321428Y-89054819D02*
X167226190Y-89197676D01*
X167226190Y-89197676D02*
X167130952Y-89292914D01*
X167130952Y-89292914D02*
X167035714Y-89340533D01*
X222714819Y-90601904D02*
X223524342Y-90601904D01*
X223524342Y-90601904D02*
X223619580Y-90554285D01*
X223619580Y-90554285D02*
X223667200Y-90506666D01*
X223667200Y-90506666D02*
X223714819Y-90411428D01*
X223714819Y-90411428D02*
X223714819Y-90220952D01*
X223714819Y-90220952D02*
X223667200Y-90125714D01*
X223667200Y-90125714D02*
X223619580Y-90078095D01*
X223619580Y-90078095D02*
X223524342Y-90030476D01*
X223524342Y-90030476D02*
X222714819Y-90030476D01*
X223714819Y-89030476D02*
X223714819Y-89601904D01*
X223714819Y-89316190D02*
X222714819Y-89316190D01*
X222714819Y-89316190D02*
X222857676Y-89411428D01*
X222857676Y-89411428D02*
X222952914Y-89506666D01*
X222952914Y-89506666D02*
X223000533Y-89601904D01*
X207954819Y-122642856D02*
X206954819Y-122642856D01*
X206954819Y-122642856D02*
X206954819Y-122261904D01*
X206954819Y-122261904D02*
X207002438Y-122166666D01*
X207002438Y-122166666D02*
X207050057Y-122119047D01*
X207050057Y-122119047D02*
X207145295Y-122071428D01*
X207145295Y-122071428D02*
X207288152Y-122071428D01*
X207288152Y-122071428D02*
X207383390Y-122119047D01*
X207383390Y-122119047D02*
X207431009Y-122166666D01*
X207431009Y-122166666D02*
X207478628Y-122261904D01*
X207478628Y-122261904D02*
X207478628Y-122642856D01*
X206954819Y-121642856D02*
X207764342Y-121642856D01*
X207764342Y-121642856D02*
X207859580Y-121595237D01*
X207859580Y-121595237D02*
X207907200Y-121547618D01*
X207907200Y-121547618D02*
X207954819Y-121452380D01*
X207954819Y-121452380D02*
X207954819Y-121261904D01*
X207954819Y-121261904D02*
X207907200Y-121166666D01*
X207907200Y-121166666D02*
X207859580Y-121119047D01*
X207859580Y-121119047D02*
X207764342Y-121071428D01*
X207764342Y-121071428D02*
X206954819Y-121071428D01*
X208050057Y-120833333D02*
X208050057Y-120071428D01*
X207954819Y-119261904D02*
X207478628Y-119595237D01*
X207954819Y-119833332D02*
X206954819Y-119833332D01*
X206954819Y-119833332D02*
X206954819Y-119452380D01*
X206954819Y-119452380D02*
X207002438Y-119357142D01*
X207002438Y-119357142D02*
X207050057Y-119309523D01*
X207050057Y-119309523D02*
X207145295Y-119261904D01*
X207145295Y-119261904D02*
X207288152Y-119261904D01*
X207288152Y-119261904D02*
X207383390Y-119309523D01*
X207383390Y-119309523D02*
X207431009Y-119357142D01*
X207431009Y-119357142D02*
X207478628Y-119452380D01*
X207478628Y-119452380D02*
X207478628Y-119833332D01*
X207050057Y-118880951D02*
X207002438Y-118833332D01*
X207002438Y-118833332D02*
X206954819Y-118738094D01*
X206954819Y-118738094D02*
X206954819Y-118499999D01*
X206954819Y-118499999D02*
X207002438Y-118404761D01*
X207002438Y-118404761D02*
X207050057Y-118357142D01*
X207050057Y-118357142D02*
X207145295Y-118309523D01*
X207145295Y-118309523D02*
X207240533Y-118309523D01*
X207240533Y-118309523D02*
X207383390Y-118357142D01*
X207383390Y-118357142D02*
X207954819Y-118928570D01*
X207954819Y-118928570D02*
X207954819Y-118309523D01*
X108011905Y-141484819D02*
X108011905Y-140484819D01*
X108011905Y-140484819D02*
X108250000Y-140484819D01*
X108250000Y-140484819D02*
X108392857Y-140532438D01*
X108392857Y-140532438D02*
X108488095Y-140627676D01*
X108488095Y-140627676D02*
X108535714Y-140722914D01*
X108535714Y-140722914D02*
X108583333Y-140913390D01*
X108583333Y-140913390D02*
X108583333Y-141056247D01*
X108583333Y-141056247D02*
X108535714Y-141246723D01*
X108535714Y-141246723D02*
X108488095Y-141341961D01*
X108488095Y-141341961D02*
X108392857Y-141437200D01*
X108392857Y-141437200D02*
X108250000Y-141484819D01*
X108250000Y-141484819D02*
X108011905Y-141484819D01*
X109440476Y-140818152D02*
X109440476Y-141484819D01*
X109202381Y-140437200D02*
X108964286Y-141151485D01*
X108964286Y-141151485D02*
X109583333Y-141151485D01*
X103408095Y-141854819D02*
X103408095Y-140854819D01*
X103979523Y-141854819D02*
X103550952Y-141283390D01*
X103979523Y-140854819D02*
X103408095Y-141426247D01*
X220304819Y-91142856D02*
X219304819Y-91142856D01*
X219304819Y-91142856D02*
X219304819Y-90761904D01*
X219304819Y-90761904D02*
X219352438Y-90666666D01*
X219352438Y-90666666D02*
X219400057Y-90619047D01*
X219400057Y-90619047D02*
X219495295Y-90571428D01*
X219495295Y-90571428D02*
X219638152Y-90571428D01*
X219638152Y-90571428D02*
X219733390Y-90619047D01*
X219733390Y-90619047D02*
X219781009Y-90666666D01*
X219781009Y-90666666D02*
X219828628Y-90761904D01*
X219828628Y-90761904D02*
X219828628Y-91142856D01*
X219304819Y-90142856D02*
X220114342Y-90142856D01*
X220114342Y-90142856D02*
X220209580Y-90095237D01*
X220209580Y-90095237D02*
X220257200Y-90047618D01*
X220257200Y-90047618D02*
X220304819Y-89952380D01*
X220304819Y-89952380D02*
X220304819Y-89761904D01*
X220304819Y-89761904D02*
X220257200Y-89666666D01*
X220257200Y-89666666D02*
X220209580Y-89619047D01*
X220209580Y-89619047D02*
X220114342Y-89571428D01*
X220114342Y-89571428D02*
X219304819Y-89571428D01*
X220400057Y-89333333D02*
X220400057Y-88571428D01*
X220304819Y-87761904D02*
X219828628Y-88095237D01*
X220304819Y-88333332D02*
X219304819Y-88333332D01*
X219304819Y-88333332D02*
X219304819Y-87952380D01*
X219304819Y-87952380D02*
X219352438Y-87857142D01*
X219352438Y-87857142D02*
X219400057Y-87809523D01*
X219400057Y-87809523D02*
X219495295Y-87761904D01*
X219495295Y-87761904D02*
X219638152Y-87761904D01*
X219638152Y-87761904D02*
X219733390Y-87809523D01*
X219733390Y-87809523D02*
X219781009Y-87857142D01*
X219781009Y-87857142D02*
X219828628Y-87952380D01*
X219828628Y-87952380D02*
X219828628Y-88333332D01*
X220304819Y-86809523D02*
X220304819Y-87380951D01*
X220304819Y-87095237D02*
X219304819Y-87095237D01*
X219304819Y-87095237D02*
X219447676Y-87190475D01*
X219447676Y-87190475D02*
X219542914Y-87285713D01*
X219542914Y-87285713D02*
X219590533Y-87380951D01*
X91216666Y-50931009D02*
X90883333Y-50931009D01*
X90883333Y-51454819D02*
X90883333Y-50454819D01*
X90883333Y-50454819D02*
X91359523Y-50454819D01*
X92264285Y-51454819D02*
X91692857Y-51454819D01*
X91978571Y-51454819D02*
X91978571Y-50454819D01*
X91978571Y-50454819D02*
X91883333Y-50597676D01*
X91883333Y-50597676D02*
X91788095Y-50692914D01*
X91788095Y-50692914D02*
X91692857Y-50740533D01*
X212238095Y-157454819D02*
X212238095Y-156454819D01*
X212238095Y-156931009D02*
X212809523Y-156931009D01*
X212809523Y-157454819D02*
X212809523Y-156454819D01*
X213714285Y-156788152D02*
X213714285Y-157454819D01*
X213476190Y-156407200D02*
X213238095Y-157121485D01*
X213238095Y-157121485D02*
X213857142Y-157121485D01*
X74666666Y-119454819D02*
X74666666Y-120169104D01*
X74666666Y-120169104D02*
X74619047Y-120311961D01*
X74619047Y-120311961D02*
X74523809Y-120407200D01*
X74523809Y-120407200D02*
X74380952Y-120454819D01*
X74380952Y-120454819D02*
X74285714Y-120454819D01*
X75571428Y-119788152D02*
X75571428Y-120454819D01*
X75333333Y-119407200D02*
X75095238Y-120121485D01*
X75095238Y-120121485D02*
X75714285Y-120121485D01*
X59238095Y-31804819D02*
X59238095Y-30804819D01*
X59238095Y-31281009D02*
X59809523Y-31281009D01*
X59809523Y-31804819D02*
X59809523Y-30804819D01*
X60809523Y-31804819D02*
X60238095Y-31804819D01*
X60523809Y-31804819D02*
X60523809Y-30804819D01*
X60523809Y-30804819D02*
X60428571Y-30947676D01*
X60428571Y-30947676D02*
X60333333Y-31042914D01*
X60333333Y-31042914D02*
X60238095Y-31090533D01*
X219454819Y-116325594D02*
X218454819Y-116325594D01*
X218454819Y-116325594D02*
X218454819Y-116087499D01*
X218454819Y-116087499D02*
X218502438Y-115944642D01*
X218502438Y-115944642D02*
X218597676Y-115849404D01*
X218597676Y-115849404D02*
X218692914Y-115801785D01*
X218692914Y-115801785D02*
X218883390Y-115754166D01*
X218883390Y-115754166D02*
X219026247Y-115754166D01*
X219026247Y-115754166D02*
X219216723Y-115801785D01*
X219216723Y-115801785D02*
X219311961Y-115849404D01*
X219311961Y-115849404D02*
X219407200Y-115944642D01*
X219407200Y-115944642D02*
X219454819Y-116087499D01*
X219454819Y-116087499D02*
X219454819Y-116325594D01*
X218550057Y-115373213D02*
X218502438Y-115325594D01*
X218502438Y-115325594D02*
X218454819Y-115230356D01*
X218454819Y-115230356D02*
X218454819Y-114992261D01*
X218454819Y-114992261D02*
X218502438Y-114897023D01*
X218502438Y-114897023D02*
X218550057Y-114849404D01*
X218550057Y-114849404D02*
X218645295Y-114801785D01*
X218645295Y-114801785D02*
X218740533Y-114801785D01*
X218740533Y-114801785D02*
X218883390Y-114849404D01*
X218883390Y-114849404D02*
X219454819Y-115420832D01*
X219454819Y-115420832D02*
X219454819Y-114801785D01*
X108261905Y-124484819D02*
X108261905Y-123484819D01*
X108261905Y-123484819D02*
X108500000Y-123484819D01*
X108500000Y-123484819D02*
X108642857Y-123532438D01*
X108642857Y-123532438D02*
X108738095Y-123627676D01*
X108738095Y-123627676D02*
X108785714Y-123722914D01*
X108785714Y-123722914D02*
X108833333Y-123913390D01*
X108833333Y-123913390D02*
X108833333Y-124056247D01*
X108833333Y-124056247D02*
X108785714Y-124246723D01*
X108785714Y-124246723D02*
X108738095Y-124341961D01*
X108738095Y-124341961D02*
X108642857Y-124437200D01*
X108642857Y-124437200D02*
X108500000Y-124484819D01*
X108500000Y-124484819D02*
X108261905Y-124484819D01*
X109166667Y-123484819D02*
X109785714Y-123484819D01*
X109785714Y-123484819D02*
X109452381Y-123865771D01*
X109452381Y-123865771D02*
X109595238Y-123865771D01*
X109595238Y-123865771D02*
X109690476Y-123913390D01*
X109690476Y-123913390D02*
X109738095Y-123961009D01*
X109738095Y-123961009D02*
X109785714Y-124056247D01*
X109785714Y-124056247D02*
X109785714Y-124294342D01*
X109785714Y-124294342D02*
X109738095Y-124389580D01*
X109738095Y-124389580D02*
X109690476Y-124437200D01*
X109690476Y-124437200D02*
X109595238Y-124484819D01*
X109595238Y-124484819D02*
X109309524Y-124484819D01*
X109309524Y-124484819D02*
X109214286Y-124437200D01*
X109214286Y-124437200D02*
X109166667Y-124389580D01*
X103658095Y-124854819D02*
X103658095Y-123854819D01*
X104229523Y-124854819D02*
X103800952Y-124283390D01*
X104229523Y-123854819D02*
X103658095Y-124426247D01*
X201468452Y-100704819D02*
X201135119Y-100228628D01*
X200897024Y-100704819D02*
X200897024Y-99704819D01*
X200897024Y-99704819D02*
X201277976Y-99704819D01*
X201277976Y-99704819D02*
X201373214Y-99752438D01*
X201373214Y-99752438D02*
X201420833Y-99800057D01*
X201420833Y-99800057D02*
X201468452Y-99895295D01*
X201468452Y-99895295D02*
X201468452Y-100038152D01*
X201468452Y-100038152D02*
X201420833Y-100133390D01*
X201420833Y-100133390D02*
X201373214Y-100181009D01*
X201373214Y-100181009D02*
X201277976Y-100228628D01*
X201277976Y-100228628D02*
X200897024Y-100228628D01*
X201897024Y-100704819D02*
X201897024Y-99704819D01*
X201897024Y-100085771D02*
X201992262Y-100038152D01*
X201992262Y-100038152D02*
X202182738Y-100038152D01*
X202182738Y-100038152D02*
X202277976Y-100085771D01*
X202277976Y-100085771D02*
X202325595Y-100133390D01*
X202325595Y-100133390D02*
X202373214Y-100228628D01*
X202373214Y-100228628D02*
X202373214Y-100514342D01*
X202373214Y-100514342D02*
X202325595Y-100609580D01*
X202325595Y-100609580D02*
X202277976Y-100657200D01*
X202277976Y-100657200D02*
X202182738Y-100704819D01*
X202182738Y-100704819D02*
X201992262Y-100704819D01*
X201992262Y-100704819D02*
X201897024Y-100657200D01*
X202706548Y-99704819D02*
X203325595Y-99704819D01*
X203325595Y-99704819D02*
X202992262Y-100085771D01*
X202992262Y-100085771D02*
X203135119Y-100085771D01*
X203135119Y-100085771D02*
X203230357Y-100133390D01*
X203230357Y-100133390D02*
X203277976Y-100181009D01*
X203277976Y-100181009D02*
X203325595Y-100276247D01*
X203325595Y-100276247D02*
X203325595Y-100514342D01*
X203325595Y-100514342D02*
X203277976Y-100609580D01*
X203277976Y-100609580D02*
X203230357Y-100657200D01*
X203230357Y-100657200D02*
X203135119Y-100704819D01*
X203135119Y-100704819D02*
X202849405Y-100704819D01*
X202849405Y-100704819D02*
X202754167Y-100657200D01*
X202754167Y-100657200D02*
X202706548Y-100609580D01*
X119134761Y-123350057D02*
X119039523Y-123302438D01*
X119039523Y-123302438D02*
X118944285Y-123207200D01*
X118944285Y-123207200D02*
X118801428Y-123064342D01*
X118801428Y-123064342D02*
X118706190Y-123016723D01*
X118706190Y-123016723D02*
X118610952Y-123016723D01*
X118658571Y-123254819D02*
X118563333Y-123207200D01*
X118563333Y-123207200D02*
X118468095Y-123111961D01*
X118468095Y-123111961D02*
X118420476Y-122921485D01*
X118420476Y-122921485D02*
X118420476Y-122588152D01*
X118420476Y-122588152D02*
X118468095Y-122397676D01*
X118468095Y-122397676D02*
X118563333Y-122302438D01*
X118563333Y-122302438D02*
X118658571Y-122254819D01*
X118658571Y-122254819D02*
X118849047Y-122254819D01*
X118849047Y-122254819D02*
X118944285Y-122302438D01*
X118944285Y-122302438D02*
X119039523Y-122397676D01*
X119039523Y-122397676D02*
X119087142Y-122588152D01*
X119087142Y-122588152D02*
X119087142Y-122921485D01*
X119087142Y-122921485D02*
X119039523Y-123111961D01*
X119039523Y-123111961D02*
X118944285Y-123207200D01*
X118944285Y-123207200D02*
X118849047Y-123254819D01*
X118849047Y-123254819D02*
X118658571Y-123254819D01*
X119468095Y-122350057D02*
X119515714Y-122302438D01*
X119515714Y-122302438D02*
X119610952Y-122254819D01*
X119610952Y-122254819D02*
X119849047Y-122254819D01*
X119849047Y-122254819D02*
X119944285Y-122302438D01*
X119944285Y-122302438D02*
X119991904Y-122350057D01*
X119991904Y-122350057D02*
X120039523Y-122445295D01*
X120039523Y-122445295D02*
X120039523Y-122540533D01*
X120039523Y-122540533D02*
X119991904Y-122683390D01*
X119991904Y-122683390D02*
X119420476Y-123254819D01*
X119420476Y-123254819D02*
X120039523Y-123254819D01*
X107404761Y-58654819D02*
X107071428Y-58178628D01*
X106833333Y-58654819D02*
X106833333Y-57654819D01*
X106833333Y-57654819D02*
X107214285Y-57654819D01*
X107214285Y-57654819D02*
X107309523Y-57702438D01*
X107309523Y-57702438D02*
X107357142Y-57750057D01*
X107357142Y-57750057D02*
X107404761Y-57845295D01*
X107404761Y-57845295D02*
X107404761Y-57988152D01*
X107404761Y-57988152D02*
X107357142Y-58083390D01*
X107357142Y-58083390D02*
X107309523Y-58131009D01*
X107309523Y-58131009D02*
X107214285Y-58178628D01*
X107214285Y-58178628D02*
X106833333Y-58178628D01*
X107690476Y-57654819D02*
X108023809Y-58654819D01*
X108023809Y-58654819D02*
X108357142Y-57654819D01*
X109214285Y-58654819D02*
X108642857Y-58654819D01*
X108928571Y-58654819D02*
X108928571Y-57654819D01*
X108928571Y-57654819D02*
X108833333Y-57797676D01*
X108833333Y-57797676D02*
X108738095Y-57892914D01*
X108738095Y-57892914D02*
X108642857Y-57940533D01*
X213738095Y-32304819D02*
X213738095Y-31304819D01*
X213738095Y-31781009D02*
X214309523Y-31781009D01*
X214309523Y-32304819D02*
X214309523Y-31304819D01*
X214690476Y-31304819D02*
X215309523Y-31304819D01*
X215309523Y-31304819D02*
X214976190Y-31685771D01*
X214976190Y-31685771D02*
X215119047Y-31685771D01*
X215119047Y-31685771D02*
X215214285Y-31733390D01*
X215214285Y-31733390D02*
X215261904Y-31781009D01*
X215261904Y-31781009D02*
X215309523Y-31876247D01*
X215309523Y-31876247D02*
X215309523Y-32114342D01*
X215309523Y-32114342D02*
X215261904Y-32209580D01*
X215261904Y-32209580D02*
X215214285Y-32257200D01*
X215214285Y-32257200D02*
X215119047Y-32304819D01*
X215119047Y-32304819D02*
X214833333Y-32304819D01*
X214833333Y-32304819D02*
X214738095Y-32257200D01*
X214738095Y-32257200D02*
X214690476Y-32209580D01*
X206179580Y-89783333D02*
X206227200Y-89830952D01*
X206227200Y-89830952D02*
X206274819Y-89973809D01*
X206274819Y-89973809D02*
X206274819Y-90069047D01*
X206274819Y-90069047D02*
X206227200Y-90211904D01*
X206227200Y-90211904D02*
X206131961Y-90307142D01*
X206131961Y-90307142D02*
X206036723Y-90354761D01*
X206036723Y-90354761D02*
X205846247Y-90402380D01*
X205846247Y-90402380D02*
X205703390Y-90402380D01*
X205703390Y-90402380D02*
X205512914Y-90354761D01*
X205512914Y-90354761D02*
X205417676Y-90307142D01*
X205417676Y-90307142D02*
X205322438Y-90211904D01*
X205322438Y-90211904D02*
X205274819Y-90069047D01*
X205274819Y-90069047D02*
X205274819Y-89973809D01*
X205274819Y-89973809D02*
X205322438Y-89830952D01*
X205322438Y-89830952D02*
X205370057Y-89783333D01*
X206370057Y-89592857D02*
X206370057Y-88830952D01*
X206227200Y-88211904D02*
X206274819Y-88307142D01*
X206274819Y-88307142D02*
X206274819Y-88497618D01*
X206274819Y-88497618D02*
X206227200Y-88592856D01*
X206227200Y-88592856D02*
X206131961Y-88640475D01*
X206131961Y-88640475D02*
X205751009Y-88640475D01*
X205751009Y-88640475D02*
X205655771Y-88592856D01*
X205655771Y-88592856D02*
X205608152Y-88497618D01*
X205608152Y-88497618D02*
X205608152Y-88307142D01*
X205608152Y-88307142D02*
X205655771Y-88211904D01*
X205655771Y-88211904D02*
X205751009Y-88164285D01*
X205751009Y-88164285D02*
X205846247Y-88164285D01*
X205846247Y-88164285D02*
X205941485Y-88640475D01*
X206227200Y-87783332D02*
X206274819Y-87688094D01*
X206274819Y-87688094D02*
X206274819Y-87497618D01*
X206274819Y-87497618D02*
X206227200Y-87402380D01*
X206227200Y-87402380D02*
X206131961Y-87354761D01*
X206131961Y-87354761D02*
X206084342Y-87354761D01*
X206084342Y-87354761D02*
X205989104Y-87402380D01*
X205989104Y-87402380D02*
X205941485Y-87497618D01*
X205941485Y-87497618D02*
X205941485Y-87640475D01*
X205941485Y-87640475D02*
X205893866Y-87735713D01*
X205893866Y-87735713D02*
X205798628Y-87783332D01*
X205798628Y-87783332D02*
X205751009Y-87783332D01*
X205751009Y-87783332D02*
X205655771Y-87735713D01*
X205655771Y-87735713D02*
X205608152Y-87640475D01*
X205608152Y-87640475D02*
X205608152Y-87497618D01*
X205608152Y-87497618D02*
X205655771Y-87402380D01*
X205608152Y-86926189D02*
X206608152Y-86926189D01*
X205655771Y-86926189D02*
X205608152Y-86830951D01*
X205608152Y-86830951D02*
X205608152Y-86640475D01*
X205608152Y-86640475D02*
X205655771Y-86545237D01*
X205655771Y-86545237D02*
X205703390Y-86497618D01*
X205703390Y-86497618D02*
X205798628Y-86449999D01*
X205798628Y-86449999D02*
X206084342Y-86449999D01*
X206084342Y-86449999D02*
X206179580Y-86497618D01*
X206179580Y-86497618D02*
X206227200Y-86545237D01*
X206227200Y-86545237D02*
X206274819Y-86640475D01*
X206274819Y-86640475D02*
X206274819Y-86830951D01*
X206274819Y-86830951D02*
X206227200Y-86926189D01*
X206274819Y-85497618D02*
X206274819Y-86069046D01*
X206274819Y-85783332D02*
X205274819Y-85783332D01*
X205274819Y-85783332D02*
X205417676Y-85878570D01*
X205417676Y-85878570D02*
X205512914Y-85973808D01*
X205512914Y-85973808D02*
X205560533Y-86069046D01*
X201468452Y-97754819D02*
X201135119Y-97278628D01*
X200897024Y-97754819D02*
X200897024Y-96754819D01*
X200897024Y-96754819D02*
X201277976Y-96754819D01*
X201277976Y-96754819D02*
X201373214Y-96802438D01*
X201373214Y-96802438D02*
X201420833Y-96850057D01*
X201420833Y-96850057D02*
X201468452Y-96945295D01*
X201468452Y-96945295D02*
X201468452Y-97088152D01*
X201468452Y-97088152D02*
X201420833Y-97183390D01*
X201420833Y-97183390D02*
X201373214Y-97231009D01*
X201373214Y-97231009D02*
X201277976Y-97278628D01*
X201277976Y-97278628D02*
X200897024Y-97278628D01*
X201897024Y-97754819D02*
X201897024Y-96754819D01*
X201897024Y-97135771D02*
X201992262Y-97088152D01*
X201992262Y-97088152D02*
X202182738Y-97088152D01*
X202182738Y-97088152D02*
X202277976Y-97135771D01*
X202277976Y-97135771D02*
X202325595Y-97183390D01*
X202325595Y-97183390D02*
X202373214Y-97278628D01*
X202373214Y-97278628D02*
X202373214Y-97564342D01*
X202373214Y-97564342D02*
X202325595Y-97659580D01*
X202325595Y-97659580D02*
X202277976Y-97707200D01*
X202277976Y-97707200D02*
X202182738Y-97754819D01*
X202182738Y-97754819D02*
X201992262Y-97754819D01*
X201992262Y-97754819D02*
X201897024Y-97707200D01*
X202754167Y-96850057D02*
X202801786Y-96802438D01*
X202801786Y-96802438D02*
X202897024Y-96754819D01*
X202897024Y-96754819D02*
X203135119Y-96754819D01*
X203135119Y-96754819D02*
X203230357Y-96802438D01*
X203230357Y-96802438D02*
X203277976Y-96850057D01*
X203277976Y-96850057D02*
X203325595Y-96945295D01*
X203325595Y-96945295D02*
X203325595Y-97040533D01*
X203325595Y-97040533D02*
X203277976Y-97183390D01*
X203277976Y-97183390D02*
X202706548Y-97754819D01*
X202706548Y-97754819D02*
X203325595Y-97754819D01*
D11*
%TO.C,Q3*%
X117573140Y-145350000D02*
X121173140Y-145350000D01*
X117534662Y-145338478D02*
G75*
G02*
X119373140Y-140899999I1838478J1838478D01*
G01*
X119373140Y-140900000D02*
G75*
G02*
X121211618Y-145338478I0J-2600000D01*
G01*
%TO.C,R1*%
X214765000Y-111814564D02*
X214765000Y-111360436D01*
X216235000Y-111814564D02*
X216235000Y-111360436D01*
%TO.C,U2*%
X155440000Y-100090000D02*
X155440000Y-101350000D01*
X155440000Y-106910000D02*
X155440000Y-105650000D01*
X159200000Y-100090000D02*
X155440000Y-100090000D01*
X159200000Y-106910000D02*
X155440000Y-106910000D01*
X160720000Y-107140000D02*
X160240000Y-107140000D01*
X160480000Y-106810000D01*
X160720000Y-107140000D01*
G36*
X160720000Y-107140000D02*
G01*
X160240000Y-107140000D01*
X160480000Y-106810000D01*
X160720000Y-107140000D01*
G37*
%TO.C,J3*%
X69887500Y-104000000D02*
X80377500Y-104000000D01*
X69887500Y-106360000D02*
X69887500Y-104000000D01*
X69887500Y-115000000D02*
X69887500Y-106960000D01*
X71007500Y-104000000D02*
X71007500Y-115000000D01*
X78757500Y-104000000D02*
X78757500Y-115000000D01*
X80377500Y-104000000D02*
X80377500Y-115000000D01*
X80377500Y-115000000D02*
X69887500Y-115000000D01*
X69887500Y-106660000D02*
X69277500Y-107100000D01*
X69277500Y-106220000D01*
X69887500Y-106660000D01*
G36*
X69887500Y-106660000D02*
G01*
X69277500Y-107100000D01*
X69277500Y-106220000D01*
X69887500Y-106660000D01*
G37*
%TO.C,J1*%
X64340000Y-49840000D02*
X74830000Y-49840000D01*
X64340000Y-52200000D02*
X64340000Y-49840000D01*
X64340000Y-60840000D02*
X64340000Y-52800000D01*
X65460000Y-49840000D02*
X65460000Y-60840000D01*
X73210000Y-49840000D02*
X73210000Y-60840000D01*
X74830000Y-49840000D02*
X74830000Y-60840000D01*
X74830000Y-60840000D02*
X64340000Y-60840000D01*
X64340000Y-52500000D02*
X63730000Y-52940000D01*
X63730000Y-52060000D01*
X64340000Y-52500000D01*
G36*
X64340000Y-52500000D02*
G01*
X63730000Y-52940000D01*
X63730000Y-52060000D01*
X64340000Y-52500000D01*
G37*
%TO.C,K3*%
X82250000Y-135700000D02*
X82250000Y-142300000D01*
X82250000Y-135700000D02*
X102050000Y-135700000D01*
X82250000Y-144700000D02*
X82250000Y-151300000D01*
X86300000Y-143550000D02*
X85500000Y-143550000D01*
X86300000Y-143550000D02*
X86300000Y-147150000D01*
X87200000Y-149550000D02*
X89700000Y-149550000D01*
X87700000Y-141750000D02*
X91700000Y-141750000D01*
X87700000Y-145350000D02*
X87700000Y-141750000D01*
X89700000Y-137550000D02*
X87200000Y-137550000D01*
X89700000Y-137550000D02*
X89700000Y-141750000D01*
X89700000Y-145350000D02*
X89700000Y-149550000D01*
X91700000Y-141750000D02*
X91700000Y-145350000D01*
X91700000Y-145350000D02*
X87700000Y-141750000D01*
X91700000Y-145350000D02*
X87700000Y-145350000D01*
X93100000Y-143550000D02*
X93100000Y-147150000D01*
X93100000Y-143550000D02*
X94600000Y-143550000D01*
X93100000Y-147150000D02*
X86300000Y-147150000D01*
X94600000Y-143550000D02*
X99200000Y-141050000D01*
X97800000Y-139300000D02*
X97800000Y-141800000D01*
X97800000Y-147700000D02*
X97800000Y-145250000D01*
X102050000Y-135700000D02*
X102050000Y-151300000D01*
X102050000Y-151300000D02*
X82250000Y-151300000D01*
%TO.C,Q1*%
X117700000Y-111350000D02*
X121300000Y-111350000D01*
X117661522Y-111338478D02*
G75*
G02*
X119500000Y-106899999I1838478J1838478D01*
G01*
X119500000Y-106900000D02*
G75*
G02*
X121338478Y-111338478I0J-2600000D01*
G01*
%TO.C,K2*%
X82250000Y-118750000D02*
X82250000Y-125350000D01*
X82250000Y-118750000D02*
X102050000Y-118750000D01*
X82250000Y-127750000D02*
X82250000Y-134350000D01*
X86300000Y-126600000D02*
X85500000Y-126600000D01*
X86300000Y-126600000D02*
X86300000Y-130200000D01*
X87200000Y-132600000D02*
X89700000Y-132600000D01*
X87700000Y-124800000D02*
X91700000Y-124800000D01*
X87700000Y-128400000D02*
X87700000Y-124800000D01*
X89700000Y-120600000D02*
X87200000Y-120600000D01*
X89700000Y-120600000D02*
X89700000Y-124800000D01*
X89700000Y-128400000D02*
X89700000Y-132600000D01*
X91700000Y-124800000D02*
X91700000Y-128400000D01*
X91700000Y-128400000D02*
X87700000Y-124800000D01*
X91700000Y-128400000D02*
X87700000Y-128400000D01*
X93100000Y-126600000D02*
X93100000Y-130200000D01*
X93100000Y-126600000D02*
X94600000Y-126600000D01*
X93100000Y-130200000D02*
X86300000Y-130200000D01*
X94600000Y-126600000D02*
X99200000Y-124100000D01*
X97800000Y-122350000D02*
X97800000Y-124850000D01*
X97800000Y-130750000D02*
X97800000Y-128300000D01*
X102050000Y-118750000D02*
X102050000Y-134350000D01*
X102050000Y-134350000D02*
X82250000Y-134350000D01*
%TO.C,Rb1*%
X201860436Y-95265000D02*
X202314564Y-95265000D01*
X201860436Y-96735000D02*
X202314564Y-96735000D01*
%TO.C,PU_R5*%
X210765000Y-113227064D02*
X210765000Y-112772936D01*
X212235000Y-113227064D02*
X212235000Y-112772936D01*
%TO.C,K1*%
X82100000Y-101700000D02*
X82100000Y-108300000D01*
X82100000Y-101700000D02*
X101900000Y-101700000D01*
X82100000Y-110700000D02*
X82100000Y-117300000D01*
X86150000Y-109550000D02*
X85350000Y-109550000D01*
X86150000Y-109550000D02*
X86150000Y-113150000D01*
X87050000Y-115550000D02*
X89550000Y-115550000D01*
X87550000Y-107750000D02*
X91550000Y-107750000D01*
X87550000Y-111350000D02*
X87550000Y-107750000D01*
X89550000Y-103550000D02*
X87050000Y-103550000D01*
X89550000Y-103550000D02*
X89550000Y-107750000D01*
X89550000Y-111350000D02*
X89550000Y-115550000D01*
X91550000Y-107750000D02*
X91550000Y-111350000D01*
X91550000Y-111350000D02*
X87550000Y-107750000D01*
X91550000Y-111350000D02*
X87550000Y-111350000D01*
X92950000Y-109550000D02*
X92950000Y-113150000D01*
X92950000Y-109550000D02*
X94450000Y-109550000D01*
X92950000Y-113150000D02*
X86150000Y-113150000D01*
X94450000Y-109550000D02*
X99050000Y-107050000D01*
X97650000Y-105300000D02*
X97650000Y-107800000D01*
X97650000Y-113700000D02*
X97650000Y-111250000D01*
X101900000Y-101700000D02*
X101900000Y-117300000D01*
X101900000Y-117300000D02*
X82100000Y-117300000D01*
%TO.C,D1*%
X105180000Y-109500000D02*
X106200000Y-109500000D01*
X106980000Y-108030000D02*
X106980000Y-110970000D01*
X107100000Y-108030000D02*
X107100000Y-110970000D01*
X107220000Y-108030000D02*
X107220000Y-110970000D01*
X112660000Y-109500000D02*
X111640000Y-109500000D01*
X106200000Y-108030000D02*
X111640000Y-108030000D01*
X111640000Y-110970000D01*
X106200000Y-110970000D01*
X106200000Y-108030000D01*
%TO.C,TP3*%
X206300000Y-111200000D02*
X206300000Y-116100000D01*
X206300000Y-116100000D02*
X208700000Y-116100000D01*
X208700000Y-111200000D02*
X206300000Y-111200000D01*
X208700000Y-116100000D02*
X208700000Y-111200000D01*
%TO.C,PU_R4*%
X212265000Y-120227064D02*
X212265000Y-119772936D01*
X213735000Y-120227064D02*
X213735000Y-119772936D01*
%TO.C,PS1*%
X80140000Y-60242500D02*
X93704000Y-60242500D01*
X80140000Y-97262500D02*
X80140000Y-60242500D01*
X94296000Y-60242500D02*
X102860000Y-60242500D01*
X102860000Y-60242500D02*
X102860000Y-97262500D01*
X102860000Y-97262500D02*
X80140000Y-97262500D01*
X94000000Y-60242500D02*
X93560000Y-59632500D01*
X94440000Y-59632500D01*
X94000000Y-60242500D01*
G36*
X94000000Y-60242500D02*
G01*
X93560000Y-59632500D01*
X94440000Y-59632500D01*
X94000000Y-60242500D01*
G37*
%TO.C,J5*%
X69887500Y-138500000D02*
X80377500Y-138500000D01*
X69887500Y-140860000D02*
X69887500Y-138500000D01*
X69887500Y-149500000D02*
X69887500Y-141460000D01*
X71007500Y-138500000D02*
X71007500Y-149500000D01*
X78757500Y-138500000D02*
X78757500Y-149500000D01*
X80377500Y-138500000D02*
X80377500Y-149500000D01*
X80377500Y-149500000D02*
X69887500Y-149500000D01*
X69887500Y-141160000D02*
X69277500Y-141600000D01*
X69277500Y-140720000D01*
X69887500Y-141160000D01*
G36*
X69887500Y-141160000D02*
G01*
X69277500Y-141600000D01*
X69277500Y-140720000D01*
X69887500Y-141160000D01*
G37*
%TO.C,C_out1*%
X164499759Y-105411000D02*
X165129759Y-105411000D01*
X164814759Y-105096000D02*
X164814759Y-105726000D01*
X168000000Y-104020000D02*
X168000000Y-110480000D01*
X168040000Y-104020000D02*
X168040000Y-110480000D01*
X168080000Y-104021000D02*
X168080000Y-110479000D01*
X168120000Y-104022000D02*
X168120000Y-110478000D01*
X168160000Y-104024000D02*
X168160000Y-110476000D01*
X168200000Y-104026000D02*
X168200000Y-110474000D01*
X168240000Y-104029000D02*
X168240000Y-106210000D01*
X168240000Y-108290000D02*
X168240000Y-110471000D01*
X168280000Y-104032000D02*
X168280000Y-106210000D01*
X168280000Y-108290000D02*
X168280000Y-110468000D01*
X168320000Y-104036000D02*
X168320000Y-106210000D01*
X168320000Y-108290000D02*
X168320000Y-110464000D01*
X168360000Y-104040000D02*
X168360000Y-106210000D01*
X168360000Y-108290000D02*
X168360000Y-110460000D01*
X168400000Y-104045000D02*
X168400000Y-106210000D01*
X168400000Y-108290000D02*
X168400000Y-110455000D01*
X168440000Y-104050000D02*
X168440000Y-106210000D01*
X168440000Y-108290000D02*
X168440000Y-110450000D01*
X168480000Y-104055000D02*
X168480000Y-106210000D01*
X168480000Y-108290000D02*
X168480000Y-110445000D01*
X168520000Y-104062000D02*
X168520000Y-106210000D01*
X168520000Y-108290000D02*
X168520000Y-110438000D01*
X168560000Y-104068000D02*
X168560000Y-106210000D01*
X168560000Y-108290000D02*
X168560000Y-110432000D01*
X168600000Y-104076000D02*
X168600000Y-106210000D01*
X168600000Y-108290000D02*
X168600000Y-110424000D01*
X168640000Y-104083000D02*
X168640000Y-106210000D01*
X168640000Y-108290000D02*
X168640000Y-110417000D01*
X168680000Y-104091000D02*
X168680000Y-106210000D01*
X168680000Y-108290000D02*
X168680000Y-110409000D01*
X168720000Y-104100000D02*
X168720000Y-106210000D01*
X168720000Y-108290000D02*
X168720000Y-110400000D01*
X168760000Y-104110000D02*
X168760000Y-106210000D01*
X168760000Y-108290000D02*
X168760000Y-110390000D01*
X168800000Y-104119000D02*
X168800000Y-106210000D01*
X168800000Y-108290000D02*
X168800000Y-110381000D01*
X168840000Y-104130000D02*
X168840000Y-106210000D01*
X168840000Y-108290000D02*
X168840000Y-110370000D01*
X168880000Y-104141000D02*
X168880000Y-106210000D01*
X168880000Y-108290000D02*
X168880000Y-110359000D01*
X168920000Y-104152000D02*
X168920000Y-106210000D01*
X168920000Y-108290000D02*
X168920000Y-110348000D01*
X168960000Y-104164000D02*
X168960000Y-106210000D01*
X168960000Y-108290000D02*
X168960000Y-110336000D01*
X169000000Y-104177000D02*
X169000000Y-106210000D01*
X169000000Y-108290000D02*
X169000000Y-110323000D01*
X169040000Y-104190000D02*
X169040000Y-106210000D01*
X169040000Y-108290000D02*
X169040000Y-110310000D01*
X169080000Y-104203000D02*
X169080000Y-106210000D01*
X169080000Y-108290000D02*
X169080000Y-110297000D01*
X169120000Y-104218000D02*
X169120000Y-106210000D01*
X169120000Y-108290000D02*
X169120000Y-110282000D01*
X169160000Y-104233000D02*
X169160000Y-106210000D01*
X169160000Y-108290000D02*
X169160000Y-110267000D01*
X169200000Y-104248000D02*
X169200000Y-106210000D01*
X169200000Y-108290000D02*
X169200000Y-110252000D01*
X169240000Y-104264000D02*
X169240000Y-106210000D01*
X169240000Y-108290000D02*
X169240000Y-110236000D01*
X169280000Y-104281000D02*
X169280000Y-106210000D01*
X169280000Y-108290000D02*
X169280000Y-110219000D01*
X169320000Y-104298000D02*
X169320000Y-106210000D01*
X169320000Y-108290000D02*
X169320000Y-110202000D01*
X169360000Y-104316000D02*
X169360000Y-106210000D01*
X169360000Y-108290000D02*
X169360000Y-110184000D01*
X169400000Y-104335000D02*
X169400000Y-106210000D01*
X169400000Y-108290000D02*
X169400000Y-110165000D01*
X169440000Y-104354000D02*
X169440000Y-106210000D01*
X169440000Y-108290000D02*
X169440000Y-110146000D01*
X169480000Y-104374000D02*
X169480000Y-106210000D01*
X169480000Y-108290000D02*
X169480000Y-110126000D01*
X169520000Y-104395000D02*
X169520000Y-106210000D01*
X169520000Y-108290000D02*
X169520000Y-110105000D01*
X169560000Y-104416000D02*
X169560000Y-106210000D01*
X169560000Y-108290000D02*
X169560000Y-110084000D01*
X169600000Y-104438000D02*
X169600000Y-106210000D01*
X169600000Y-108290000D02*
X169600000Y-110062000D01*
X169640000Y-104461000D02*
X169640000Y-106210000D01*
X169640000Y-108290000D02*
X169640000Y-110039000D01*
X169680000Y-104485000D02*
X169680000Y-106210000D01*
X169680000Y-108290000D02*
X169680000Y-110015000D01*
X169720000Y-104509000D02*
X169720000Y-106210000D01*
X169720000Y-108290000D02*
X169720000Y-109991000D01*
X169760000Y-104534000D02*
X169760000Y-106210000D01*
X169760000Y-108290000D02*
X169760000Y-109966000D01*
X169800000Y-104560000D02*
X169800000Y-106210000D01*
X169800000Y-108290000D02*
X169800000Y-109940000D01*
X169840000Y-104587000D02*
X169840000Y-106210000D01*
X169840000Y-108290000D02*
X169840000Y-109913000D01*
X169880000Y-104614000D02*
X169880000Y-106210000D01*
X169880000Y-108290000D02*
X169880000Y-109886000D01*
X169920000Y-104643000D02*
X169920000Y-106210000D01*
X169920000Y-108290000D02*
X169920000Y-109857000D01*
X169960000Y-104673000D02*
X169960000Y-106210000D01*
X169960000Y-108290000D02*
X169960000Y-109827000D01*
X170000000Y-104703000D02*
X170000000Y-106210000D01*
X170000000Y-108290000D02*
X170000000Y-109797000D01*
X170040000Y-104734000D02*
X170040000Y-106210000D01*
X170040000Y-108290000D02*
X170040000Y-109766000D01*
X170080000Y-104767000D02*
X170080000Y-106210000D01*
X170080000Y-108290000D02*
X170080000Y-109733000D01*
X170120000Y-104800000D02*
X170120000Y-106210000D01*
X170120000Y-108290000D02*
X170120000Y-109700000D01*
X170160000Y-104835000D02*
X170160000Y-106210000D01*
X170160000Y-108290000D02*
X170160000Y-109665000D01*
X170200000Y-104871000D02*
X170200000Y-106210000D01*
X170200000Y-108290000D02*
X170200000Y-109629000D01*
X170240000Y-104908000D02*
X170240000Y-106210000D01*
X170240000Y-108290000D02*
X170240000Y-109592000D01*
X170280000Y-104946000D02*
X170280000Y-106210000D01*
X170280000Y-108290000D02*
X170280000Y-109554000D01*
X170320000Y-104986000D02*
X170320000Y-109514000D01*
X170360000Y-105027000D02*
X170360000Y-109473000D01*
X170400000Y-105069000D02*
X170400000Y-109431000D01*
X170440000Y-105113000D02*
X170440000Y-109387000D01*
X170480000Y-105159000D02*
X170480000Y-109341000D01*
X170520000Y-105206000D02*
X170520000Y-109294000D01*
X170560000Y-105255000D02*
X170560000Y-109245000D01*
X170600000Y-105307000D02*
X170600000Y-109193000D01*
X170640000Y-105360000D02*
X170640000Y-109140000D01*
X170680000Y-105416000D02*
X170680000Y-109084000D01*
X170720000Y-105475000D02*
X170720000Y-109025000D01*
X170760000Y-105536000D02*
X170760000Y-108964000D01*
X170800000Y-105601000D02*
X170800000Y-108899000D01*
X170840000Y-105669000D02*
X170840000Y-108831000D01*
X170880000Y-105741000D02*
X170880000Y-108759000D01*
X170920000Y-105818000D02*
X170920000Y-108682000D01*
X170960000Y-105900000D02*
X170960000Y-108600000D01*
X171000000Y-105989000D02*
X171000000Y-108511000D01*
X171040000Y-106085000D02*
X171040000Y-108415000D01*
X171080000Y-106192000D02*
X171080000Y-108308000D01*
X171120000Y-106311000D02*
X171120000Y-108189000D01*
X171160000Y-106449000D02*
X171160000Y-108051000D01*
X171200000Y-106617000D02*
X171200000Y-107883000D01*
X171240000Y-106848000D02*
X171240000Y-107652000D01*
X171270000Y-107250000D02*
G75*
G02*
X164730000Y-107250000I-3270000J0D01*
G01*
X164730000Y-107250000D02*
G75*
G02*
X171270000Y-107250000I3270000J0D01*
G01*
%TO.C,TP2*%
X156500000Y-110370000D02*
X156500000Y-115270000D01*
X156500000Y-115270000D02*
X158900000Y-115270000D01*
X158900000Y-110370000D02*
X156500000Y-110370000D01*
X158900000Y-115270000D02*
X158900000Y-110370000D01*
%TO.C,PU_R3*%
X216765000Y-87814564D02*
X216765000Y-87360436D01*
X218235000Y-87814564D02*
X218235000Y-87360436D01*
%TO.C,J2*%
X225870000Y-118870000D02*
X227250000Y-118870000D01*
X225870000Y-120250000D02*
X225870000Y-118870000D01*
X225870000Y-121520000D02*
X225870000Y-129250000D01*
X225870000Y-121520000D02*
X228630000Y-121520000D01*
X225870000Y-129250000D02*
X228630000Y-129250000D01*
X228630000Y-121520000D02*
X228630000Y-129250000D01*
%TO.C,TP1*%
X73530000Y-92300000D02*
X73530000Y-94700000D01*
X73530000Y-94700000D02*
X78430000Y-94700000D01*
X78430000Y-92300000D02*
X73530000Y-92300000D01*
X78430000Y-94700000D02*
X78430000Y-92300000D01*
%TO.C,C_in1*%
X162249759Y-92161000D02*
X162879759Y-92161000D01*
X162564759Y-91846000D02*
X162564759Y-92476000D01*
X165750000Y-90770000D02*
X165750000Y-97230000D01*
X165790000Y-90770000D02*
X165790000Y-97230000D01*
X165830000Y-90771000D02*
X165830000Y-97229000D01*
X165870000Y-90772000D02*
X165870000Y-97228000D01*
X165910000Y-90774000D02*
X165910000Y-97226000D01*
X165950000Y-90776000D02*
X165950000Y-97224000D01*
X165990000Y-90779000D02*
X165990000Y-92960000D01*
X165990000Y-95040000D02*
X165990000Y-97221000D01*
X166030000Y-90782000D02*
X166030000Y-92960000D01*
X166030000Y-95040000D02*
X166030000Y-97218000D01*
X166070000Y-90786000D02*
X166070000Y-92960000D01*
X166070000Y-95040000D02*
X166070000Y-97214000D01*
X166110000Y-90790000D02*
X166110000Y-92960000D01*
X166110000Y-95040000D02*
X166110000Y-97210000D01*
X166150000Y-90795000D02*
X166150000Y-92960000D01*
X166150000Y-95040000D02*
X166150000Y-97205000D01*
X166190000Y-90800000D02*
X166190000Y-92960000D01*
X166190000Y-95040000D02*
X166190000Y-97200000D01*
X166230000Y-90805000D02*
X166230000Y-92960000D01*
X166230000Y-95040000D02*
X166230000Y-97195000D01*
X166270000Y-90812000D02*
X166270000Y-92960000D01*
X166270000Y-95040000D02*
X166270000Y-97188000D01*
X166310000Y-90818000D02*
X166310000Y-92960000D01*
X166310000Y-95040000D02*
X166310000Y-97182000D01*
X166350000Y-90826000D02*
X166350000Y-92960000D01*
X166350000Y-95040000D02*
X166350000Y-97174000D01*
X166390000Y-90833000D02*
X166390000Y-92960000D01*
X166390000Y-95040000D02*
X166390000Y-97167000D01*
X166430000Y-90841000D02*
X166430000Y-92960000D01*
X166430000Y-95040000D02*
X166430000Y-97159000D01*
X166470000Y-90850000D02*
X166470000Y-92960000D01*
X166470000Y-95040000D02*
X166470000Y-97150000D01*
X166510000Y-90860000D02*
X166510000Y-92960000D01*
X166510000Y-95040000D02*
X166510000Y-97140000D01*
X166550000Y-90869000D02*
X166550000Y-92960000D01*
X166550000Y-95040000D02*
X166550000Y-97131000D01*
X166590000Y-90880000D02*
X166590000Y-92960000D01*
X166590000Y-95040000D02*
X166590000Y-97120000D01*
X166630000Y-90891000D02*
X166630000Y-92960000D01*
X166630000Y-95040000D02*
X166630000Y-97109000D01*
X166670000Y-90902000D02*
X166670000Y-92960000D01*
X166670000Y-95040000D02*
X166670000Y-97098000D01*
X166710000Y-90914000D02*
X166710000Y-92960000D01*
X166710000Y-95040000D02*
X166710000Y-97086000D01*
X166750000Y-90927000D02*
X166750000Y-92960000D01*
X166750000Y-95040000D02*
X166750000Y-97073000D01*
X166790000Y-90940000D02*
X166790000Y-92960000D01*
X166790000Y-95040000D02*
X166790000Y-97060000D01*
X166830000Y-90953000D02*
X166830000Y-92960000D01*
X166830000Y-95040000D02*
X166830000Y-97047000D01*
X166870000Y-90968000D02*
X166870000Y-92960000D01*
X166870000Y-95040000D02*
X166870000Y-97032000D01*
X166910000Y-90983000D02*
X166910000Y-92960000D01*
X166910000Y-95040000D02*
X166910000Y-97017000D01*
X166950000Y-90998000D02*
X166950000Y-92960000D01*
X166950000Y-95040000D02*
X166950000Y-97002000D01*
X166990000Y-91014000D02*
X166990000Y-92960000D01*
X166990000Y-95040000D02*
X166990000Y-96986000D01*
X167030000Y-91031000D02*
X167030000Y-92960000D01*
X167030000Y-95040000D02*
X167030000Y-96969000D01*
X167070000Y-91048000D02*
X167070000Y-92960000D01*
X167070000Y-95040000D02*
X167070000Y-96952000D01*
X167110000Y-91066000D02*
X167110000Y-92960000D01*
X167110000Y-95040000D02*
X167110000Y-96934000D01*
X167150000Y-91085000D02*
X167150000Y-92960000D01*
X167150000Y-95040000D02*
X167150000Y-96915000D01*
X167190000Y-91104000D02*
X167190000Y-92960000D01*
X167190000Y-95040000D02*
X167190000Y-96896000D01*
X167230000Y-91124000D02*
X167230000Y-92960000D01*
X167230000Y-95040000D02*
X167230000Y-96876000D01*
X167270000Y-91145000D02*
X167270000Y-92960000D01*
X167270000Y-95040000D02*
X167270000Y-96855000D01*
X167310000Y-91166000D02*
X167310000Y-92960000D01*
X167310000Y-95040000D02*
X167310000Y-96834000D01*
X167350000Y-91188000D02*
X167350000Y-92960000D01*
X167350000Y-95040000D02*
X167350000Y-96812000D01*
X167390000Y-91211000D02*
X167390000Y-92960000D01*
X167390000Y-95040000D02*
X167390000Y-96789000D01*
X167430000Y-91235000D02*
X167430000Y-92960000D01*
X167430000Y-95040000D02*
X167430000Y-96765000D01*
X167470000Y-91259000D02*
X167470000Y-92960000D01*
X167470000Y-95040000D02*
X167470000Y-96741000D01*
X167510000Y-91284000D02*
X167510000Y-92960000D01*
X167510000Y-95040000D02*
X167510000Y-96716000D01*
X167550000Y-91310000D02*
X167550000Y-92960000D01*
X167550000Y-95040000D02*
X167550000Y-96690000D01*
X167590000Y-91337000D02*
X167590000Y-92960000D01*
X167590000Y-95040000D02*
X167590000Y-96663000D01*
X167630000Y-91364000D02*
X167630000Y-92960000D01*
X167630000Y-95040000D02*
X167630000Y-96636000D01*
X167670000Y-91393000D02*
X167670000Y-92960000D01*
X167670000Y-95040000D02*
X167670000Y-96607000D01*
X167710000Y-91423000D02*
X167710000Y-92960000D01*
X167710000Y-95040000D02*
X167710000Y-96577000D01*
X167750000Y-91453000D02*
X167750000Y-92960000D01*
X167750000Y-95040000D02*
X167750000Y-96547000D01*
X167790000Y-91484000D02*
X167790000Y-92960000D01*
X167790000Y-95040000D02*
X167790000Y-96516000D01*
X167830000Y-91517000D02*
X167830000Y-92960000D01*
X167830000Y-95040000D02*
X167830000Y-96483000D01*
X167870000Y-91550000D02*
X167870000Y-92960000D01*
X167870000Y-95040000D02*
X167870000Y-96450000D01*
X167910000Y-91585000D02*
X167910000Y-92960000D01*
X167910000Y-95040000D02*
X167910000Y-96415000D01*
X167950000Y-91621000D02*
X167950000Y-92960000D01*
X167950000Y-95040000D02*
X167950000Y-96379000D01*
X167990000Y-91658000D02*
X167990000Y-92960000D01*
X167990000Y-95040000D02*
X167990000Y-96342000D01*
X168030000Y-91696000D02*
X168030000Y-92960000D01*
X168030000Y-95040000D02*
X168030000Y-96304000D01*
X168070000Y-91736000D02*
X168070000Y-96264000D01*
X168110000Y-91777000D02*
X168110000Y-96223000D01*
X168150000Y-91819000D02*
X168150000Y-96181000D01*
X168190000Y-91863000D02*
X168190000Y-96137000D01*
X168230000Y-91909000D02*
X168230000Y-96091000D01*
X168270000Y-91956000D02*
X168270000Y-96044000D01*
X168310000Y-92005000D02*
X168310000Y-95995000D01*
X168350000Y-92057000D02*
X168350000Y-95943000D01*
X168390000Y-92110000D02*
X168390000Y-95890000D01*
X168430000Y-92166000D02*
X168430000Y-95834000D01*
X168470000Y-92225000D02*
X168470000Y-95775000D01*
X168510000Y-92286000D02*
X168510000Y-95714000D01*
X168550000Y-92351000D02*
X168550000Y-95649000D01*
X168590000Y-92419000D02*
X168590000Y-95581000D01*
X168630000Y-92491000D02*
X168630000Y-95509000D01*
X168670000Y-92568000D02*
X168670000Y-95432000D01*
X168710000Y-92650000D02*
X168710000Y-95350000D01*
X168750000Y-92739000D02*
X168750000Y-95261000D01*
X168790000Y-92835000D02*
X168790000Y-95165000D01*
X168830000Y-92942000D02*
X168830000Y-95058000D01*
X168870000Y-93061000D02*
X168870000Y-94939000D01*
X168910000Y-93199000D02*
X168910000Y-94801000D01*
X168950000Y-93367000D02*
X168950000Y-94633000D01*
X168990000Y-93598000D02*
X168990000Y-94402000D01*
X169020000Y-94000000D02*
G75*
G02*
X162480000Y-94000000I-3270000J0D01*
G01*
X162480000Y-94000000D02*
G75*
G02*
X169020000Y-94000000I3270000J0D01*
G01*
%TO.C,U1*%
X205880000Y-92280000D02*
X206500000Y-92280000D01*
X205880000Y-94400000D02*
X205880000Y-92280000D01*
X205880000Y-108520000D02*
X205880000Y-106400000D01*
X206500000Y-108520000D02*
X205880000Y-108520000D01*
X222500000Y-92280000D02*
X230120000Y-92280000D01*
X230120000Y-92280000D02*
X230120000Y-108520000D01*
X230120000Y-108520000D02*
X222500000Y-108520000D01*
X222836000Y-92090000D02*
X222500000Y-91850000D01*
X222836000Y-91610000D01*
X222836000Y-92090000D01*
G36*
X222836000Y-92090000D02*
G01*
X222500000Y-91850000D01*
X222836000Y-91610000D01*
X222836000Y-92090000D01*
G37*
%TO.C,PU_R2*%
X208765000Y-120227064D02*
X208765000Y-119772936D01*
X210235000Y-120227064D02*
X210235000Y-119772936D01*
%TO.C,D4*%
X105010000Y-143500000D02*
X106030000Y-143500000D01*
X106810000Y-142030000D02*
X106810000Y-144970000D01*
X106930000Y-142030000D02*
X106930000Y-144970000D01*
X107050000Y-142030000D02*
X107050000Y-144970000D01*
X112490000Y-143500000D02*
X111470000Y-143500000D01*
X106030000Y-142030000D02*
X111470000Y-142030000D01*
X111470000Y-144970000D01*
X106030000Y-144970000D01*
X106030000Y-142030000D01*
%TO.C,PU_R1*%
X220765000Y-89227064D02*
X220765000Y-88772936D01*
X222235000Y-89227064D02*
X222235000Y-88772936D01*
%TO.C,F1*%
X82200000Y-52250000D02*
X82200000Y-53600000D01*
X82200000Y-57750000D02*
X82200000Y-56400000D01*
X86200000Y-52250000D02*
X82200000Y-52250000D01*
X86200000Y-52250000D02*
X86200000Y-53600000D01*
X86200000Y-57750000D02*
X82200000Y-57750000D01*
X86200000Y-57750000D02*
X86200000Y-56400000D01*
X96900000Y-52250000D02*
X96900000Y-54000000D01*
X96900000Y-52500000D02*
X86200000Y-52500000D01*
X96900000Y-57500000D02*
X86200000Y-57500000D01*
X96900000Y-57750000D02*
X96900000Y-56000000D01*
X96900000Y-57750000D02*
X100900000Y-57750000D01*
X100900000Y-52250000D02*
X96900000Y-52250000D01*
X100900000Y-54000000D02*
X100900000Y-52250000D01*
X100900000Y-56000000D02*
X100900000Y-57750000D01*
%TO.C,J4*%
X69887500Y-122000000D02*
X80377500Y-122000000D01*
X69887500Y-124360000D02*
X69887500Y-122000000D01*
X69887500Y-133000000D02*
X69887500Y-124960000D01*
X71007500Y-122000000D02*
X71007500Y-133000000D01*
X78757500Y-122000000D02*
X78757500Y-133000000D01*
X80377500Y-122000000D02*
X80377500Y-133000000D01*
X80377500Y-133000000D02*
X69887500Y-133000000D01*
X69887500Y-124660000D02*
X69277500Y-125100000D01*
X69277500Y-124220000D01*
X69887500Y-124660000D01*
G36*
X69887500Y-124660000D02*
G01*
X69277500Y-125100000D01*
X69277500Y-124220000D01*
X69887500Y-124660000D01*
G37*
%TO.C,D2*%
X214540000Y-114587500D02*
X214540000Y-117272500D01*
X214540000Y-117272500D02*
X216460000Y-117272500D01*
X216460000Y-117272500D02*
X216460000Y-114587500D01*
%TO.C,D3*%
X105260000Y-126500000D02*
X106280000Y-126500000D01*
X107060000Y-125030000D02*
X107060000Y-127970000D01*
X107180000Y-125030000D02*
X107180000Y-127970000D01*
X107300000Y-125030000D02*
X107300000Y-127970000D01*
X112740000Y-126500000D02*
X111720000Y-126500000D01*
X106280000Y-125030000D02*
X111720000Y-125030000D01*
X111720000Y-127970000D01*
X106280000Y-127970000D01*
X106280000Y-125030000D01*
%TO.C,Rb3*%
X201860436Y-101165000D02*
X202314564Y-101165000D01*
X201860436Y-102635000D02*
X202314564Y-102635000D01*
%TO.C,Q2*%
X117430000Y-128210000D02*
X121030000Y-128210000D01*
X117391522Y-128198478D02*
G75*
G02*
X119230000Y-123759999I1838478J1838478D01*
G01*
X119230000Y-123760000D02*
G75*
G02*
X121068478Y-128198478I0J-2600000D01*
G01*
D10*
%TO.C,RV1*%
X104500000Y-53800000D02*
X104500000Y-57200000D01*
X104500000Y-53800000D02*
X111500000Y-53800000D01*
X104500000Y-57200000D02*
X111500000Y-57200000D01*
X111500000Y-53800000D02*
X111500000Y-57200000D01*
D11*
%TO.C,C_esp1*%
X206765000Y-88211252D02*
X206765000Y-87688748D01*
X208235000Y-88211252D02*
X208235000Y-87688748D01*
%TO.C,Rb2*%
X201860436Y-98215000D02*
X202314564Y-98215000D01*
X201860436Y-99685000D02*
X202314564Y-99685000D01*
%TD*%
M02*
